<svg width="165" height="102" viewBox="0 0 165 102" fill="none" xmlns="http://www.w3.org/2000/svg">
<g clip-path="url(#clip0_792_10113)">
<path d="M59.8737 81.2994C64.6764 76.5233 67.3846 73.6417 67.3846 71.0669C67.4289 70.6542 67.3818 70.2367 67.2466 69.8442C67.1115 69.4517 66.8916 69.0938 66.6025 68.7958C66.3135 68.4979 65.9624 68.2672 65.5742 68.1202C65.186 67.9732 64.7701 67.9134 64.3562 67.9451C63.6839 67.9998 63.0314 68.1999 62.444 68.5316C61.8566 68.8633 61.3483 69.3187 60.9543 69.8662L59.7803 68.6922C60.3519 67.9515 61.0827 67.3488 61.9186 66.9285C62.7546 66.5082 63.6742 66.2812 64.6097 66.2642C65.2419 66.2152 65.8773 66.3025 66.4729 66.5202C67.0684 66.7379 67.6103 67.081 68.0618 67.5262C68.5134 67.9714 68.864 68.5084 69.0901 69.1008C69.3162 69.6933 69.4125 70.3273 69.3724 70.9602C69.3724 73.9619 66.7042 76.9502 62.8621 80.8991C63.7426 80.8191 64.7164 80.7524 65.5302 80.7524H70.1595V82.5267H59.8737V81.2994Z" fill="#6A6E81"/>
<path d="M71.7871 74.495C71.7871 69.1586 73.7081 66.2637 76.91 66.2637C80.1118 66.2637 82.0195 69.1453 82.0195 74.495C82.0195 79.8447 80.0451 82.8197 76.91 82.8197C73.7748 82.8197 71.7871 79.8447 71.7871 74.495ZM80.0184 74.495C80.0184 69.8123 78.7643 67.9179 76.91 67.9179C75.0556 67.9179 73.7882 69.8123 73.7882 74.495C73.7882 79.1776 75.0422 81.1654 76.91 81.1654C78.7777 81.1654 80.0451 79.1776 80.0451 74.495H80.0184Z" fill="#6A6E81"/>
<path d="M83.5001 81.2994C88.3028 76.5233 91.011 73.6417 91.011 71.0669C91.054 70.6601 91.0083 70.2488 90.8769 69.8614C90.7456 69.474 90.5318 69.1197 90.2502 68.8229C89.9687 68.5261 89.6261 68.294 89.2461 68.1424C88.8661 67.9909 88.4578 67.9236 88.0493 67.9452C87.377 67.9998 86.7245 68.1999 86.1371 68.5316C85.5497 68.8633 85.0414 69.3187 84.6474 69.8662L83.46 68.6922C84.0336 67.9537 84.7648 67.3524 85.6003 66.9324C86.4358 66.5123 87.3545 66.284 88.2894 66.2642C88.9233 66.2134 89.5607 66.2993 90.1585 66.516C90.7563 66.7327 91.3006 67.0752 91.7546 67.5204C92.2087 67.9656 92.5619 68.5031 92.7903 69.0965C93.0187 69.6899 93.1171 70.3255 93.0788 70.9602C93.0788 73.9619 90.4106 76.9502 86.5685 80.8991C87.449 80.8191 88.4229 80.7524 89.2367 80.7524H93.8659V82.5267H83.5001V81.2994Z" fill="#6A6E81"/>
<path d="M96.2939 80.8187H99.936V69.0654H97.041V67.7313C98.2321 67.5567 99.3782 67.1536 100.417 66.5439H101.991V80.8187H105.3V82.5263H96.2939V80.8187Z" fill="#6A6E81"/>
<path fill-rule="evenodd" clip-rule="evenodd" d="M132.075 76.6033C132.851 77.6149 133.868 78.416 135.033 78.9333C136.198 79.4507 137.474 79.6678 138.745 79.565C141.419 79.4421 144.035 78.746 146.416 77.5238C142.32 76.8968 143.308 76.0563 140.439 75.0958C138.602 74.6584 136.679 74.7462 134.89 75.3493C136.968 74.6443 138.967 73.7232 140.853 72.6011C141.763 73.2923 142.82 73.766 143.941 73.9856C145.063 74.2053 146.22 74.1652 147.323 73.8684C149.752 73.2112 152.021 72.0674 153.994 70.5065C150.165 70.7734 150.939 69.8395 148.164 69.586C146.789 69.5309 145.42 69.791 144.162 70.3465C145.536 69.2743 146.821 68.0919 148.004 66.8111C149.015 67.2627 150.119 67.468 151.226 67.41C152.332 67.352 153.409 67.0325 154.367 66.4776C156.506 65.2886 158.384 63.6827 159.89 61.7549C156.355 62.9022 156.875 61.8216 154.221 62.2219C152.742 62.5625 151.368 63.2585 150.218 64.2497C151.381 62.7225 152.425 61.1079 153.34 59.4203C154.448 59.6168 155.587 59.5554 156.667 59.2407C157.748 58.9261 158.741 58.3666 159.57 57.6059C161.449 55.919 162.985 53.8851 164.093 51.6159C160.784 53.5636 161.104 52.3763 158.53 53.3769C156.932 54.1345 155.555 55.287 154.527 56.7254C155.345 54.8644 156.014 52.9418 156.529 50.9755C157.597 50.8792 158.631 50.5454 159.554 49.9983C160.478 49.4513 161.267 48.7049 161.865 47.8137C163.291 45.8041 164.319 43.5398 164.893 41.1433C162.225 43.8114 162.225 42.5574 160.024 44.1049C158.765 45.138 157.777 46.461 157.142 47.9605C157.486 46.0164 157.692 44.0503 157.756 42.0771C158.733 41.7942 159.634 41.2963 160.393 40.62C161.153 39.9436 161.751 39.1059 162.145 38.1683C163.095 36.0645 163.647 33.8028 163.773 31.4978C161.812 34.3661 161.665 33.2988 159.957 35.1132C158.818 36.57 158.066 38.2908 157.769 40.116C157.739 37.9286 157.534 35.7471 157.156 33.5923C158.071 33.1606 158.873 32.5228 159.501 31.7289C160.128 30.935 160.563 30.0066 160.771 29.0164C161.253 26.8992 161.29 24.7048 160.878 22.5728C159.544 25.6412 159.13 24.6806 157.809 26.7218C157.023 28.2195 156.659 29.9026 156.755 31.5912C156.622 30.9909 156.475 30.4039 156.302 29.8035C155.982 28.5895 155.595 27.4155 155.168 26.2682C155.918 25.6829 156.528 24.9369 156.953 24.0851C157.378 23.2333 157.607 22.2971 157.622 21.3454C157.663 19.3284 157.3 17.3236 156.555 15.4487C155.915 18.5305 155.368 17.73 154.554 19.8646C154.153 21.2444 154.102 22.7027 154.407 24.107C153.758 22.6241 153.014 21.1848 152.179 19.7979C152.681 19.1443 153.044 18.396 153.248 17.5981C153.452 16.8002 153.493 15.9692 153.367 15.1552C153.127 13.3223 152.562 11.5469 151.699 9.91227C151.592 12.7806 151.045 12.1269 150.685 14.1547C150.543 15.5417 150.721 16.9429 151.206 18.2503C150.3 16.8541 149.307 15.5173 148.231 14.2481C148.633 13.6122 148.9 12.9002 149.015 12.1564C149.13 11.4127 149.09 10.6532 148.898 9.92561C148.511 8.32667 147.818 6.81794 146.856 5.4831C147.043 8.04455 146.47 7.5376 146.336 9.39198C146.351 10.7657 146.708 12.1139 147.377 13.3142C146.344 12.2314 145.243 11.2154 144.081 10.2725C144.407 9.66073 144.592 8.98443 144.625 8.29233C144.657 7.60023 144.535 6.90959 144.268 6.27021C143.735 4.94574 142.92 3.75308 141.88 2.7749C142.334 5.00283 141.747 4.66931 141.88 6.33692C142.012 7.51736 142.474 8.6366 143.214 9.56541C142.103 8.69553 140.94 7.89362 139.732 7.16405C139.828 6.58496 139.806 5.9926 139.669 5.42202C139.531 4.85144 139.281 4.31423 138.932 3.84217C138.191 2.79299 137.264 1.88863 136.197 1.174C137.078 2.98836 136.531 2.7749 136.984 4.16235C137.372 5.09871 137.976 5.93049 138.745 6.59039C137.643 5.97506 136.508 5.42274 135.343 4.93613C135.36 4.38443 135.265 3.835 135.063 3.32126C134.862 2.80751 134.557 2.34021 134.169 1.94777C133.316 1.08898 132.288 0.424569 131.154 0C132.221 1.60091 131.648 1.5342 132.248 2.81493C132.603 3.48461 133.122 4.05367 133.756 4.46919C133.465 4.40953 133.166 4.40953 132.875 4.46919C132.058 4.73411 131.224 4.94798 130.38 5.10956C130.999 5.70397 131.778 6.10303 132.622 6.25687C133.094 6.35474 133.582 6.33797 134.047 6.20798C134.511 6.07799 134.937 5.83856 135.29 5.50978C136.317 5.95003 137.318 6.4303 138.278 6.9506C137.851 6.79304 137.389 6.76064 136.944 6.85721C135.61 7.17739 135.97 7.43087 134.369 7.75105C135.095 8.31537 135.963 8.66646 136.877 8.76496C137.389 8.82458 137.908 8.76128 138.391 8.58031C138.873 8.39934 139.306 8.10591 139.652 7.72437C140.848 8.44819 141.998 9.24574 143.094 10.1124C142.349 9.57498 141.452 9.28985 140.533 9.29859C138.905 9.37864 139.199 9.68548 137.238 9.71216C138.135 10.4291 139.185 10.9311 140.306 11.1797C140.891 11.3306 141.5 11.3635 142.098 11.2765C142.696 11.1894 143.27 10.9842 143.788 10.6727C144.835 11.5413 145.824 12.4771 146.75 13.4743C146.088 12.8929 145.254 12.5459 144.375 12.4871C142.467 12.3937 142.827 12.8339 140.479 12.6338C141.357 13.6719 142.487 14.4667 143.761 14.9418C144.404 15.2026 145.096 15.3175 145.788 15.2783C146.48 15.2391 147.155 15.0467 147.764 14.715C149.039 16.271 150.181 17.9311 151.179 19.6778C150.528 18.545 149.483 17.6906 148.244 17.2764C146.309 16.7561 146.603 17.2764 144.242 16.5694C144.976 17.7987 145.991 18.8365 147.203 19.5977C147.831 20.0135 148.541 20.2873 149.286 20.4002C150.03 20.5131 150.79 20.4624 151.512 20.2515C152.372 21.8125 153.134 23.4254 153.794 25.0809C153.234 24.1208 152.384 23.3638 151.366 22.9196C149.391 22.1325 149.658 22.7062 147.257 21.6522C147.927 23.0177 148.898 24.2129 150.098 25.1476C150.678 25.6345 151.351 25.998 152.075 26.216C152.8 26.4339 153.562 26.5016 154.314 26.4149C154.701 27.4555 155.061 28.5361 155.408 29.6568L155.728 30.8041C155.237 30.0581 154.561 29.4515 153.767 29.0431C151.712 28.0025 151.953 28.6562 149.458 27.2954C150.075 28.8187 151.023 30.1858 152.233 31.2977C153.303 32.3594 154.729 32.9867 156.235 33.0587C156.576 34.8644 156.786 36.6924 156.862 38.5285C156.446 37.6242 155.83 36.826 155.061 36.1938C153.047 34.5929 153.207 35.34 150.779 33.2722C151.219 35.0553 152.018 36.7302 153.127 38.1949C154.051 39.5027 155.362 40.4873 156.875 41.0099C156.825 43.1601 156.593 45.3023 156.182 47.4135C156.007 46.1795 155.515 45.0119 154.754 44.0249C152.9 41.877 152.913 42.6908 150.752 40.0226C150.821 42.0482 151.322 44.0356 152.219 45.8526C152.959 47.5335 154.255 48.9089 155.888 49.7481C155.37 51.8533 154.673 53.9107 153.807 55.8983C153.793 54.6183 153.448 53.3638 152.806 52.2562C151.272 49.6948 151.139 50.5486 149.338 47.3201C149.052 49.4109 149.211 51.5386 149.805 53.5636C150.27 55.3699 151.304 56.9788 152.753 58.1529C151.641 60.2315 150.337 62.2013 148.858 64.0362C149.216 62.6486 149.18 61.1882 148.751 59.8205C147.817 57.0189 147.51 57.806 146.47 54.3107C145.746 56.2386 145.445 58.2998 145.589 60.3541C145.66 62.2665 146.364 64.1011 147.59 65.5704C146.014 67.3667 144.247 68.986 142.32 70.3998C143.007 68.9455 143.275 67.3286 143.094 65.7305C142.667 62.6754 142.227 63.4225 141.76 59.6204C140.723 61.4844 140.078 63.5411 139.866 65.6638C139.613 67.6202 139.962 69.6072 140.866 71.3604C139.023 72.5453 137.049 73.5124 134.983 74.242L134.276 74.5622C135.4 73.3769 136.1 71.8519 136.264 70.2264C136.531 67.0646 135.837 67.6516 136.264 63.7694C134.645 65.2274 133.409 67.0596 132.662 69.1057C131.842 71.1079 131.799 73.3439 132.542 75.376C128.873 77.0436 122.162 80.2054 120.695 81.5261C119.801 82.3132 120.495 83.5006 121.028 83.0737C122.109 82.2198 125.031 80.4055 126.191 79.645C128.088 78.5105 130.053 77.4946 132.075 76.6033Z" fill="#6A6E81"/>
<path fill-rule="evenodd" clip-rule="evenodd" d="M38.6886 79.6047C39.8225 80.3785 42.7709 82.1795 43.8515 83.0333C44.3984 83.4602 45.0788 82.2729 44.1983 81.4724C42.7308 80.1384 36.0204 77.0033 32.3383 75.3356C33.0845 73.3006 33.0464 71.0606 32.2316 69.0521C31.4807 67.0045 30.2394 65.1723 28.6162 63.7157C29.0698 67.5979 28.3894 67.0243 28.6162 70.1861C28.7855 71.838 29.5153 73.3822 30.684 74.5619L29.9636 74.255C27.9014 73.5207 25.9315 72.5492 24.0936 71.3601C25.0013 69.6129 25.3462 67.6277 25.0809 65.6768C24.875 63.5529 24.2299 61.4948 23.1864 59.6334C22.7862 63.4356 22.346 62.6885 21.9324 65.7436C21.7437 67.3348 22.0025 68.9472 22.6795 70.3995C20.7509 68.993 18.9875 67.373 17.4232 65.5701C18.6497 64.1021 19.3495 62.2658 19.411 60.3538C19.5584 58.3049 19.2626 56.2482 18.5438 54.3238C17.5032 57.8191 17.2097 56.9919 16.2492 59.8202C15.8277 61.1896 15.7953 62.6492 16.1558 64.0359C14.7005 62.1676 13.4315 60.1614 12.367 58.0459C13.8215 56.8763 14.8563 55.2656 15.3153 53.4566C15.9028 51.435 16.0618 49.313 15.7823 47.2264C13.9812 50.4549 13.8478 49.6011 12.3136 52.1492C11.6739 53.2583 11.3251 54.5112 11.2997 55.7913C10.4473 53.803 9.75143 51.7511 9.21855 49.6545C10.8571 48.8177 12.1574 47.442 12.9006 45.7589C13.7921 43.9443 14.2921 41.9626 14.3681 39.9423C12.1535 42.6105 12.1535 41.85 10.3659 43.9446C9.54002 44.9303 8.99201 46.1184 8.7783 47.3865C8.3568 45.2929 8.09811 43.1698 8.00453 41.0362C9.52385 40.5178 10.8406 39.5326 11.7667 38.2213C12.8769 36.7739 13.6845 35.1179 14.1413 33.3519C11.7 35.4197 11.8734 34.686 9.85891 36.2869C9.07451 36.8901 8.43992 37.6662 8.00453 38.5548C8.07269 36.7182 8.28232 34.8895 8.63155 33.0851C10.1375 33.0131 11.5633 32.3857 12.6338 31.3241C13.8457 30.2136 14.7938 28.8462 15.4087 27.3218C12.9006 28.6559 13.1541 28.0422 11.0996 29.0695C10.3053 29.4779 9.62976 30.0845 9.1385 30.8305C9.23189 30.4436 9.33862 30.07 9.45868 29.6832C9.79221 28.5759 10.1658 27.4953 10.5526 26.4547C11.3092 26.5323 12.0736 26.4539 12.7987 26.2245C13.5238 25.995 14.1942 25.6193 14.7684 25.1206C15.968 24.1911 16.9398 23.0002 17.61 21.6386C15.2086 22.6925 15.4754 22.1055 13.501 22.8926C12.5074 23.3615 11.6828 24.1256 11.1396 25.0806C11.8041 23.4249 12.5704 21.812 13.4343 20.2512C14.1561 20.4685 14.9172 20.5227 15.6624 20.4096C16.4077 20.2965 17.1185 20.0191 17.7434 19.5974C18.9561 18.8362 19.971 17.7984 20.705 16.5691C18.3304 17.2895 18.6372 16.7692 16.7028 17.2761C15.4634 17.6902 14.4191 18.5447 13.7678 19.6775C14.7598 17.9145 15.9025 16.2407 17.1831 14.6747C17.794 15.0007 18.469 15.1888 19.1605 15.2256C19.852 15.2625 20.5432 15.1473 21.1853 14.8881C22.456 14.4137 23.5853 13.6241 24.4672 12.5935C22.1192 12.7936 22.4794 12.34 20.5716 12.4334C19.6914 12.496 18.8566 12.8478 18.197 13.434C19.1486 12.4519 20.16 11.5297 21.2253 10.6724C21.7428 10.9844 22.3178 11.189 22.9161 11.2738C23.5143 11.3586 24.1235 11.3219 24.7073 11.166C25.8306 10.923 26.8814 10.4204 27.7757 9.69848C25.7479 9.69848 26.1081 9.36495 24.4805 9.29825C23.5631 9.28468 22.6655 9.56519 21.9191 10.0987C23.0103 9.21881 24.1554 8.40788 25.3477 7.67066C25.6942 8.05221 26.1267 8.34564 26.6093 8.52661C27.0918 8.70758 27.6106 8.77088 28.1226 8.71125C29.0567 8.62913 29.9468 8.27683 30.684 7.69734C29.7799 7.45044 28.8893 7.15654 28.0158 6.81685C27.5732 6.70892 27.1083 6.73681 26.6818 6.89689C27.6423 6.3766 28.6429 5.89633 29.6701 5.45608C30.0233 5.78441 30.4492 6.02447 30.9129 6.15664C31.3767 6.28881 31.8651 6.30932 32.3383 6.21651C33.2178 6.07655 34.0354 5.67703 34.6863 5.06919C33.8458 4.89576 33.0187 4.68231 32.1915 4.42883C31.9018 4.36255 31.6008 4.36255 31.311 4.42883C31.942 4.00984 32.4598 3.44162 32.8186 2.77456C33.4056 1.44047 32.8186 1.5472 33.9125 -0.0537109C32.7885 0.374249 31.7694 1.03847 30.9242 1.89406C30.5379 2.28787 30.2349 2.75541 30.0332 3.26883C29.8315 3.78224 29.7352 4.33101 29.7502 4.88242C28.5882 5.37443 27.4527 5.9266 26.3482 6.53669C27.0804 5.87426 27.6509 5.05275 28.0158 4.13533C28.4694 2.80124 27.9225 2.97467 28.803 1.14697C27.7383 1.86461 26.8118 2.76849 26.0681 3.81515C25.7307 4.29955 25.4931 4.84634 25.3695 5.42358C25.2458 6.00082 25.2384 6.59692 25.3477 7.17705C24.1433 7.90069 22.9848 8.69822 21.879 9.56507C22.6433 8.64391 23.1292 7.524 23.2798 6.33657C23.3465 4.66896 22.7595 5.00249 23.2131 2.77456C22.1762 3.75815 21.358 4.9491 20.8118 6.26987C20.5497 6.91085 20.4317 7.60164 20.4663 8.29328C20.5009 8.98492 20.6871 9.6605 21.0119 10.2722C19.8408 11.2522 18.7314 12.3037 17.69 13.4206C18.3396 12.2155 18.6789 10.8675 18.6772 9.49836C18.5305 7.64398 17.9702 8.16428 18.1569 5.58949C17.2005 6.92718 16.5077 8.43492 16.1158 10.032C15.9236 10.7596 15.8837 11.5191 15.9985 12.2628C16.1133 13.0066 16.3803 13.7186 16.7828 14.3545C15.7057 15.6262 14.7077 16.9628 13.7945 18.3567C14.2897 17.0519 14.4724 15.6493 14.3281 14.2611C13.9546 12.2333 13.4076 12.927 13.3142 10.032C12.4491 11.6421 11.8841 13.3961 11.6466 15.2083C11.5222 16.0192 11.562 16.8469 11.7637 17.6421C11.9653 18.4373 12.3248 19.184 12.8206 19.8376C12.0208 21.2352 11.3037 22.6785 10.6727 24.16C10.9803 22.7552 10.9252 21.2953 10.5126 19.9176C9.69882 17.7831 9.17853 18.5835 8.51148 15.4885C7.74261 17.3443 7.35689 19.3364 7.37751 21.3451C7.38454 22.2818 7.5987 23.2053 8.00464 24.0495C8.41057 24.8936 8.99824 25.6375 9.7255 26.2279C9.29859 27.3752 8.92505 28.5492 8.57819 29.7632C8.41809 30.3635 8.27135 30.9505 8.13794 31.5509C8.23407 29.8622 7.8698 28.1792 7.08401 26.6815C5.74992 24.6403 5.34969 25.6008 4.0156 22.5324C3.60373 24.6645 3.64008 26.8589 4.12233 28.9761C4.32494 29.9735 4.75716 30.9099 5.38472 31.7112C6.01228 32.5124 6.81791 33.1564 7.73771 33.592C7.3597 35.7468 7.15449 37.9283 7.12403 40.1157C6.8216 38.2923 6.06966 36.5729 4.93613 35.1129C3.22849 33.3519 3.08174 34.3791 1.12063 31.4975C1.24039 33.8033 1.7925 36.0661 2.74822 38.168C3.14194 39.1056 3.74045 39.9433 4.49991 40.6197C5.25937 41.2961 6.16054 41.7939 7.13737 42.0768C7.1951 44.0505 7.40023 46.0171 7.75105 47.9602C7.12415 46.4303 6.12983 45.0786 4.85608 44.0246C2.66818 42.5171 2.66818 43.7178 0 41.1029C0.574713 43.4969 1.59776 45.7603 3.01504 47.7734C3.62605 48.6699 4.42928 49.4189 5.36625 49.9658C6.30322 50.5128 7.35035 50.8439 8.43144 50.9352C8.94398 52.9021 9.61317 54.8249 10.4326 56.6851C9.42494 55.2608 8.0703 54.1174 6.49701 53.3632C3.92222 52.3627 4.2424 53.55 0.933862 51.5889C2.05748 53.8627 3.61148 55.8969 5.50978 57.5789C6.33667 58.3444 7.329 58.9087 8.40959 59.228C9.49017 59.5473 10.6299 59.613 11.74 59.42C12.6549 61.1076 13.6986 62.7222 14.8617 64.2494C13.7123 63.2582 12.3385 62.5622 10.8595 62.2216C8.1913 61.8213 8.72494 62.9019 5.1896 61.7546C6.68453 63.6783 8.54871 65.284 10.6727 66.4773C11.6326 67.0282 12.7082 67.3465 13.8133 67.4068C14.9184 67.467 16.0222 67.2675 17.0363 66.8242C18.2226 68.0972 19.5073 69.2749 20.8785 70.3462C19.6194 69.7921 18.2507 69.532 16.8762 69.5857C14.1013 69.8392 14.8751 70.7864 11.0462 70.5062C13.0158 72.0722 15.2863 73.2165 17.7167 73.8681C18.8204 74.1649 19.9774 74.205 21.0989 73.9854C22.2205 73.7657 23.2769 73.292 24.187 72.6008C26.0732 73.7229 28.072 74.644 30.1504 75.349C28.3608 74.7458 26.4377 74.6581 24.6006 75.0955C21.7323 76.0561 22.7195 76.8965 18.6239 77.5236C21.0051 78.7457 23.6212 79.4418 26.2949 79.5647C27.5656 79.6676 28.8419 79.4504 30.0071 78.933C31.1723 78.4156 32.1894 77.6146 32.9653 76.603C34.9319 77.4872 36.8431 78.4896 38.6886 79.6047Z" fill="#6A6E81"/>
<path d="M48.4277 13.6738H51.4961C53.4705 13.6738 54.9247 14.2742 54.9247 16.0352C54.9418 16.4768 54.8231 16.9132 54.5846 17.2853C54.346 17.6574 53.9991 17.9475 53.5906 18.1163V18.183C54.123 18.2678 54.6053 18.5462 54.9451 18.9648C55.2848 19.3833 55.4581 19.9125 55.4317 20.451C55.4317 22.3721 53.8574 23.2659 51.7362 23.2659H48.4277V13.6738ZM51.3493 17.6761C52.6834 17.6761 53.2571 17.1424 53.2571 16.342C53.2571 15.5415 52.6167 15.0079 51.376 15.0079H50.122V17.6761H51.3493ZM51.5628 21.9852C52.9769 21.9852 53.764 21.4782 53.764 20.3976C53.764 19.317 53.0036 18.9568 51.5628 18.9568H50.122V21.9852H51.5628Z" fill="#6A6E81"/>
<path d="M56.4188 19.6775C56.3807 19.2091 56.4371 18.7378 56.5846 18.2915C56.7321 17.8453 56.9678 17.4333 57.2777 17.0799C57.5875 16.7265 57.9652 16.439 58.3883 16.2343C58.8114 16.0297 59.2713 15.9122 59.7407 15.8887C61.6884 15.8887 62.7023 17.3429 62.7023 19.304C62.7285 19.5791 62.7285 19.856 62.7023 20.1311H58.073C58.0782 20.4032 58.1374 20.6716 58.2471 20.9207C58.3569 21.1697 58.515 21.3945 58.7124 21.5819C58.9097 21.7694 59.1424 21.9157 59.3968 22.0125C59.6511 22.1092 59.9222 22.1545 60.1942 22.1456C60.7907 22.1366 61.371 21.9509 61.8619 21.612L62.4355 22.6659C61.7102 23.1575 60.857 23.4265 59.9808 23.4397C59.4917 23.4546 59.005 23.3659 58.5526 23.1794C58.1003 22.9929 57.6925 22.7127 57.3561 22.3574C57.0197 22.0021 56.7622 21.5796 56.6007 21.1178C56.4391 20.6559 56.3772 20.1651 56.4188 19.6775ZM61.2482 18.9838C61.2482 17.8632 60.7679 17.1961 59.7807 17.1961C59.317 17.2133 58.8778 17.4088 58.5547 17.7418C58.2316 18.0749 58.0495 18.5198 58.0464 18.9838H61.2482Z" fill="#6A6E81"/>
<path d="M63.4629 22.4524L64.2634 21.3585C64.8095 21.8553 65.5134 22.1435 66.2512 22.1723C67.0383 22.1723 67.3985 21.7987 67.3985 21.3051C67.3985 20.8115 66.6247 20.438 65.8643 20.1445C65.1039 19.851 63.8765 19.2506 63.8765 18.0499C63.8765 16.8493 64.8771 15.8887 66.5447 15.8887C67.4198 15.8998 68.2657 16.2053 68.9461 16.7559L68.1723 17.7831C67.7243 17.4107 67.1667 17.1952 66.5847 17.1694C65.8643 17.1694 65.5174 17.503 65.5174 17.9566C65.5174 18.4101 66.2112 18.7437 66.9849 19.0238C67.9722 19.3974 69.0528 19.8643 69.0528 21.2117C69.0528 22.5592 68.0656 23.4397 66.2512 23.4397C65.2379 23.4293 64.2569 23.082 63.4629 22.4524Z" fill="#6A6E81"/>
<path d="M70.3202 20.8378V17.3425H69.293V16.1418L70.4136 16.0617L70.6137 14.1006H72.0412V16.0084H73.8689V17.3425H72.0412V20.7844C72.0412 21.6249 72.3614 22.0384 73.0551 22.0384C73.312 22.0329 73.5656 21.9786 73.8022 21.8784L74.0957 23.1324C73.6235 23.296 73.1279 23.3816 72.6282 23.3859C70.9339 23.4392 70.3202 22.3853 70.3202 20.8378Z" fill="#6A6E81"/>
<path d="M77.6572 18.4228C77.6572 15.3277 79.3915 13.5 81.8863 13.5C84.381 13.5 86.1287 15.3277 86.1287 18.4228C86.1287 21.5179 84.3944 23.439 81.8863 23.439C79.3782 23.439 77.6572 21.5312 77.6572 18.4228ZM84.3277 18.4228C84.3277 16.2883 83.3538 14.9809 81.8463 14.9809C80.3387 14.9809 79.3649 16.315 79.3649 18.4228C79.3649 20.5307 80.3387 21.9581 81.8463 21.9581C83.3538 21.9581 84.3677 20.584 84.3677 18.4228H84.3277Z" fill="#6A6E81"/>
<path d="M87.7559 16.0085H89.09L89.2101 16.9824C89.5041 16.6395 89.8654 16.3608 90.2716 16.1634C90.6778 15.966 91.1202 15.8543 91.5714 15.835C93.1056 15.835 93.786 16.8756 93.786 18.69V23.2126H92.2118V18.9702C92.2118 17.7828 91.8783 17.3426 91.0912 17.3426C90.7677 17.3654 90.4529 17.457 90.1677 17.6111C89.8824 17.7653 89.6333 17.9784 89.4369 18.2364V23.2659H87.7559V16.0085Z" fill="#6A6E81"/>
<path d="M95.8271 21.4246V12.9131H97.5081V21.5046C97.5081 21.9182 97.7083 22.065 97.8817 22.065H98.1486L98.3619 23.319C98.0776 23.4301 97.773 23.4801 97.4681 23.4658C96.2674 23.4391 95.8271 22.6786 95.8271 21.4246Z" fill="#6A6E81"/>
<path d="M99.4965 13.8339C99.4858 13.6314 99.5361 13.4304 99.6408 13.2568C99.7455 13.0832 99.8999 12.945 100.084 12.86C100.268 12.775 100.473 12.7471 100.673 12.78C100.873 12.8129 101.059 12.905 101.206 13.0444C101.353 13.1839 101.455 13.3642 101.499 13.5622C101.543 13.7602 101.526 13.9668 101.451 14.1552C101.376 14.3436 101.246 14.5052 101.079 14.6191C100.911 14.7331 100.713 14.7941 100.51 14.7944C100.379 14.8058 100.246 14.7892 100.122 14.7457C99.9973 14.7021 99.8834 14.6327 99.7876 14.542C99.6918 14.4512 99.6163 14.3412 99.5661 14.2191C99.516 14.0971 99.4922 13.9658 99.4965 13.8339ZM99.6566 16.0084H101.391V23.2125H99.6566V16.0084Z" fill="#6A6E81"/>
<path d="M103.352 16.0085H104.686L104.793 16.9824H104.859C105.153 16.6395 105.515 16.3608 105.921 16.1634C106.327 15.966 106.769 15.8543 107.221 15.835C108.755 15.835 109.435 16.8756 109.435 18.69V23.2126H107.821V18.9702C107.821 17.7828 107.474 17.3426 106.687 17.3426C106.366 17.3673 106.054 17.4597 105.771 17.6138C105.488 17.7678 105.241 17.98 105.046 18.2364V23.2659H103.352V16.0085Z" fill="#6A6E81"/>
<path d="M110.956 19.6775C110.918 19.2091 110.974 18.7378 111.122 18.2915C111.27 17.8453 111.505 17.4333 111.815 17.0799C112.125 16.7265 112.503 16.439 112.926 16.2343C113.349 16.0297 113.809 15.9122 114.278 15.8887C116.226 15.8887 117.253 17.3028 117.253 19.304C117.261 19.5819 117.234 19.8598 117.173 20.1311H112.597C112.604 20.4039 112.665 20.6725 112.776 20.9217C112.887 21.1708 113.047 21.3955 113.245 21.5827C113.443 21.77 113.677 21.9161 113.932 22.0127C114.187 22.1093 114.459 22.1545 114.732 22.1456C115.328 22.1342 115.907 21.9487 116.399 21.612L116.973 22.6659C116.242 23.1558 115.385 23.4244 114.505 23.4397C114.017 23.4527 113.532 23.3626 113.081 23.1752C112.63 22.9878 112.224 22.7074 111.889 22.3523C111.554 21.9972 111.298 21.5754 111.137 21.1145C110.976 20.6536 110.915 20.1639 110.956 19.6775ZM115.786 18.9838C115.786 17.8632 115.305 17.1961 114.318 17.1961C113.854 17.2133 113.415 17.4088 113.092 17.7418C112.769 18.0749 112.587 18.5198 112.584 18.9838H115.786Z" fill="#6A6E81"/>
<path d="M33.5128 31.6577H30.6846V30.2168H37.9287V31.6577H35.2071V39.8223H33.5128V31.6577Z" fill="#6A6E81"/>
<path d="M38.6885 32.618H40.0226L40.1426 33.8854C40.3227 33.4845 40.6071 33.1393 40.9662 32.8859C41.3252 32.6324 41.7457 32.48 42.1838 32.4446C42.4672 32.4276 42.7506 32.4779 43.0109 32.5913L42.7174 34.0588C42.4773 33.9757 42.2244 33.9351 41.9703 33.9387C41.3967 33.9387 40.6362 34.3256 40.2627 35.4196V39.8221H38.6885V32.618Z" fill="#6A6E81"/>
<path d="M43.2109 37.8878C43.2109 36.3402 44.545 35.5398 47.4533 35.2196C47.4533 34.4592 47.1065 33.8188 46.1193 33.8188C45.3915 33.8654 44.6903 34.1098 44.0914 34.5259L43.4911 33.3519C44.3716 32.7697 45.3976 32.4462 46.4528 32.418C48.2405 32.418 49.121 33.512 49.121 35.5264V39.7955H47.7869L47.6668 39.0084C47.0454 39.6143 46.2254 39.9746 45.3588 40.0223C45.0729 40.0418 44.786 40.0001 44.5175 39.9C44.2489 39.7998 44.0049 39.6434 43.8015 39.4414C43.5982 39.2394 43.4404 38.9963 43.3385 38.7283C43.2367 38.4604 43.1932 38.1738 43.2109 37.8878ZM47.4533 37.8878V36.2735C45.4789 36.5137 44.7852 37.034 44.7852 37.7544C44.7852 38.4748 45.2254 38.6749 45.8258 38.6749C46.1359 38.6592 46.4398 38.5815 46.7193 38.4463C46.9989 38.3111 47.2485 38.1212 47.4533 37.8878Z" fill="#6A6E81"/>
<path d="M50.5752 36.2205C50.5752 33.8725 52.056 32.445 53.6303 32.445C53.9823 32.4448 54.331 32.5142 54.6561 32.6493C54.9813 32.7843 55.2764 32.9825 55.5247 33.2322V32.0715V29.4033H57.219V39.7692H55.7515L55.6447 38.9954H55.578C55.0462 39.5639 54.3143 39.9035 53.5369 39.9426C51.7359 40.0227 50.5752 38.6085 50.5752 36.2205ZM55.458 37.7947V34.4328C55.0648 34.0505 54.5388 33.8354 53.9905 33.8325C53.0699 33.8325 52.3229 34.6996 52.3229 36.2072C52.3229 37.7147 52.9098 38.6085 53.9504 38.6085C54.2473 38.5978 54.5378 38.5187 54.7992 38.3776C55.0606 38.2365 55.286 38.037 55.458 37.7947Z" fill="#6A6E81"/>
<path d="M58.9799 30.3905C58.9693 30.188 59.0195 29.987 59.1242 29.8134C59.229 29.6398 59.3833 29.5016 59.5674 29.4166C59.7515 29.3316 59.9568 29.3038 60.1569 29.3367C60.3569 29.3696 60.5425 29.4617 60.6897 29.6011C60.8369 29.7405 60.9389 29.9209 60.9826 30.1189C61.0262 30.3169 61.0095 30.5234 60.9346 30.7118C60.8596 30.9002 60.73 31.0618 60.5623 31.1758C60.3946 31.2897 60.1966 31.3508 59.9938 31.3511C59.8624 31.3624 59.73 31.3458 59.6054 31.3023C59.4808 31.2588 59.3668 31.1894 59.271 31.0986C59.1752 31.0079 59.0998 30.8978 59.0496 30.7758C58.9994 30.6537 58.9757 30.5224 58.9799 30.3905ZM59.14 32.6184H60.8343V39.8225H59.14V32.6184Z" fill="#6A6E81"/>
<path d="M62.8486 32.6187H64.1827L64.3027 33.5792C64.6009 33.2424 64.9634 32.9686 65.3689 32.7738C65.7744 32.5791 66.2148 32.4674 66.6641 32.4453C68.2116 32.4453 68.892 33.4859 68.892 35.3002V39.8228H67.3044V35.527C67.3044 34.3263 66.9709 33.8861 66.1705 33.8861C65.8487 33.9141 65.5364 34.0093 65.2537 34.1655C64.9711 34.3218 64.7243 34.5357 64.5295 34.7933V39.8228H62.8486V32.6187Z" fill="#6A6E81"/>
<path d="M70.4268 41.1295C70.4495 40.8047 70.556 40.4913 70.7361 40.2201C70.9162 39.9488 71.1636 39.7289 71.4541 39.5819C71.2494 39.4577 71.082 39.2806 70.9693 39.0694C70.8566 38.8581 70.8029 38.6204 70.8137 38.3812C70.8345 38.1136 70.9163 37.8542 71.0527 37.623C71.1891 37.3918 71.3766 37.1948 71.6008 37.0472V36.9804C71.3108 36.754 71.076 36.4646 70.9142 36.1341C70.7524 35.8036 70.6679 35.4407 70.667 35.0727C70.6787 34.7152 70.7622 34.3636 70.9126 34.039C71.0629 33.7144 71.277 33.4233 71.5421 33.1831C71.8072 32.9429 72.1179 32.7585 72.4557 32.6408C72.7935 32.523 73.1516 32.4745 73.5086 32.4979C73.8716 32.4945 74.2325 32.5532 74.5758 32.6713H77.1506V33.912H75.8165C76.0933 34.2604 76.2396 34.6946 76.2301 35.1394C76.2316 35.48 76.1618 35.8172 76.0251 36.1292C75.8885 36.4412 75.6881 36.7212 75.4368 36.9511C75.1855 37.1811 74.8889 37.3559 74.566 37.4643C74.2431 37.5728 73.9011 37.6124 73.5619 37.5808C73.2283 37.5822 72.8975 37.5188 72.588 37.394C72.4746 37.4701 72.3821 37.5736 72.3192 37.6948C72.2562 37.816 72.2248 37.9512 72.2278 38.0877C72.2278 38.5013 72.5213 38.7414 73.4018 38.7414H74.7359C76.4702 38.7414 77.4041 39.2751 77.4041 40.5158C77.4041 41.7565 75.7765 43.0105 73.3752 43.0105C71.7075 43.0105 70.4268 42.3835 70.4268 41.1295ZM75.6431 40.7426C75.6431 40.1823 75.1895 40.0222 74.309 40.0222H73.3752C73.048 40.0294 72.7211 39.9981 72.4013 39.9288C72.2391 40.0306 72.1037 40.1696 72.0062 40.3344C71.9087 40.4992 71.8521 40.6849 71.8409 40.876C71.8409 41.5297 72.548 41.9032 73.6953 41.9032C74.8427 41.9032 75.6431 41.3563 75.6431 40.7426ZM74.7092 35.0193C74.6853 34.7586 74.5851 34.5107 74.4212 34.3065C74.2574 34.1023 74.037 33.9508 73.7877 33.871C73.5384 33.7911 73.271 33.7864 73.019 33.8574C72.767 33.9284 72.5415 34.0719 72.3705 34.2702C72.1995 34.4685 72.0906 34.7127 72.0574 34.9724C72.0242 35.2321 72.0682 35.4959 72.1839 35.7308C72.2995 35.9656 72.4817 36.1613 72.7078 36.2934C72.9338 36.4255 73.1938 36.4881 73.4552 36.4735C73.6341 36.4635 73.8092 36.4175 73.97 36.3384C74.1308 36.2592 74.274 36.1485 74.391 36.0127C74.5081 35.877 74.5966 35.7191 74.6513 35.5484C74.7059 35.3778 74.7256 35.1978 74.7092 35.0193Z" fill="#6A6E81"/>
<path d="M81.3799 30.2168H84.3949C86.5295 30.2168 88.117 30.9506 88.117 33.1919C88.117 35.4331 86.5295 36.3003 84.4616 36.3003H83.1276V39.8223H81.3799V30.2168ZM84.3282 34.9395C85.7424 34.9395 86.4361 34.3659 86.4361 33.1919C86.4361 32.0179 85.689 31.591 84.2615 31.591H83.0742V34.9395H84.3282Z" fill="#6A6E81"/>
<path d="M89.584 37.9676V29.4561H91.2649V38.061C91.2649 38.4746 91.465 38.6213 91.6385 38.6213C91.7271 38.6316 91.8166 38.6316 91.9053 38.6213L92.1188 39.8754C91.8344 39.9865 91.5298 40.0365 91.2249 40.0221C90.0242 40.0221 89.584 39.2217 89.584 37.9676Z" fill="#6A6E81"/>
<path d="M93.0258 37.8878C93.0258 36.3402 94.3599 35.5398 97.2682 35.2196C97.2682 34.4592 96.9347 33.8188 95.9341 33.8188C95.2072 33.8693 94.507 34.1134 93.9063 34.5259L93.306 33.3519C94.1883 32.7736 95.2132 32.4504 96.2677 32.418C98.0687 32.418 98.9358 33.512 98.9358 35.5264V39.7955H97.5617L97.3883 39.0351C96.7828 39.609 95.9933 39.9494 95.1604 39.9956C94.8778 40.0128 94.5949 39.9703 94.3299 39.8708C94.0649 39.7713 93.8239 39.6171 93.6225 39.4183C93.4211 39.2194 93.2639 38.9803 93.1611 38.7166C93.0583 38.4529 93.0122 38.1705 93.0258 37.8878ZM97.2682 37.8878V36.2735C95.3071 36.5137 94.6 37.034 94.6 37.7544C94.6 38.4748 95.0403 38.6749 95.654 38.6749C95.9624 38.6605 96.2647 38.5833 96.5423 38.4479C96.8199 38.3126 97.0669 38.122 97.2682 37.8878Z" fill="#6A6E81"/>
<path d="M100.857 37.3541V33.9522H99.8301V32.6848L100.937 32.6181L101.151 30.6836H102.551V32.6581H104.392V33.9922H102.551V37.3541C102.551 38.2079 102.872 38.6215 103.565 38.6215C103.822 38.6123 104.075 38.5581 104.312 38.4614L104.606 39.7021C104.135 39.8707 103.639 39.9608 103.138 39.9689C101.471 40.0223 100.857 38.9416 100.857 37.3541Z" fill="#6A6E81"/>
<path d="M106.047 33.9525H105.073V32.6851L106.047 32.6184V31.8714C106.047 30.3638 106.74 29.2832 108.435 29.2832C108.891 29.2817 109.344 29.3678 109.769 29.5367L109.449 30.7907C109.199 30.6853 108.932 30.6265 108.661 30.6173C108.074 30.6173 107.741 31.0042 107.741 31.8313V32.6184H109.155V33.9525H107.728V39.8225H106.047V33.9525Z" fill="#6A6E81"/>
<path d="M109.635 36.2203C109.593 35.7446 109.651 35.2654 109.804 34.8131C109.957 34.3609 110.203 33.9454 110.525 33.5932C110.848 33.241 111.24 32.9598 111.677 32.7674C112.114 32.5749 112.586 32.4756 113.064 32.4756C113.542 32.4756 114.014 32.5749 114.451 32.7674C114.888 32.9598 115.28 33.241 115.603 33.5932C115.925 33.9454 116.171 34.3609 116.324 34.8131C116.477 35.2654 116.535 35.7446 116.493 36.2203C116.535 36.696 116.477 37.1752 116.324 37.6274C116.171 38.0797 115.925 38.4952 115.603 38.8474C115.28 39.1996 114.888 39.4808 114.451 39.6732C114.014 39.8656 113.542 39.965 113.064 39.965C112.586 39.965 112.114 39.8656 111.677 39.6732C111.24 39.4808 110.848 39.1996 110.525 38.8474C110.203 38.4952 109.957 38.0797 109.804 37.6274C109.651 37.1752 109.593 36.696 109.635 36.2203ZM114.758 36.2203C114.758 34.7661 114.118 33.8189 113.064 33.8189C112.01 33.8189 111.37 34.7661 111.37 36.2203C111.37 37.6744 112.063 38.6883 113.064 38.6883C114.065 38.6883 114.732 37.6611 114.732 36.2203H114.758Z" fill="#6A6E81"/>
<path d="M118.027 32.618H119.361L119.481 33.8854C119.661 33.4845 119.946 33.1393 120.305 32.8859C120.664 32.6324 121.084 32.48 121.522 32.4446C121.806 32.4276 122.089 32.4779 122.349 32.5913L122.056 34.0588C121.816 33.9757 121.563 33.9351 121.309 33.9387C120.735 33.9387 119.975 34.3256 119.601 35.4196V39.8221H118.027V32.618Z" fill="#6A6E81"/>
<path d="M123.35 32.6187H124.684L124.804 33.5926C125.069 33.2567 125.402 32.9808 125.782 32.783C126.161 32.5853 126.578 32.4701 127.005 32.4453C127.438 32.4146 127.868 32.5292 128.228 32.7709C128.588 33.0125 128.857 33.3674 128.993 33.7793C129.264 33.4063 129.611 33.0947 130.011 32.8648C130.411 32.6349 130.855 32.492 131.314 32.4453C132.835 32.4453 133.542 33.4858 133.542 35.3002V39.8228H131.968V35.527C131.968 34.3263 131.608 33.8861 130.861 33.8861C130.561 33.9263 130.272 34.0275 130.013 34.1835C129.754 34.3396 129.529 34.5471 129.353 34.7933V39.8228H127.659V35.527C127.659 34.3263 127.312 33.8861 126.552 33.8861C126.25 33.9275 125.96 34.0292 125.699 34.1851C125.438 34.3409 125.211 34.5478 125.031 34.7933V39.8228H123.35V32.6187Z" fill="#6A6E81"/>
<path d="M61.5547 46.7725H63.3023L66.304 52.1089L67.2779 54.1501C67.1979 53.1628 67.0511 51.9488 67.0511 50.8815V46.7725H68.6787V56.378H66.9978L64.0094 51.0416L63.0222 49.0005C63.0222 50.0144 63.2356 51.175 63.2356 52.2423V56.4447H61.5547V46.7725Z" fill="#6A6E81"/>
<path d="M70.7061 46.9328C70.7061 46.6639 70.813 46.406 71.0031 46.2159C71.1933 46.0257 71.4511 45.9189 71.72 45.9189C71.9889 45.9189 72.2468 46.0257 72.437 46.2159C72.6271 46.406 72.734 46.6639 72.734 46.9328C72.734 47.2017 72.6271 47.4596 72.437 47.6497C72.2468 47.8399 71.9889 47.9467 71.72 47.9467C71.4511 47.9467 71.1933 47.8399 71.0031 47.6497C70.813 47.4596 70.7061 47.2017 70.7061 46.9328ZM70.8662 49.1607H72.5739V56.3781H70.8929L70.8662 49.1607Z" fill="#6A6E81"/>
<path d="M74.1084 57.686C74.1271 57.3601 74.2321 57.0451 74.4126 56.7732C74.5931 56.5012 74.8427 56.2822 75.1357 56.1385C74.9265 56.0148 74.755 55.8364 74.6398 55.6224C74.5246 55.4085 74.4701 55.1671 74.482 54.9244C74.5043 54.6556 74.5881 54.3955 74.7269 54.1642C74.8657 53.9329 75.0558 53.7365 75.2824 53.5903C74.9892 53.3659 74.7513 53.0773 74.5871 52.7465C74.4229 52.4158 74.3368 52.0518 74.3352 51.6826C74.3451 51.3227 74.4278 50.9685 74.5782 50.6414C74.7286 50.3143 74.9436 50.021 75.2104 49.7792C75.4771 49.5374 75.79 49.3521 76.1303 49.2344C76.4705 49.1167 76.8311 49.0691 77.1902 49.0945C77.5483 49.0977 77.9038 49.1562 78.2441 49.2679H80.8323V50.5219H79.4982C79.7625 50.871 79.9033 51.2981 79.8984 51.736C79.9017 52.0777 79.8333 52.4163 79.6975 52.7299C79.5617 53.0436 79.3616 53.3252 79.1101 53.5566C78.8586 53.7879 78.5613 53.9639 78.2375 54.0732C77.9136 54.1824 77.5705 54.2224 77.2302 54.1907C76.8923 54.1915 76.5573 54.1281 76.243 54.0039C76.1348 54.0811 76.0467 54.1832 75.9863 54.3017C75.9259 54.4201 75.895 54.5514 75.8961 54.6843C75.8961 55.0979 76.1896 55.3513 77.0701 55.3513H78.3375C80.0718 55.3513 81.0057 55.885 81.0057 57.1257C81.0057 58.3664 79.5115 59.6604 77.1635 59.6604C75.3758 59.5537 74.1084 58.94 74.1084 57.686ZM79.3114 57.2991C79.3114 56.7388 78.8578 56.5787 77.9773 56.5787H76.9901C76.6576 56.5896 76.3253 56.5536 76.0029 56.472C75.8419 56.5782 75.7076 56.7201 75.6104 56.8867C75.5132 57.0533 75.4558 57.2401 75.4425 57.4325C75.4425 58.0729 76.1496 58.4598 77.2969 58.4598C78.4442 58.4598 79.3114 57.9128 79.3114 57.3658V57.2991ZM78.4309 51.5759C78.4572 51.3958 78.4445 51.2123 78.3935 51.0376C78.3426 50.863 78.2547 50.7013 78.1357 50.5637C78.0167 50.426 77.8695 50.3156 77.704 50.2399C77.5386 50.1642 77.3588 50.1251 77.1768 50.1251C76.9949 50.1251 76.8151 50.1642 76.6497 50.2399C76.4842 50.3156 76.337 50.426 76.218 50.5637C76.099 50.7013 76.0111 50.863 75.9602 51.0376C75.9092 51.2123 75.8965 51.3958 75.9228 51.5759C75.8497 51.7774 75.8262 51.9935 75.8543 52.2061C75.8824 52.4186 75.9613 52.6212 76.0844 52.7967C76.2074 52.9723 76.3709 53.1156 76.5611 53.2145C76.7513 53.3135 76.9625 53.3651 77.1768 53.3651C77.3912 53.3651 77.6024 53.3135 77.7926 53.2145C77.9828 53.1156 78.1463 52.9723 78.2693 52.7967C78.3924 52.6212 78.4713 52.4186 78.4994 52.2061C78.5275 51.9935 78.504 51.7774 78.4309 51.5759Z" fill="#6A6E81"/>
<path d="M81.3796 52.7762C81.3415 52.3077 81.3979 51.8364 81.5454 51.3902C81.693 50.944 81.9286 50.5319 82.2385 50.1785C82.5483 49.8251 82.926 49.5376 83.3491 49.333C83.7722 49.1283 84.2321 49.0108 84.7015 48.9873C86.6493 48.9873 87.6765 50.4015 87.6765 52.416C87.7028 52.6866 87.7028 52.9591 87.6765 53.2297H83.0072C83.0246 53.7794 83.2589 54.2999 83.6589 54.6773C84.0589 55.0548 84.592 55.2586 85.1417 55.2442C85.7391 55.241 86.3211 55.0548 86.8094 54.7106L87.383 55.7779C86.6577 56.2695 85.8045 56.5384 84.9283 56.5516C84.4397 56.5627 83.9542 56.4709 83.5034 56.282C83.0527 56.0931 82.6467 55.8114 82.312 55.4553C81.9772 55.0992 81.7212 54.6766 81.5606 54.215C81.4 53.7534 81.3383 53.2632 81.3796 52.7762ZM86.1957 52.0291C86.1957 50.9218 85.7154 50.2414 84.7282 50.2414C84.2656 50.2618 83.8282 50.4583 83.5058 50.7906C83.1834 51.123 83.0002 51.566 82.9939 52.0291H86.1957Z" fill="#6A6E81"/>
<path d="M89.1309 49.1604H90.465L90.585 50.4945C90.7633 50.0911 91.0469 49.7432 91.4061 49.4873C91.7652 49.2315 92.1867 49.0771 92.6262 49.0404C92.9049 49.0301 93.1825 49.0801 93.44 49.1871L93.1465 50.6546C92.9042 50.5818 92.6524 50.5458 92.3994 50.5479C91.8257 50.5479 91.1453 50.9348 90.7051 52.0287V56.4312H89.1309V49.1604Z" fill="#6A6E81"/>
<path d="M94.293 46.9328C94.293 46.6639 94.3998 46.406 94.59 46.2159C94.7801 46.0257 95.038 45.9189 95.3069 45.9189C95.5758 45.9189 95.8337 46.0257 96.0239 46.2159C96.214 46.406 96.3208 46.6639 96.3208 46.9328C96.3208 47.2017 96.214 47.4596 96.0239 47.6497C95.8337 47.8399 95.5758 47.9467 95.3069 47.9467C95.038 47.9467 94.7801 47.8399 94.59 47.6497C94.3998 47.4596 94.293 47.2017 94.293 46.9328ZM94.4531 49.1607H96.1474V56.3781H94.4531V49.1607Z" fill="#6A6E81"/>
<path d="M97.775 54.4301C97.775 52.8959 99.1091 52.0821 102.018 51.7619C102.018 51.0015 101.684 50.4279 100.684 50.4279C99.9588 50.4799 99.2601 50.719 98.6555 51.1216L98.0418 50.0009C98.9183 49.4088 99.946 49.0801 101.004 49.0537C102.791 49.0537 103.672 50.161 103.672 52.1755V56.4446H102.338L102.218 55.6441C101.614 56.222 100.824 56.567 99.9896 56.618C99.6935 56.6488 99.3942 56.6137 99.1134 56.515C98.8325 56.4163 98.577 56.2566 98.3652 56.0474C98.1535 55.8382 97.9907 55.5847 97.8886 55.305C97.7866 55.0254 97.7478 54.7266 97.775 54.4301ZM102.018 54.4301V52.8159C100.057 53.0693 99.3492 53.5896 99.3492 54.31C99.3492 55.0305 99.7895 55.2306 100.39 55.2306C100.702 55.2155 101.007 55.1367 101.287 54.9991C101.567 54.8614 101.816 54.6677 102.018 54.4301Z" fill="#6A6E81"/>
<path d="M10.5928 93.7061H12.007L12.6873 97.7084C12.8208 98.5488 12.9542 99.3893 13.0742 100.23C13.2343 99.3893 13.4078 98.5488 13.5812 97.7084L14.5417 93.7061H15.7558L16.7163 97.7084C16.9031 98.5355 17.0765 99.3893 17.2499 100.23C17.37 99.3893 17.5034 98.5488 17.6235 97.7084L18.3039 93.7061H19.6379L18.1304 101.564H16.5295L15.5556 97.3882C15.4222 96.7878 15.3022 96.1742 15.2088 95.5738C15.102 96.1742 14.982 96.7878 14.8486 97.3882L13.9014 101.524H12.1537L10.5928 93.7061Z" fill="#6A6E81"/>
<path d="M20.4111 97.6019C20.4111 95.0671 21.8253 93.5996 23.8664 93.5996C25.9076 93.5996 27.335 95.0938 27.335 97.6019C27.335 100.11 25.9209 101.711 23.8664 101.711C21.8119 101.711 20.4111 100.15 20.4111 97.6019ZM25.8942 97.6019C25.8942 95.8542 25.1071 94.7736 23.8664 94.7736C22.6257 94.7736 21.8386 95.8542 21.8386 97.6019C21.8386 99.3495 22.6257 100.497 23.8664 100.497C25.1071 100.497 25.8942 99.3629 25.8942 97.6019Z" fill="#6A6E81"/>
<path d="M28.79 93.7061H31.4581C33.0857 93.7061 34.3398 94.2931 34.3398 96.0408C34.3724 96.536 34.2356 97.0276 33.952 97.4349C33.6684 97.8421 33.2547 98.1409 32.7789 98.282L34.6866 101.564H33.0724L31.3914 98.4955H30.1774V101.564H28.8433L28.79 93.7061ZM31.298 97.3882C32.3653 97.3882 32.9523 96.9346 32.9523 96.0541C32.9523 95.1736 32.3653 94.8401 31.298 94.8401H30.1774V97.3882H31.298Z" fill="#6A6E81"/>
<path d="M35.7803 93.7061H37.1811V100.377H40.4362V101.551H35.7803V93.7061Z" fill="#6A6E81"/>
<path d="M41.6904 93.706H43.7982C44.3202 93.6491 44.8483 93.7115 45.3426 93.8883C45.837 94.0652 46.2847 94.352 46.6521 94.7271C47.0195 95.1022 47.2969 95.5558 47.4635 96.0537C47.6301 96.5517 47.6814 97.0809 47.6137 97.6016C47.6137 100.27 46.1996 101.604 43.865 101.604H41.6904V93.706ZM43.6915 100.443C45.2791 100.443 46.1863 99.536 46.1863 97.6016C46.1863 95.6671 45.2791 94.84 43.6915 94.84H43.0912V100.443H43.6915Z" fill="#6A6E81"/>
<path d="M51.3623 93.7061H53.8704C55.498 93.7061 56.6853 94.1997 56.6853 95.6405C56.7077 96.0095 56.6144 96.3762 56.4182 96.6896C56.2221 97.0029 55.933 97.2471 55.5914 97.3882C56.026 97.4569 56.4196 97.6848 56.6958 98.0275C56.9719 98.3702 57.1108 98.8032 57.0855 99.2426C57.0855 100.817 55.7514 101.551 54.0705 101.551H51.4023L51.3623 93.7061ZM53.7503 96.9479C54.8443 96.9479 55.3112 96.521 55.3112 95.854C55.3112 95.1869 54.7909 94.7867 53.777 94.7867H52.7498V96.9479H53.7503ZM53.9371 100.483C55.0844 100.483 55.7381 100.07 55.7381 99.1492C55.7381 98.2287 55.1111 97.9618 53.9371 97.9618H52.7498V100.443L53.9371 100.483Z" fill="#6A6E81"/>
<path d="M58.3799 98.1219V93.7061H59.714V98.2287C59.714 99.9363 60.3544 100.497 61.3016 100.497C62.2488 100.497 62.9425 99.9363 62.9425 98.2287V93.7061H64.2766V98.1219C64.2766 100.697 63.1426 101.711 61.3149 101.711C59.4872 101.711 58.3799 100.697 58.3799 98.1219Z" fill="#6A6E81"/>
<path d="M65.5039 100.55L66.3177 99.603C66.8635 100.144 67.5911 100.463 68.3588 100.497C69.2527 100.497 69.6929 100.097 69.6929 99.4829C69.6929 98.8692 69.1859 98.6291 68.4789 98.3356L67.3983 97.8686C66.9479 97.7293 66.5525 97.4523 66.2677 97.0766C65.983 96.7009 65.8231 96.2454 65.8107 95.7741C65.8337 95.4515 65.9219 95.1369 66.0702 94.8494C66.2184 94.5619 66.4235 94.3075 66.673 94.1016C66.9225 93.8958 67.2112 93.7428 67.5217 93.6519C67.8321 93.561 68.1578 93.5341 68.4789 93.5729C69.3816 93.5752 70.2478 93.9294 70.8936 94.5601L70.1865 95.4539C69.7326 95.0072 69.1286 94.7456 68.4922 94.7202C67.7451 94.7202 67.2515 95.0804 67.2515 95.6541C67.2515 96.2277 67.8519 96.4945 68.5056 96.7613L69.5728 97.2016C70.0308 97.3368 70.4327 97.6163 70.7188 97.9986C71.0049 98.3809 71.1598 98.8453 71.1604 99.3228C71.1604 100.657 70.1065 101.657 68.3321 101.657C67.2805 101.674 66.2645 101.277 65.5039 100.55Z" fill="#6A6E81"/>
<path d="M72.4678 93.7061H73.8019V101.564H72.4678V93.7061Z" fill="#6A6E81"/>
<path d="M75.7363 93.7061H77.1638L79.6185 98.1353L80.4189 99.8029C80.4189 98.9891 80.2322 98.0019 80.2322 97.1347V93.7061H81.5663V101.564H80.1921L77.7374 97.148L76.937 95.4804C76.937 96.3076 77.1237 97.2548 77.1237 98.1486V101.577H75.7896L75.7363 93.7061Z" fill="#6A6E81"/>
<path d="M83.501 93.7061H88.2237V94.8934H84.8884V96.8946H87.7167V98.0686H84.8884V100.39H88.3437V101.564H83.501V93.7061Z" fill="#6A6E81"/>
<path d="M89.3037 100.55L90.1175 99.603C90.6633 100.144 91.3909 100.463 92.1587 100.497C93.0392 100.497 93.4927 100.097 93.4927 99.4829C93.4927 98.8692 92.9991 98.6291 92.2787 98.3356L91.1981 97.8686C90.7502 97.727 90.3577 97.449 90.0755 97.0735C89.7933 96.698 89.6354 96.2437 89.6239 95.7741C89.6469 95.4515 89.7351 95.1369 89.8834 94.8494C90.0316 94.5619 90.2367 94.3075 90.4862 94.1016C90.7357 93.8958 91.0244 93.7428 91.3348 93.6519C91.6453 93.561 91.9709 93.5341 92.2921 93.5729C93.1948 93.5752 94.061 93.9294 94.7068 94.5601L93.9997 95.4539C93.5424 95.0042 92.9331 94.7424 92.2921 94.7202C91.545 94.7202 91.0514 95.0804 91.0514 95.6541C91.0514 96.2277 91.6517 96.4945 92.3054 96.7613L93.3727 97.2016C93.8306 97.3368 94.2326 97.6163 94.5187 97.9986C94.8048 98.3809 94.9596 98.8453 94.9602 99.3228C94.9394 99.6661 94.8481 100.001 94.6921 100.308C94.5361 100.615 94.3187 100.886 94.0534 101.105C93.7882 101.324 93.4807 101.486 93.1502 101.581C92.8196 101.676 92.473 101.702 92.132 101.657C91.0803 101.674 90.0644 101.277 89.3037 100.55Z" fill="#6A6E81"/>
<path d="M95.5342 100.55L96.348 99.603C96.8938 100.144 97.6214 100.463 98.3891 100.497C99.283 100.497 99.7232 100.097 99.7232 99.4829C99.7232 98.8692 99.2163 98.6291 98.5092 98.3356L97.4286 97.8686C96.9782 97.7293 96.5828 97.4523 96.298 97.0766C96.0133 96.7009 95.8534 96.2454 95.841 95.7741C95.864 95.4515 95.9523 95.1369 96.1005 94.8494C96.2487 94.5619 96.4538 94.3075 96.7033 94.1016C96.9528 93.8958 97.2416 93.7428 97.552 93.6519C97.8624 93.561 98.1881 93.5341 98.5092 93.5729C99.4119 93.5752 100.278 93.9294 100.924 94.5601L100.217 95.4539C99.7629 95.0072 99.1589 94.7456 98.5225 94.7202C97.7754 94.7202 97.2818 95.0804 97.2818 95.6541C97.2818 96.2277 97.8822 96.4945 98.5359 96.7613L99.6031 97.2016C100.061 97.3368 100.463 97.6163 100.749 97.9986C101.035 98.3809 101.19 98.8453 101.191 99.3228C101.191 100.657 100.137 101.657 98.3624 101.657C97.3108 101.674 96.2948 101.277 95.5342 100.55Z" fill="#6A6E81"/>
<path d="M104.379 97.6019C104.379 95.0671 105.793 93.5996 107.834 93.5996C109.876 93.5996 111.303 95.0938 111.303 97.6019C111.303 100.11 109.889 101.711 107.834 101.711C105.78 101.711 104.379 100.15 104.379 97.6019ZM109.862 97.6019C109.862 95.8542 109.075 94.7736 107.834 94.7736C106.594 94.7736 105.807 95.8542 105.807 97.6019C105.807 99.3495 106.594 100.497 107.834 100.497C109.075 100.497 109.862 99.3629 109.862 97.6019Z" fill="#6A6E81"/>
<path d="M112.717 98.1219V93.7061H114.118V98.2287C114.118 99.9363 114.758 100.497 115.705 100.497C116.653 100.497 117.4 99.9363 117.4 98.2287V93.7061H118.734V98.1219C118.734 100.697 117.6 101.711 115.772 101.711C113.944 101.711 112.717 100.697 112.717 98.1219Z" fill="#6A6E81"/>
<path d="M122.096 94.8934H119.828V93.7061H125.751V94.8934H123.483V101.564H122.149L122.096 94.8934Z" fill="#6A6E81"/>
<path d="M126.939 93.7061H128.273V100.377H131.541V101.551H126.872L126.939 93.7061Z" fill="#6A6E81"/>
<path d="M132.075 97.6019C132.075 95.0671 133.489 93.5996 135.53 93.5996C137.571 93.5996 138.999 95.0938 138.999 97.6019C138.999 100.11 137.584 101.711 135.53 101.711C133.475 101.711 132.075 100.15 132.075 97.6019ZM137.558 97.6019C137.558 95.8542 136.771 94.7736 135.53 94.7736C134.289 94.7736 133.502 95.8542 133.502 97.6019C133.502 99.3495 134.303 100.497 135.53 100.497C136.757 100.497 137.558 99.3629 137.558 97.6019Z" fill="#6A6E81"/>
<path d="M140.079 97.6019C140.079 95.0671 141.493 93.5996 143.535 93.5996C145.576 93.5996 147.003 95.0938 147.003 97.6019C147.003 100.11 145.589 101.711 143.535 101.711C141.48 101.711 140.079 100.15 140.079 97.6019ZM145.562 97.6019C145.562 95.8542 144.775 94.7736 143.535 94.7736C142.294 94.7736 141.507 95.8542 141.507 97.6019C141.507 99.3495 142.294 100.497 143.535 100.497C144.775 100.497 145.536 99.3629 145.536 97.6019H145.562Z" fill="#6A6E81"/>
<path d="M148.43 93.7061H149.765V97.2815L152.566 93.7061H154.114L151.699 96.7745L154.527 101.564H152.993L150.859 97.8685L149.738 99.2025V101.497H148.404L148.43 93.7061Z" fill="#6A6E81"/>
</g>
<defs>
<clipPath id="clip0_792_10113">
<rect width="165" height="102" fill="white"/>
</clipPath>
</defs>
</svg>
