<svg width="74" height="64" viewBox="0 0 74 64" fill="none" xmlns="http://www.w3.org/2000/svg">
    <path d="M42.731 63.898h-.138c-3.305-.115-10.378-2.789-18.597-6.007-2.678-1.05-4.993-1.956-5.945-2.223a1.42 1.42 0 0 1 .77-2.732c1.084.305 3.343 1.191 6.205 2.313 5.807 2.273 14.572 5.707 17.658 5.815h.084c4.38 0 23.78-10.808 27.258-16.898.717-1.275.618-1.709.617-1.713-1.697-1.27-14.742 4.01-16.868 5.62a1.424 1.424 0 0 1-2.277-1.29c.043-.37.231-.707.523-.939.644-.507 16.553-8.848 20.52-5.468.885.758 1.595 2.273-.046 5.192-3.81 6.67-23.878 18.33-29.764 18.33z" fill="#FF4521"/>
    <path d="M47.292 52.428a13.265 13.265 0 0 1-2.5-.242 103.176 103.176 0 0 1-13.01-3.041 1.418 1.418 0 1 1 .85-2.706 101.324 101.324 0 0 0 12.686 2.963c3.678.7 6.018-.633 6.245-1.547.166-.656-.878-2.031-4.424-3.132a37.482 37.482 0 0 1-12.246-6.398 17.631 17.631 0 0 0-5.02-2.947c-3.968-1.295-10.11.401-14.455 2.656a1.419 1.419 0 1 1-1.308-2.519c4.734-2.455 11.59-4.49 16.618-2.842a19.866 19.866 0 0 1 5.838 3.36A34.534 34.534 0 0 0 47.97 42.01c6.682 2.074 6.662 5.254 6.343 6.534-.593 2.38-3.48 3.885-7.02 3.885zM6.336 61.15a1.42 1.42 0 0 1-1.382-1.127L.03 36.657a1.419 1.419 0 0 1 1.097-1.68l7.927-1.668a1.42 1.42 0 0 1 1.68 1.096l4.924 23.365a1.418 1.418 0 0 1-1.097 1.682L6.633 61.12c-.097.02-.197.03-.297.03zM3.094 37.46l4.339 20.591 5.151-1.084-4.34-20.597-5.15 1.09zM67.754 36.858a1.42 1.42 0 0 1-1.229-2.127 21.166 21.166 0 1 0-39.493-10.559c0 1.166.08 2.33.238 3.485a1.42 1.42 0 1 1-2.812.373 28.38 28.38 0 0 1-.263-3.859A24.035 24.035 0 1 1 68.99 36.144a1.42 1.42 0 0 1-1.236.714z" fill="#FF4521"/>
    <path d="M42.468 34.773a1.419 1.419 0 0 1-1.204-2.167l11.433-18.443a1.419 1.419 0 1 1 2.412 1.494L43.677 34.101a1.422 1.422 0 0 1-1.209.672zM41.718 23.256a5.223 5.223 0 0 1 0-10.347 5.224 5.224 0 0 1 0 10.347zm0-7.509c-.79 0-1.67.958-1.67 2.335s.88 2.335 1.67 2.335c.936 0 1.668-1.025 1.668-2.335 0-1.309-.732-2.335-1.668-2.335zM54.654 35.356a5.223 5.223 0 0 1 0-10.347 5.223 5.223 0 0 1 0 10.347zm0-7.509c-.79 0-1.668.958-1.668 2.335 0 1.378.879 2.337 1.668 2.337.936 0 1.67-1.027 1.67-2.336 0-1.31-.734-2.334-1.67-2.334v-.002z" fill="#FF4521"/>
</svg>
