<svg width="58" height="55" viewBox="0 0 58 55" fill="none" xmlns="http://www.w3.org/2000/svg">
<path d="M23.749 19.001H5.93701V21.376H23.749V19.001Z" fill="#FF4521"/>
<path d="M20.187 28.501H0V30.876H20.187V28.501Z" fill="#FF4521"/>
<path d="M21.374 38.001H3.56201V40.376H21.374V38.001Z" fill="#FF4521"/>
<path d="M41.5619 7.12598H35.626V4.75H39.189V2.375H29.689V4.75H33.252V7.125H27.3149V0H41.5649L41.5619 7.12598Z" fill="#FF4521"/>
<path d="M34.436 54.626H15.436V52.252H34.436C39.5948 52.2522 44.5579 50.2772 48.306 46.7325C52.0541 43.1878 54.3026 38.3425 54.5898 33.1917C54.8771 28.0409 53.1811 22.9756 49.8503 19.0362C46.5196 15.0968 41.8069 12.5822 36.6801 12.009L35.624 11.892V8.31494H37.999V9.78992C43.603 10.6844 48.6639 13.6582 52.1729 18.1182C55.6818 22.5783 57.3808 28.1969 56.9313 33.854C56.4817 39.5111 53.9166 44.7909 49.7473 48.6408C45.578 52.4907 40.1109 54.6278 34.436 54.626Z" fill="#FF4521"/>
<path d="M20.6501 49.9241C18.3189 48.127 16.3624 45.8905 14.8911 43.3411L16.9481 42.1531C18.265 44.4353 20.0164 46.4373 22.1031 48.0461L20.6501 49.9241Z" fill="#FF4521"/>
<path d="M13.1272 39.493C12.4334 37.5014 12.0234 35.422 11.9092 33.316L14.2802 33.186C14.382 35.0695 14.7489 36.9292 15.3701 38.7101L13.1272 39.493Z" fill="#FF4521"/>
<path d="M14.3762 29.8181L12.0151 29.5581C12.2522 27.3999 12.8024 25.2877 13.6482 23.2881L15.8352 24.2131C15.0796 26.0008 14.5882 27.8889 14.3762 29.8181Z" fill="#FF4521"/>
<path d="M17.6143 20.9059L15.6362 19.5909C17.3587 16.9907 19.6027 14.7768 22.2261 13.0898C24.8494 11.4027 27.7948 10.2794 30.8752 9.79095V8.31494H33.2493V11.892L32.1932 12.009C29.2598 12.3333 26.4335 13.2983 23.9142 14.8358C21.3949 16.3732 19.2441 18.4455 17.6143 20.9059Z" fill="#FF4521"/>
<path d="M34.437 36.813C33.4976 36.8128 32.5793 36.534 31.7983 36.012C31.0173 35.4899 30.4086 34.748 30.0493 33.88C29.6899 33.0121 29.596 32.057 29.7794 31.1357C29.9628 30.2144 30.4152 29.3681 31.0796 28.7039C31.7439 28.0397 32.5903 27.5874 33.5117 27.4042C34.4331 27.221 35.3881 27.3151 36.2559 27.6746C37.1238 28.0342 37.8656 28.643 38.3875 29.4242C38.9094 30.2053 39.188 31.1236 39.188 32.063C39.1866 33.3226 38.6856 34.5301 37.7949 35.4207C36.9042 36.3112 35.6965 36.8119 34.437 36.813ZM34.437 29.689C33.9672 29.6892 33.5081 29.8287 33.1176 30.0898C32.7272 30.3509 32.4229 30.722 32.2434 31.156C32.0638 31.5901 32.0169 32.0677 32.1087 32.5283C32.2006 32.989 32.427 33.4121 32.7592 33.7441C33.0915 34.0761 33.5148 34.3021 33.9755 34.3936C34.4363 34.485 34.9138 34.4378 35.3477 34.2578C35.7816 34.0779 36.1525 33.7733 36.4133 33.3826C36.6741 32.992 36.8131 32.5327 36.813 32.063C36.8122 31.4333 36.5615 30.8296 36.1161 30.3845C35.6706 29.9394 35.0667 29.6892 34.437 29.689Z" fill="#FF4521"/>
<path d="M45.4721 19.3491L35.9722 28.8491L37.6515 30.5285L47.1515 21.0285L45.4721 19.3491Z" fill="#FF4521"/>
<path d="M51.9015 9.8487L50.2222 11.5281L53.7846 15.0905L55.464 13.4111L51.9015 9.8487Z" fill="#FF4521"/>
<path d="M51.4096 12.2237L47.8472 15.7861L49.5265 17.4655L53.089 13.9031L51.4096 12.2237Z" fill="#FF4521"/>
<path d="M34.437 49.875H29.687V47.501H34.437C37.1466 47.5001 39.8082 46.7864 42.1547 45.4314C44.5011 44.0764 46.4497 42.128 47.8048 39.7816C49.16 37.4353 49.8739 34.7737 49.875 32.0641C49.8761 29.3546 49.1643 26.6924 47.811 24.345L49.866 23.156C51.4283 25.8642 52.2505 28.9359 52.2499 32.0625C52.2493 35.1891 51.4259 38.2604 49.8625 40.968C48.2992 43.6756 46.0507 45.9242 43.3433 47.4879C40.6358 49.0515 37.5646 49.8751 34.438 49.876L34.437 49.875Z" fill="#FF4521"/>
</svg>
