<svg width="165" height="104" viewBox="0 0 165 104" fill="none" xmlns="http://www.w3.org/2000/svg">
<path d="M59.8849 80.0332C64.6853 75.2594 67.3788 72.3792 67.3788 69.8057C67.4244 69.3957 67.3797 68.9806 67.2478 68.5897C67.1159 68.1989 66.9001 67.8416 66.6155 67.543C66.3308 67.2443 65.9843 67.0116 65.6002 66.8612C65.216 66.7108 64.8037 66.6462 64.3919 66.6721C63.7199 66.7326 63.0687 66.9365 62.4821 67.27C61.8956 67.6036 61.3873 68.059 60.9917 68.6056L59.8182 67.4321C60.3909 66.6932 61.1216 66.0918 61.9568 65.6718C62.792 65.2519 63.7106 65.0242 64.6453 65.0053C65.2783 64.9543 65.9148 65.04 66.5117 65.2567C67.1086 65.4735 67.6519 65.816 68.1047 66.2613C68.5575 66.7065 68.9093 67.2439 69.1361 67.8371C69.3628 68.4302 69.4593 69.0652 69.419 69.699C69.419 72.6992 66.7521 75.6861 62.9251 79.6331C63.7919 79.5531 64.7653 79.4865 65.592 79.4865H70.2191V81.2599H59.9249L59.8849 80.0332Z" fill="#6A6E81"/>
<path d="M71.7927 73.2325C71.7927 67.8987 73.7129 65.0051 76.9132 65.0051C80.1134 65.0051 82.0202 67.8854 82.0202 73.2325C82.0202 78.5796 80.0868 81.5531 76.9132 81.5531C73.7396 81.5531 71.7927 78.5796 71.7927 73.2325ZM80.0201 73.2325C80.0201 68.5521 78.7667 66.6586 76.9132 66.6586C75.0597 66.6586 73.7929 68.5521 73.7929 73.2325C73.7929 77.9128 75.033 79.8997 76.9132 79.8997C78.7933 79.8997 80.0201 77.9128 80.0201 73.2325Z" fill="#6A6E81"/>
<path d="M83.5002 80.033C88.3006 75.2593 90.9942 72.3791 90.9942 69.8055C91.0406 69.3919 90.9951 68.9732 90.8609 68.5792C90.7268 68.1853 90.5073 67.8258 90.2181 67.5264C89.929 67.2271 89.5773 66.9953 89.1882 66.8476C88.7991 66.6999 88.3822 66.6399 87.9673 66.672C87.2952 66.7325 86.644 66.9364 86.0574 67.2699C85.4709 67.6035 84.9626 68.0589 84.567 68.6054L83.3936 67.432C83.9649 66.6917 84.6953 66.0892 85.5309 65.6691C86.3664 65.2491 87.2856 65.0221 88.2206 65.0052C88.8536 64.9541 89.4901 65.0399 90.0871 65.2566C90.684 65.4733 91.2272 65.8159 91.68 66.2611C92.1328 66.7064 92.4846 67.2438 92.7114 67.837C92.9381 68.4301 93.0347 69.0651 92.9944 69.6989C92.9944 72.6991 90.3274 75.686 86.5005 79.633C87.3672 79.553 88.3406 79.4863 89.1673 79.4863H93.7944V81.2598H83.5002V80.033Z" fill="#6A6E81"/>
<path d="M97.1067 80.033C101.907 75.2593 104.601 72.3791 104.601 69.8055C104.647 69.3919 104.602 68.9732 104.467 68.5792C104.333 68.1853 104.114 67.8258 103.825 67.5264C103.535 67.2271 103.184 66.9953 102.795 66.8476C102.406 66.6999 101.989 66.6399 101.574 66.672C100.902 66.7325 100.25 66.9364 99.6639 67.2699C99.0773 67.6035 98.5691 68.0589 98.1734 68.6054L97 67.432C97.5713 66.6917 98.3018 66.0892 99.1373 65.6691C99.9728 65.2491 100.892 65.0221 101.827 65.0052C102.46 64.9541 103.097 65.0399 103.693 65.2566C104.29 65.4733 104.834 65.8159 105.286 66.2611C105.739 66.7064 106.091 67.2438 106.318 67.837C106.545 68.4301 106.641 69.0651 106.601 69.6989C106.601 72.6991 103.934 75.686 100.107 79.633C100.974 79.553 101.947 79.4863 102.774 79.4863H107.401V81.2598H97.1067V80.033Z" fill="#6A6E81"/>
<path fill-rule="evenodd" clip-rule="evenodd" d="M132.077 76.673C132.854 77.6831 133.87 78.4831 135.035 79.0002C136.199 79.5172 137.475 79.7348 138.745 79.6332C141.418 79.515 144.033 78.819 146.412 77.593C142.318 76.9663 143.305 76.1263 140.438 75.1662C138.602 74.7297 136.68 74.8175 134.891 75.4195C136.972 74.7124 138.974 73.7919 140.865 72.6726C141.769 73.375 142.822 73.8604 143.943 74.0916C145.064 74.3227 146.224 74.2935 147.332 74.0061C149.758 73.3464 152.026 72.2034 153.999 70.6458C150.172 70.9125 150.932 69.9791 148.159 69.7257C146.785 69.6721 145.417 69.932 144.158 70.4858C145.537 69.4143 146.825 68.2326 148.012 66.9522C149.021 67.4035 150.122 67.6086 151.226 67.5506C152.329 67.4927 153.403 67.1733 154.359 66.6188C156.5 65.4304 158.382 63.8254 159.893 61.8984C156.346 63.0452 156.879 61.8984 154.212 62.3651C152.734 62.7056 151.361 63.4013 150.212 64.392C151.384 62.8721 152.428 61.2575 153.332 59.5649C154.44 59.7645 155.579 59.7046 156.659 59.3899C157.74 59.0752 158.732 58.5144 159.56 57.7514C161.465 56.0776 163.019 54.0426 164.133 51.7643C160.84 53.7111 161.146 52.5243 158.573 53.5244C157.007 54.301 155.656 55.4503 154.639 56.8714C155.46 55.0116 156.134 53.0899 156.653 51.1242C157.721 51.0261 158.753 50.6917 159.676 50.1451C160.598 49.5985 161.388 48.8534 161.986 47.964C163.414 45.958 164.437 43.6935 165 41.2968C162.333 43.9636 162.333 42.7102 160.146 44.257C158.885 45.2858 157.895 46.6092 157.266 48.1107C157.612 46.1682 157.813 44.2025 157.866 42.2302C158.843 41.9457 159.745 41.4476 160.506 40.7719C161.267 40.0962 161.868 39.2598 162.267 38.3232C163.216 36.2204 163.768 33.9598 163.893 31.656C161.933 34.5229 161.773 33.4561 160.066 35.2696C158.932 36.7264 158.184 38.4466 157.893 40.27C157.856 38.084 157.651 35.9041 157.279 33.7495C158.189 33.3037 158.983 32.6544 159.6 31.8519C160.218 31.0495 160.642 30.1154 160.84 29.1224C161.308 27.0046 161.344 24.8141 160.946 22.6819C159.613 25.7488 159.2 24.7888 157.879 26.8289C157.089 28.3246 156.721 30.0069 156.813 31.696C156.679 31.0959 156.533 30.5092 156.373 29.9092C156.039 28.6957 155.653 27.5223 155.226 26.3756C155.953 25.7849 156.542 25.0416 156.949 24.1982C157.357 23.3548 157.575 22.432 157.586 21.4952C157.629 19.4777 157.261 17.4726 156.506 15.6013C155.866 18.6816 155.333 17.8815 154.519 20.015C154.105 21.3921 154.054 22.853 154.372 24.2554C153.718 22.7758 152.975 21.3375 152.146 19.9484C152.641 19.2919 153 18.5437 153.204 17.7471C153.408 16.9506 153.451 16.1215 153.332 15.308C153.094 13.4738 152.525 11.6982 151.652 10.0676C151.559 12.9345 151.012 12.2811 150.639 14.3079C150.501 15.6953 150.683 17.0958 151.172 18.4016C150.265 17.0211 149.267 15.7025 148.185 14.4546C148.589 13.8197 148.858 13.1085 148.975 12.3652C149.092 11.6219 149.055 10.8625 148.865 10.1342C148.468 8.54005 147.776 7.03413 146.825 5.69387C146.999 8.25408 146.439 7.74737 146.292 9.60086C146.305 10.9758 146.667 12.3249 147.345 13.5212C146.308 12.4014 145.199 11.3502 144.025 10.3743C144.347 9.76192 144.531 9.08617 144.564 8.39487C144.596 7.70357 144.476 7.01363 144.212 6.37393C143.679 5.0501 142.864 3.85801 141.825 2.88031C142.265 5.12049 141.731 4.7738 141.731 6.45393C141.861 7.63417 142.324 8.75325 143.065 9.68086C141.957 8.81455 140.799 8.01315 139.598 7.28067C139.69 6.70181 139.666 6.11056 139.529 5.54079C139.392 4.97103 139.143 4.43397 138.798 3.9604C138.053 2.91131 137.122 2.00746 136.051 1.29351C136.944 3.10699 136.398 2.89364 136.838 4.28042C137.229 5.22212 137.831 6.06148 138.598 6.73396C137.499 6.11366 136.364 5.56146 135.198 5.08049C135.221 4.52955 135.129 3.97981 134.93 3.4658C134.73 2.95179 134.426 2.48461 134.038 2.09358C133.199 1.22683 132.185 0.549401 131.064 0.10675C132.144 1.70688 131.571 1.64021 132.171 2.92031C132.539 3.59715 133.077 4.16686 133.731 4.57378C133.441 4.51377 133.141 4.51377 132.851 4.57378C132.034 4.84017 131.201 5.05396 130.357 5.21383C130.98 5.80043 131.757 6.1981 132.597 6.36059C133.069 6.45619 133.557 6.43835 134.021 6.30853C134.484 6.17871 134.911 5.94062 135.264 5.61387C136.291 6.0539 137.291 6.53394 138.251 7.05398C137.825 6.89723 137.362 6.86486 136.918 6.96064C135.584 7.28067 135.931 7.53402 134.344 7.85405C135.068 8.42059 135.937 8.7718 136.851 8.86746C137.364 8.92221 137.883 8.85265 138.363 8.66465C138.844 8.47666 139.272 8.17575 139.611 7.78738C140.813 8.50289 141.966 9.29573 143.065 10.1609C142.325 9.62393 141.432 9.3388 140.518 9.3475C138.878 9.42751 139.185 9.7342 137.224 9.76087C138.117 10.4773 139.161 10.9791 140.278 11.2277C140.862 11.3823 141.472 11.4171 142.07 11.3301C142.668 11.243 143.242 11.0358 143.758 10.7209C144.806 11.6067 145.795 12.5599 146.719 13.5745C146.075 12.9982 145.26 12.6512 144.398 12.5878C142.505 12.4944 142.865 12.9345 140.518 12.7344C141.394 13.7676 142.518 14.5613 143.785 15.0413C144.427 15.302 145.119 15.4169 145.811 15.3777C146.502 15.3385 147.177 15.1462 147.785 14.8146C149.065 16.3738 150.211 18.0375 151.212 19.7884C150.561 18.6561 149.517 17.8021 148.279 17.3882C146.332 16.8681 146.639 17.3882 144.278 16.6814C145.017 17.9108 146.036 18.948 147.252 19.7083C147.877 20.1236 148.585 20.3972 149.327 20.5101C150.068 20.623 150.826 20.5723 151.546 20.3617C152.402 21.9005 153.164 23.4903 153.826 25.1221C153.265 24.1592 152.409 23.4019 151.386 22.9619C149.425 22.1752 149.692 22.7486 147.292 21.6285C147.957 22.9927 148.923 24.1875 150.119 25.1221C150.7 25.6092 151.375 25.9727 152.102 26.1905C152.829 26.4083 153.592 26.4758 154.346 26.3889C154.728 27.429 155.088 28.5091 155.426 29.6291C155.546 30.0025 155.653 30.3892 155.759 30.7759C155.238 30.0586 154.54 29.4888 153.732 29.1224C151.692 28.0824 151.932 28.7357 149.425 27.3756C150.047 28.899 150.999 30.2654 152.212 31.376C153.282 32.4371 154.707 33.0642 156.213 33.1361C156.56 34.9399 156.77 36.7676 156.839 38.6032C156.431 37.7136 155.824 36.9291 155.066 36.3097C153.052 34.7096 153.226 35.4563 150.799 33.3895C151.228 35.1758 152.028 36.8521 153.146 38.3099C154.077 39.6263 155.404 40.6118 156.933 41.1234C156.875 43.2722 156.644 45.4127 156.239 47.5239C156.026 46.2565 155.478 45.0689 154.653 44.0837C152.812 41.9368 152.812 42.7502 150.652 40.0833C150.717 42.1069 151.213 44.0935 152.106 45.9105C152.855 47.5885 154.153 48.9617 155.786 49.8041C155.261 51.8858 154.575 53.9233 153.732 55.898C153.714 54.6175 153.364 53.3637 152.719 52.2577C151.199 49.6974 151.052 50.5509 149.265 47.3239C148.972 49.4135 149.132 51.5417 149.732 53.5644C150.192 55.3722 151.226 56.9818 152.679 58.1515C151.602 60.2574 150.33 62.2575 148.879 64.1253C149.248 62.7404 149.216 61.2788 148.785 59.9116C147.852 57.1114 147.532 57.8981 146.492 54.4045C145.772 56.3323 145.477 58.3926 145.625 60.445C145.696 62.3502 146.394 64.1786 147.612 65.6454C146.023 67.4426 144.238 69.0571 142.292 70.4591C142.974 69.0044 143.237 67.3882 143.052 65.7921C142.638 62.7385 142.198 63.4852 141.798 59.6849C140.755 61.5454 140.11 63.6025 139.905 65.7254C139.64 67.6797 139.985 69.6679 140.891 71.4192C139.068 72.61 137.112 73.5855 135.064 74.3261L134.344 74.6461C135.477 73.4662 136.182 71.9402 136.344 70.3125C136.598 67.1522 135.918 67.7389 136.344 63.8586C134.723 65.3123 133.486 67.1447 132.744 69.1924C131.918 71.1922 131.876 73.4295 132.624 75.4595C128.944 77.1263 122.237 80.2866 120.77 81.6067C119.89 82.3934 120.57 83.5802 121.116 83.1535C122.197 82.3001 125.117 80.4866 126.277 79.7266C128.146 78.5905 130.083 77.5707 132.077 76.673V76.673Z" fill="#6A6E81"/>
<path fill-rule="evenodd" clip-rule="evenodd" d="M38.7365 79.6731C39.8699 80.4465 42.8168 82.2467 43.8969 83.1001C44.4303 83.5268 45.1237 82.34 44.2436 81.54C42.7635 80.2065 36.0696 77.0729 32.3893 75.4061C33.1309 73.3704 33.0881 71.1315 32.2693 69.1256C31.5276 67.0779 30.2907 65.2456 28.669 63.7919C29.1224 67.6722 28.429 67.0988 28.669 70.259C28.833 71.8799 29.5321 73.3999 30.6559 74.5794L29.9491 74.2727C27.8837 73.5389 25.9103 72.5679 24.0686 71.3791C24.9864 69.6363 25.3361 67.6501 25.0687 65.6987C24.8566 63.577 24.2122 61.5213 23.1752 59.6582C22.7752 63.4585 22.3352 62.7118 21.9085 65.7653C21.7352 67.3581 22.0027 68.9679 22.6819 70.4191C20.75 69.0135 18.9831 67.3942 17.4147 65.592C18.6446 64.126 19.3487 62.2907 19.4149 60.3782C19.5657 58.329 19.2652 56.2716 18.5348 54.3511C17.4947 57.8447 17.2014 57.018 16.2547 59.8449C15.8244 61.2167 15.792 62.6824 16.1613 64.0719C14.7192 62.2173 13.4557 60.2305 12.3877 58.1381C13.8459 56.9731 14.8812 55.3615 15.3346 53.551C15.9353 51.5329 16.0945 49.409 15.8013 47.3238C14.0145 50.5508 13.8678 49.6974 12.3477 52.2442C11.7023 53.3503 11.3532 54.6041 11.3343 55.8845C10.4822 53.8972 9.78672 51.8464 9.25409 49.7507C10.8857 48.8998 12.1824 47.5232 12.9344 45.8437C13.8277 44.0315 14.3232 42.0493 14.3878 40.0299C12.1877 42.6968 12.1877 41.9367 10.3875 44.0302C9.57121 45.0197 9.02868 46.2059 8.81407 47.4705C8.41055 45.3592 8.17864 43.2187 8.12066 41.07C9.63521 40.551 10.9468 39.5661 11.8676 38.2564C12.982 36.7915 13.7811 35.1116 14.2145 33.3227C11.7876 35.3895 11.9477 34.6562 9.9475 36.2563C9.17481 36.8842 8.55855 37.683 8.14735 38.5898C8.21548 36.754 8.42501 34.9263 8.77407 33.1227C10.2793 33.0508 11.7044 32.4237 12.7744 31.3626C13.9899 30.2563 14.9382 28.8885 15.5479 27.3622C13.0544 28.6957 13.2944 28.0823 11.2409 29.109C10.4507 29.5226 9.77672 30.1278 9.28078 30.8692C9.38746 30.4825 9.49413 30.1091 9.61414 29.7224C9.9475 28.6157 10.3075 27.5356 10.6942 26.4955C11.4525 26.5725 12.2184 26.494 12.9453 26.2647C13.6721 26.0354 14.3444 25.6602 14.9212 25.162C16.0951 24.2448 17.0514 23.079 17.7215 21.7484C15.3213 22.8019 15.5879 22.2151 13.6278 23.0019C12.6097 23.4368 11.7522 24.1778 11.1742 25.122C11.8383 23.4672 12.6043 21.8551 13.4678 20.295C14.1875 20.5083 14.9454 20.5604 15.6875 20.4475C16.4296 20.3345 17.1378 20.0594 17.7615 19.6416C18.9775 18.8812 19.9964 17.844 20.735 16.6147C18.3615 17.3347 18.6549 16.8147 16.7347 17.3214C15.496 17.7353 14.4521 18.5894 13.8011 19.7216C14.7999 17.9776 15.9464 16.3226 17.2281 14.7745C17.8474 15.1105 18.5338 15.304 19.2374 15.3409C19.941 15.3778 20.644 15.2572 21.2951 14.9879C22.5651 14.5137 23.6939 13.7244 24.5754 12.6944C22.2152 12.8944 22.5885 12.441 20.6817 12.5344C19.8005 12.5909 18.9641 12.9433 18.3082 13.5344C19.2283 12.5165 20.2174 11.5631 21.2684 10.6809C21.7853 10.9935 22.36 11.1983 22.9581 11.2831C23.5562 11.3679 24.1653 11.3309 24.7487 11.1742C25.8674 10.9313 26.9134 10.4288 27.8023 9.70746C25.7888 9.70746 26.1488 9.3741 24.522 9.30742C23.6051 9.29386 22.7079 9.57424 21.9618 10.1075C23.0533 9.26156 24.198 8.48657 25.3887 7.7873C25.7324 8.16846 26.1622 8.46179 26.6425 8.64274C27.1227 8.82369 27.6393 8.88701 28.149 8.82738C29.071 8.72787 29.9453 8.36701 30.6692 7.7873C29.0557 7.46727 29.3357 7.21392 28.0823 6.90723C27.6401 6.79681 27.1747 6.82474 26.7488 6.98724C27.7089 6.46719 28.6957 5.98715 29.7224 5.54712C30.0766 5.87347 30.5023 6.11224 30.9655 6.24424C31.4286 6.37624 31.9163 6.39779 32.3893 6.30718C33.2435 6.13817 34.0306 5.72607 34.6562 5.12042C33.8161 4.94707 32.976 4.73372 32.1626 4.48036C31.873 4.41366 31.5721 4.41366 31.2826 4.48036C31.9101 4.0579 32.4268 3.49082 32.7893 2.8269C33.376 1.49345 32.7893 1.60013 33.8828 0C32.7553 0.427549 31.7323 1.09134 30.8825 1.94682C30.4848 2.35357 30.1763 2.83874 29.9765 3.37138C29.7768 3.90403 29.6902 4.47246 29.7224 5.04041C28.5586 5.52679 27.4234 6.07884 26.3222 6.69388C27.0888 6.02141 27.6909 5.18204 28.0823 4.24034C28.5223 2.9069 27.9756 3.08025 28.869 1.25344C27.8026 1.96796 26.8761 2.87184 26.1355 3.92032C25.7855 4.39424 25.5334 4.93305 25.3937 5.50537C25.2541 6.0777 25.2297 6.67209 25.3221 7.25392C24.1183 7.97721 22.9604 8.77436 21.8551 9.64078C22.5901 8.70951 23.0517 7.59229 23.1886 6.41385C23.1886 4.74705 22.6685 5.08041 23.1086 2.85357C22.0716 3.83346 21.2576 5.02495 20.7217 6.34718C20.4577 6.98689 20.3375 7.67682 20.3698 8.36812C20.402 9.05942 20.5859 9.73517 20.9084 10.3475C19.7828 11.3398 18.7185 12.3997 17.7215 13.5211C18.3994 12.3248 18.7619 10.9757 18.7749 9.60078C18.6282 7.7473 18.0682 8.26734 18.2415 5.6938C17.2908 7.0339 16.5988 8.53987 16.2013 10.1342C16.0112 10.8623 15.9735 11.6219 16.0905 12.3653C16.2075 13.1087 16.4768 13.82 16.8814 14.4545C15.7777 15.7202 14.7577 17.0565 13.8278 18.4548C14.3187 17.1497 14.4968 15.7476 14.3478 14.3612C13.9878 12.3343 13.4411 13.0277 13.3344 10.1342C12.4679 11.7664 11.9032 13.5417 11.6676 15.3746C11.5482 16.186 11.5916 17.0131 11.7954 17.8075C11.9992 18.602 12.3592 19.3479 12.8544 20.0016C12.028 21.3968 11.2844 22.8394 10.6275 24.322C10.9356 22.9179 10.8805 21.4585 10.4675 20.0816C9.65413 17.9348 9.1341 18.7482 8.48071 15.6546C7.72352 17.5249 7.36034 19.5314 7.41393 21.5484C7.42311 22.4706 7.63447 23.3796 8.03304 24.2114C8.43162 25.0431 9.00773 25.7772 9.7208 26.3621C9.2941 27.5089 8.90742 28.6823 8.57406 29.8958C8.41405 30.4958 8.26735 31.0825 8.134 31.6826C8.226 29.9935 7.85729 28.3112 7.06727 26.8155C5.73382 24.7753 5.33377 25.7354 4.00033 22.6685C3.60226 24.8007 3.63857 26.9912 4.10702 29.109C4.31807 30.0975 4.75377 31.0242 5.3804 31.8173C6.00703 32.6105 6.80777 33.2487 7.72064 33.6827C7.34943 35.8373 7.14438 38.0173 7.10727 40.2033C6.81607 38.3798 6.06837 36.6597 4.93375 35.2029C3.22695 33.3894 3.06694 34.4695 1.10678 31.5892C1.2393 33.892 1.79058 36.1514 2.73358 38.2564C3.13112 39.1911 3.73067 40.0262 4.48918 40.7017C5.24768 41.3772 6.14629 41.8764 7.12057 42.1634C7.18273 44.1365 7.39222 46.1021 7.74729 48.0439C7.10484 46.5464 6.11258 45.2249 4.85375 44.1903C2.65357 42.6435 2.68022 43.8436 0 41.23C0.562804 43.6268 1.58634 45.8912 3.01359 47.8972C3.62084 48.7936 4.42105 49.5427 5.35554 50.0896C6.29002 50.6364 7.33506 50.9672 8.41401 51.0575C8.93086 53.0238 9.60418 54.9457 10.4275 56.8046C9.41861 55.3793 8.06536 54.2325 6.49385 53.471C3.92031 52.4709 4.22703 53.6577 0.933425 51.6975C2.05212 53.9729 3.60598 56.007 5.50712 57.6847C6.33489 58.4468 7.32778 59.0071 8.40807 59.3217C9.48837 59.6363 10.6268 59.6967 11.7343 59.4982C12.639 61.1908 13.6827 62.8054 14.8546 64.3252C13.7056 63.3346 12.3326 62.6389 10.8542 62.2984C8.18735 61.8984 8.72072 62.9785 5.17376 61.8317C6.68487 63.7587 8.56642 65.3637 10.7075 66.5521C11.667 67.1027 12.7421 67.4209 13.8466 67.4811C14.9512 67.5413 16.0545 67.3419 17.0681 66.8988C18.2488 68.1885 19.5332 69.3792 20.9084 70.4591C19.65 69.9053 18.2819 69.6453 16.9081 69.699C14.1345 69.9524 14.9079 70.8991 11.0676 70.6191C13.0372 72.1827 15.3063 73.3263 17.7348 73.9793C18.8408 74.2666 19.998 74.2958 21.1171 74.0646C22.2361 73.8334 23.2871 73.348 24.1887 72.6459C26.0798 73.7651 28.0818 74.6857 30.1624 75.3928C28.3737 74.79 26.4516 74.7022 24.6154 75.1394C21.7351 76.0995 22.7352 76.9396 18.6415 77.5663C21.0205 78.7906 23.6359 79.4866 26.3088 79.6065C27.5788 79.708 28.8541 79.4904 30.0185 78.9734C31.183 78.4564 32.1996 77.6564 32.976 76.6462C34.9559 77.5372 36.8796 78.548 38.7365 79.6731V79.6731Z" fill="#6A6E81"/>
<path d="M34.2803 30V21.938H31.5398V20.517H38.7028V21.938H35.9623V30H34.2803ZM39.8468 30V19.763H41.5143V22.402L41.4563 23.7795C41.756 23.4992 42.0846 23.2527 42.4423 23.04C42.8096 22.8177 43.2398 22.7065 43.7328 22.7065C44.4965 22.7065 45.0523 22.953 45.4003 23.446C45.7483 23.9293 45.9223 24.6253 45.9223 25.534V30H44.2548V25.7515C44.2548 25.1618 44.1678 24.7462 43.9938 24.5045C43.8198 24.2628 43.5346 24.142 43.1383 24.142C42.829 24.142 42.5535 24.2193 42.3118 24.374C42.0798 24.519 41.814 24.7365 41.5143 25.0265V30H39.8468ZM50.6873 30.174C50.1942 30.174 49.7351 30.0918 49.3097 29.9275C48.8844 29.7535 48.5122 29.507 48.1932 29.188C47.8742 28.869 47.6229 28.4823 47.4392 28.028C47.2652 27.564 47.1782 27.0372 47.1782 26.4475C47.1782 25.8675 47.2701 25.3455 47.4537 24.8815C47.6374 24.4175 47.8791 24.026 48.1787 23.707C48.4881 23.388 48.8409 23.1415 49.2372 22.9675C49.6336 22.7935 50.0396 22.7065 50.4553 22.7065C50.9386 22.7065 51.3639 22.7887 51.7313 22.953C52.0986 23.1173 52.4031 23.3493 52.6447 23.649C52.8961 23.9487 53.0846 24.3063 53.2103 24.722C53.3359 25.1377 53.3988 25.592 53.3988 26.085C53.3988 26.2493 53.3891 26.404 53.3698 26.549C53.3601 26.694 53.3456 26.81 53.3263 26.897H48.8022C48.8796 27.535 49.1019 28.028 49.4693 28.376C49.8462 28.7143 50.3247 28.8835 50.9047 28.8835C51.2141 28.8835 51.4993 28.84 51.7603 28.753C52.0309 28.6563 52.2968 28.5258 52.5578 28.3615L53.1233 29.4055C52.7849 29.6278 52.4079 29.8115 51.9923 29.9565C51.5766 30.1015 51.1416 30.174 50.6873 30.174ZM48.7877 25.766H51.9487C51.9487 25.215 51.8279 24.7848 51.5863 24.4755C51.3543 24.1565 50.9917 23.997 50.4987 23.997C50.0734 23.997 49.7012 24.1468 49.3822 24.4465C49.0632 24.7462 48.8651 25.186 48.7877 25.766ZM57.4592 30V20.517H59.3587L61.0407 25.157C61.147 25.4567 61.2485 25.766 61.3452 26.085C61.4419 26.3943 61.5434 26.7037 61.6497 27.013H61.7077C61.814 26.7037 61.9107 26.3943 61.9977 26.085C62.0944 25.766 62.1959 25.4567 62.3022 25.157L63.9407 20.517H65.8547V30H64.3032V25.6645C64.3032 25.4422 64.308 25.2005 64.3177 24.9395C64.337 24.6785 64.3564 24.4175 64.3757 24.1565C64.395 23.8858 64.4192 23.6248 64.4482 23.3735C64.4772 23.1125 64.5014 22.8708 64.5207 22.6485H64.4627L63.6942 24.8525L62.1427 29.1155H61.1422L59.5762 24.8525L58.8222 22.6485H58.7642C58.7835 22.8708 58.8029 23.1125 58.8222 23.3735C58.8512 23.6248 58.8754 23.8858 58.8947 24.1565C58.9237 24.4175 58.943 24.6785 58.9527 24.9395C58.972 25.2005 58.9817 25.4422 58.9817 25.6645V30H57.4592ZM70.7429 30.174C70.2982 30.174 69.8729 30.0918 69.4669 29.9275C69.0609 29.7632 68.6984 29.5215 68.3794 29.2025C68.0701 28.8835 67.8236 28.492 67.6399 28.028C67.4562 27.564 67.3644 27.0372 67.3644 26.4475C67.3644 25.8578 67.4562 25.331 67.6399 24.867C67.8236 24.403 68.0701 24.0115 68.3794 23.6925C68.6984 23.3735 69.0609 23.1318 69.4669 22.9675C69.8729 22.7935 70.2982 22.7065 70.7429 22.7065C71.1876 22.7065 71.6129 22.7935 72.0189 22.9675C72.4346 23.1318 72.7971 23.3735 73.1064 23.6925C73.4157 24.0115 73.6622 24.403 73.8459 24.867C74.0392 25.331 74.1359 25.8578 74.1359 26.4475C74.1359 27.0372 74.0392 27.564 73.8459 28.028C73.6622 28.492 73.4157 28.8835 73.1064 29.2025C72.7971 29.5215 72.4346 29.7632 72.0189 29.9275C71.6129 30.0918 71.1876 30.174 70.7429 30.174ZM70.7429 28.811C71.2649 28.811 71.6757 28.5983 71.9754 28.173C72.2751 27.738 72.4249 27.1628 72.4249 26.4475C72.4249 25.7225 72.2751 25.1473 71.9754 24.722C71.6757 24.287 71.2649 24.0695 70.7429 24.0695C70.2209 24.0695 69.8101 24.287 69.5104 24.722C69.2204 25.1473 69.0754 25.7225 69.0754 26.4475C69.0754 27.1628 69.2204 27.738 69.5104 28.173C69.8101 28.5983 70.2209 28.811 70.7429 28.811ZM77.4263 30.174C76.9333 30.174 76.4451 30.0822 75.9618 29.8985C75.4881 29.7052 75.0773 29.4683 74.7293 29.188L75.5123 28.115C75.8313 28.3663 76.1454 28.5645 76.4548 28.7095C76.7738 28.8448 77.1169 28.9125 77.4843 28.9125C77.8709 28.9125 78.1561 28.8352 78.3398 28.6805C78.5234 28.5162 78.6153 28.3083 78.6153 28.057C78.6153 27.912 78.5718 27.7863 78.4848 27.68C78.3978 27.564 78.2818 27.4625 78.1368 27.3755C77.9918 27.2885 77.8274 27.2112 77.6438 27.1435C77.4601 27.0662 77.2764 26.9888 77.0928 26.9115C76.8608 26.8245 76.6239 26.723 76.3823 26.607C76.1406 26.491 75.9231 26.3508 75.7298 26.1865C75.5461 26.0222 75.3914 25.8337 75.2658 25.621C75.1498 25.3987 75.0918 25.1377 75.0918 24.838C75.0918 24.2097 75.3238 23.6973 75.7878 23.301C76.2518 22.9047 76.8849 22.7065 77.6873 22.7065C78.1803 22.7065 78.6249 22.7935 79.0213 22.9675C79.4176 23.1415 79.7608 23.3397 80.0508 23.562L79.2823 24.577C79.0309 24.3933 78.7748 24.2483 78.5138 24.142C78.2624 24.026 77.9966 23.968 77.7163 23.968C77.3586 23.968 77.0928 24.0453 76.9188 24.2C76.7544 24.345 76.6723 24.5287 76.6723 24.751C76.6723 24.896 76.7109 25.0217 76.7883 25.128C76.8753 25.2247 76.9864 25.3117 77.1218 25.389C77.2571 25.4663 77.4118 25.5388 77.5858 25.6065C77.7694 25.6742 77.9579 25.7418 78.1513 25.8095C78.3929 25.8965 78.6346 25.998 78.8763 26.114C79.1179 26.2203 79.3354 26.3557 79.5288 26.52C79.7318 26.6843 79.8913 26.8873 80.0073 27.129C80.1329 27.361 80.1958 27.6413 80.1958 27.97C80.1958 28.2793 80.1329 28.5693 80.0073 28.84C79.8913 29.101 79.7173 29.333 79.4853 29.536C79.2533 29.7293 78.9633 29.884 78.6153 30C78.2673 30.116 77.8709 30.174 77.4263 30.174ZM83.6197 30.174C83.204 30.174 82.8512 30.1112 82.5612 29.9855C82.2809 29.8598 82.0489 29.6858 81.8652 29.4635C81.6912 29.2315 81.5607 28.9608 81.4737 28.6515C81.3964 28.3325 81.3577 27.9797 81.3577 27.593V24.2H80.3427V22.953L81.4447 22.8805L81.6477 20.9375H83.0397V22.8805H84.8522V24.2H83.0397V27.593C83.0397 28.4243 83.3732 28.84 84.0402 28.84C84.1659 28.84 84.2915 28.8255 84.4172 28.7965C84.5525 28.7675 84.6734 28.7288 84.7797 28.6805L85.0697 29.913C84.8764 29.9807 84.654 30.0387 84.4027 30.087C84.161 30.145 83.9 30.174 83.6197 30.174ZM90.7323 30V21.938H87.9918V20.517H95.1548V21.938H92.4143V30H90.7323ZM95.6616 30V22.8805H97.0391L97.1551 24.142H97.2131C97.4644 23.678 97.7689 23.3252 98.1266 23.0835C98.4843 22.8322 98.8516 22.7065 99.2286 22.7065C99.5669 22.7065 99.8376 22.7548 100.041 22.8515L99.7506 24.3015C99.6249 24.2628 99.5089 24.2338 99.4026 24.2145C99.2963 24.1952 99.1658 24.1855 99.0111 24.1855C98.7308 24.1855 98.4359 24.2967 98.1266 24.519C97.8173 24.7317 97.5514 25.1087 97.3291 25.65V30H95.6616ZM102.898 30.174C102.134 30.174 101.578 29.9323 101.23 29.449C100.882 28.956 100.708 28.2552 100.708 27.3465V22.8805H102.376V27.129C102.376 27.7187 102.463 28.1343 102.637 28.376C102.811 28.6177 103.091 28.7385 103.478 28.7385C103.787 28.7385 104.058 28.6612 104.29 28.5065C104.531 28.3518 104.788 28.1005 105.058 27.7525V22.8805H106.726V30H105.363L105.232 28.956H105.189C104.879 29.3233 104.541 29.6182 104.174 29.8405C103.816 30.0628 103.391 30.174 102.898 30.174ZM110.534 30.174C110.041 30.174 109.553 30.0822 109.07 29.8985C108.596 29.7052 108.185 29.4683 107.837 29.188L108.62 28.115C108.939 28.3663 109.254 28.5645 109.563 28.7095C109.882 28.8448 110.225 28.9125 110.592 28.9125C110.979 28.9125 111.264 28.8352 111.448 28.6805C111.632 28.5162 111.723 28.3083 111.723 28.057C111.723 27.912 111.68 27.7863 111.593 27.68C111.506 27.564 111.39 27.4625 111.245 27.3755C111.1 27.2885 110.936 27.2112 110.752 27.1435C110.568 27.0662 110.385 26.9888 110.201 26.9115C109.969 26.8245 109.732 26.723 109.49 26.607C109.249 26.491 109.031 26.3508 108.838 26.1865C108.654 26.0222 108.5 25.8337 108.374 25.621C108.258 25.3987 108.2 25.1377 108.2 24.838C108.2 24.2097 108.432 23.6973 108.896 23.301C109.36 22.9047 109.993 22.7065 110.795 22.7065C111.288 22.7065 111.733 22.7935 112.129 22.9675C112.526 23.1415 112.869 23.3397 113.159 23.562L112.39 24.577C112.139 24.3933 111.883 24.2483 111.622 24.142C111.371 24.026 111.105 23.968 110.824 23.968C110.467 23.968 110.201 24.0453 110.027 24.2C109.863 24.345 109.78 24.5287 109.78 24.751C109.78 24.896 109.819 25.0217 109.896 25.128C109.983 25.2247 110.095 25.3117 110.23 25.389C110.365 25.4663 110.52 25.5388 110.694 25.6065C110.878 25.6742 111.066 25.7418 111.259 25.8095C111.501 25.8965 111.743 25.998 111.984 26.114C112.226 26.2203 112.444 26.3557 112.637 26.52C112.84 26.6843 112.999 26.8873 113.115 27.129C113.241 27.361 113.304 27.6413 113.304 27.97C113.304 28.2793 113.241 28.5693 113.115 28.84C112.999 29.101 112.825 29.333 112.593 29.536C112.361 29.7293 112.071 29.884 111.723 30C111.375 30.116 110.979 30.174 110.534 30.174ZM116.728 30.174C116.312 30.174 115.959 30.1112 115.669 29.9855C115.389 29.8598 115.157 29.6858 114.973 29.4635C114.799 29.2315 114.669 28.9608 114.582 28.6515C114.505 28.3325 114.466 27.9797 114.466 27.593V24.2H113.451V22.953L114.553 22.8805L114.756 20.9375H116.148V22.8805H117.96V24.2H116.148V27.593C116.148 28.4243 116.481 28.84 117.148 28.84C117.274 28.84 117.4 28.8255 117.525 28.7965C117.661 28.7675 117.782 28.7288 117.888 28.6805L118.178 29.913C117.985 29.9807 117.762 30.0387 117.511 30.087C117.269 30.145 117.008 30.174 116.728 30.174ZM121.987 30.174C121.494 30.174 121.035 30.0918 120.61 29.9275C120.184 29.7535 119.812 29.507 119.493 29.188C119.174 28.869 118.923 28.4823 118.739 28.028C118.565 27.564 118.478 27.0372 118.478 26.4475C118.478 25.8675 118.57 25.3455 118.754 24.8815C118.937 24.4175 119.179 24.026 119.479 23.707C119.788 23.388 120.141 23.1415 120.537 22.9675C120.933 22.7935 121.339 22.7065 121.755 22.7065C122.238 22.7065 122.664 22.7887 123.031 22.953C123.398 23.1173 123.703 23.3493 123.945 23.649C124.196 23.9487 124.384 24.3063 124.51 24.722C124.636 25.1377 124.699 25.592 124.699 26.085C124.699 26.2493 124.689 26.404 124.67 26.549C124.66 26.694 124.645 26.81 124.626 26.897H120.102C120.179 27.535 120.402 28.028 120.769 28.376C121.146 28.7143 121.625 28.8835 122.205 28.8835C122.514 28.8835 122.799 28.84 123.06 28.753C123.331 28.6563 123.597 28.5258 123.858 28.3615L124.423 29.4055C124.085 29.6278 123.708 29.8115 123.292 29.9565C122.876 30.1015 122.441 30.174 121.987 30.174ZM120.088 25.766H123.249C123.249 25.215 123.128 24.7848 122.886 24.4755C122.654 24.1565 122.292 23.997 121.799 23.997C121.373 23.997 121.001 24.1468 120.682 24.4465C120.363 24.7462 120.165 25.186 120.088 25.766ZM128.495 30.174C127.596 30.174 126.881 29.8502 126.349 29.2025C125.827 28.5452 125.566 27.6268 125.566 26.4475C125.566 25.8675 125.648 25.3455 125.813 24.8815C125.987 24.4175 126.214 24.026 126.494 23.707C126.774 23.388 127.093 23.1415 127.451 22.9675C127.818 22.7935 128.195 22.7065 128.582 22.7065C128.988 22.7065 129.331 22.779 129.612 22.924C129.892 23.0593 130.172 23.2478 130.453 23.4895L130.395 22.344V19.763H132.062V30H130.685L130.569 29.2315H130.511C130.25 29.4925 129.945 29.7148 129.597 29.8985C129.249 30.0822 128.882 30.174 128.495 30.174ZM128.901 28.7965C129.433 28.7965 129.931 28.5307 130.395 27.999V24.6785C130.143 24.4562 129.897 24.3015 129.655 24.2145C129.423 24.1275 129.186 24.084 128.945 24.084C128.481 24.084 128.089 24.287 127.77 24.693C127.451 25.099 127.292 25.679 127.292 26.433C127.292 27.2063 127.427 27.796 127.698 28.202C127.978 28.5983 128.379 28.7965 128.901 28.7965ZM45.1359 48V38.517H50.8634V39.938H46.8179V42.6205H50.2689V44.0415H46.8179V48H45.1359ZM54.7804 48.174C54.3358 48.174 53.9104 48.0918 53.5044 47.9275C53.0984 47.7632 52.7359 47.5215 52.4169 47.2025C52.1076 46.8835 51.8611 46.492 51.6774 46.028C51.4938 45.564 51.4019 45.0372 51.4019 44.4475C51.4019 43.8578 51.4938 43.331 51.6774 42.867C51.8611 42.403 52.1076 42.0115 52.4169 41.6925C52.7359 41.3735 53.0984 41.1318 53.5044 40.9675C53.9104 40.7935 54.3358 40.7065 54.7804 40.7065C55.2251 40.7065 55.6504 40.7935 56.0564 40.9675C56.4721 41.1318 56.8346 41.3735 57.1439 41.6925C57.4533 42.0115 57.6998 42.403 57.8834 42.867C58.0768 43.331 58.1734 43.8578 58.1734 44.4475C58.1734 45.0372 58.0768 45.564 57.8834 46.028C57.6998 46.492 57.4533 46.8835 57.1439 47.2025C56.8346 47.5215 56.4721 47.7632 56.0564 47.9275C55.6504 48.0918 55.2251 48.174 54.7804 48.174ZM54.7804 46.811C55.3024 46.811 55.7133 46.5983 56.0129 46.173C56.3126 45.738 56.4624 45.1628 56.4624 44.4475C56.4624 43.7225 56.3126 43.1473 56.0129 42.722C55.7133 42.287 55.3024 42.0695 54.7804 42.0695C54.2584 42.0695 53.8476 42.287 53.5479 42.722C53.2579 43.1473 53.1129 43.7225 53.1129 44.4475C53.1129 45.1628 53.2579 45.738 53.5479 46.173C53.8476 46.5983 54.2584 46.811 54.7804 46.811ZM59.5339 48V40.8805H60.9114L61.0274 42.142H61.0854C61.3368 41.678 61.6413 41.3252 61.9989 41.0835C62.3566 40.8322 62.7239 40.7065 63.1009 40.7065C63.4393 40.7065 63.7099 40.7548 63.9129 40.8515L63.6229 42.3015C63.4973 42.2628 63.3813 42.2338 63.2749 42.2145C63.1686 42.1952 63.0381 42.1855 62.8834 42.1855C62.6031 42.1855 62.3083 42.2967 61.9989 42.519C61.6896 42.7317 61.4238 43.1087 61.2014 43.65V48H59.5339ZM67.5565 48.174C67.0635 48.174 66.6044 48.0918 66.179 47.9275C65.7537 47.7535 65.3815 47.507 65.0625 47.188C64.7435 46.869 64.4922 46.4823 64.3085 46.028C64.1345 45.564 64.0475 45.0372 64.0475 44.4475C64.0475 43.8675 64.1394 43.3455 64.323 42.8815C64.5067 42.4175 64.7484 42.026 65.048 41.707C65.3574 41.388 65.7102 41.1415 66.1065 40.9675C66.5029 40.7935 66.9089 40.7065 67.3245 40.7065C67.8079 40.7065 68.2332 40.7887 68.6005 40.953C68.9679 41.1173 69.2724 41.3493 69.514 41.649C69.7654 41.9487 69.9539 42.3063 70.0795 42.722C70.2052 43.1377 70.268 43.592 70.268 44.085C70.268 44.2493 70.2584 44.404 70.239 44.549C70.2294 44.694 70.2149 44.81 70.1955 44.897H65.6715C65.7489 45.535 65.9712 46.028 66.3385 46.376C66.7155 46.7143 67.194 46.8835 67.774 46.8835C68.0834 46.8835 68.3685 46.84 68.6295 46.753C68.9002 46.6563 69.166 46.5258 69.427 46.3615L69.9925 47.4055C69.6542 47.6278 69.2772 47.8115 68.8615 47.9565C68.4459 48.1015 68.0109 48.174 67.5565 48.174ZM65.657 43.766H68.818C68.818 43.215 68.6972 42.7848 68.4555 42.4755C68.2235 42.1565 67.861 41.997 67.368 41.997C66.9427 41.997 66.5705 42.1468 66.2515 42.4465C65.9325 42.7462 65.7344 43.186 65.657 43.766ZM70.5452 48L72.8072 44.288L70.6902 40.8805H72.4882L73.2857 42.229C73.3921 42.4223 73.4984 42.6253 73.6047 42.838C73.7207 43.041 73.8319 43.2392 73.9382 43.4325H73.9962C74.0832 43.2392 74.1751 43.041 74.2717 42.838C74.3684 42.6253 74.4602 42.4223 74.5472 42.229L75.2287 40.8805H76.9542L74.8517 44.4765L77.1137 48H75.3157L74.4457 46.5935C74.3297 46.3808 74.2089 46.1682 74.0832 45.9555C73.9672 45.7428 73.8464 45.535 73.7207 45.332H73.6627C73.5564 45.535 73.4501 45.7428 73.3437 45.9555C73.2471 46.1585 73.1456 46.3712 73.0392 46.5935L72.2852 48H70.5452ZM80.8495 48V38.517H83.88C84.373 38.517 84.8225 38.5605 85.2285 38.6475C85.6442 38.7248 86.0018 38.8553 86.3015 39.039C86.6108 39.213 86.8477 39.4498 87.012 39.7495C87.186 40.0492 87.273 40.4165 87.273 40.8515C87.273 41.3058 87.157 41.7263 86.925 42.113C86.693 42.4997 86.3692 42.7655 85.9535 42.9105V42.9685C86.4755 43.0845 86.9057 43.331 87.244 43.708C87.592 44.0753 87.766 44.578 87.766 45.216C87.766 45.6897 87.6742 46.1005 87.4905 46.4485C87.3068 46.7965 87.0507 47.0865 86.722 47.3185C86.403 47.5505 86.0212 47.7245 85.5765 47.8405C85.1318 47.9468 84.6485 48 84.1265 48H80.8495ZM82.5315 42.432H83.735C84.402 42.432 84.8805 42.3112 85.1705 42.0695C85.4702 41.8278 85.62 41.504 85.62 41.098C85.62 40.634 85.4653 40.3053 85.156 40.112C84.8467 39.9187 84.3827 39.822 83.764 39.822H82.5315V42.432ZM82.5315 46.695H83.9525C84.6485 46.695 85.185 46.5693 85.562 46.318C85.939 46.057 86.1275 45.6607 86.1275 45.129C86.1275 44.6263 85.9438 44.2638 85.5765 44.0415C85.2092 43.8095 84.6678 43.6935 83.9525 43.6935H82.5315V46.695ZM89.0664 48V40.8805H90.4439L90.5599 42.142H90.6179C90.8692 41.678 91.1737 41.3252 91.5314 41.0835C91.889 40.8322 92.2564 40.7065 92.6334 40.7065C92.9717 40.7065 93.2424 40.7548 93.4454 40.8515L93.1554 42.3015C93.0297 42.2628 92.9137 42.2338 92.8074 42.2145C92.701 42.1952 92.5705 42.1855 92.4159 42.1855C92.1355 42.1855 91.8407 42.2967 91.5314 42.519C91.222 42.7317 90.9562 43.1087 90.7339 43.65V48H89.0664ZM96.9585 48.174C96.5138 48.174 96.0885 48.0918 95.6825 47.9275C95.2765 47.7632 94.914 47.5215 94.595 47.2025C94.2856 46.8835 94.0391 46.492 93.8555 46.028C93.6718 45.564 93.58 45.0372 93.58 44.4475C93.58 43.8578 93.6718 43.331 93.8555 42.867C94.0391 42.403 94.2856 42.0115 94.595 41.6925C94.914 41.3735 95.2765 41.1318 95.6825 40.9675C96.0885 40.7935 96.5138 40.7065 96.9585 40.7065C97.4031 40.7065 97.8285 40.7935 98.2345 40.9675C98.6501 41.1318 99.0126 41.3735 99.322 41.6925C99.6313 42.0115 99.8778 42.403 100.061 42.867C100.255 43.331 100.351 43.8578 100.351 44.4475C100.351 45.0372 100.255 45.564 100.061 46.028C99.8778 46.492 99.6313 46.8835 99.322 47.2025C99.0126 47.5215 98.6501 47.7632 98.2345 47.9275C97.8285 48.0918 97.4031 48.174 96.9585 48.174ZM96.9585 46.811C97.4805 46.811 97.8913 46.5983 98.191 46.173C98.4906 45.738 98.6405 45.1628 98.6405 44.4475C98.6405 43.7225 98.4906 43.1473 98.191 42.722C97.8913 42.287 97.4805 42.0695 96.9585 42.0695C96.4365 42.0695 96.0256 42.287 95.726 42.722C95.436 43.1473 95.291 43.7225 95.291 44.4475C95.291 45.1628 95.436 45.738 95.726 46.173C96.0256 46.5983 96.4365 46.811 96.9585 46.811ZM101.712 48V37.763H103.35V44.1575H103.394L106.033 40.8805H107.86L105.424 43.7805L108.106 48H106.294L104.467 44.9115L103.35 46.1875V48H101.712ZM111.703 48.174C111.21 48.174 110.751 48.0918 110.325 47.9275C109.9 47.7535 109.528 47.507 109.209 47.188C108.89 46.869 108.638 46.4823 108.455 46.028C108.281 45.564 108.194 45.0372 108.194 44.4475C108.194 43.8675 108.286 43.3455 108.469 42.8815C108.653 42.4175 108.895 42.026 109.194 41.707C109.504 41.388 109.856 41.1415 110.253 40.9675C110.649 40.7935 111.055 40.7065 111.471 40.7065C111.954 40.7065 112.379 40.7887 112.747 40.953C113.114 41.1173 113.419 41.3493 113.66 41.649C113.912 41.9487 114.1 42.3063 114.226 42.722C114.351 43.1377 114.414 43.592 114.414 44.085C114.414 44.2493 114.405 44.404 114.385 44.549C114.376 44.694 114.361 44.81 114.342 44.897H109.818C109.895 45.535 110.117 46.028 110.485 46.376C110.862 46.7143 111.34 46.8835 111.92 46.8835C112.23 46.8835 112.515 46.84 112.776 46.753C113.046 46.6563 113.312 46.5258 113.573 46.3615L114.139 47.4055C113.8 47.6278 113.423 47.8115 113.008 47.9565C112.592 48.1015 112.157 48.174 111.703 48.174ZM109.803 43.766H112.964C112.964 43.215 112.843 42.7848 112.602 42.4755C112.37 42.1565 112.007 41.997 111.514 41.997C111.089 41.997 110.717 42.1468 110.398 42.4465C110.079 42.7462 109.881 43.186 109.803 43.766ZM115.717 48V40.8805H117.094L117.21 42.142H117.268C117.52 41.678 117.824 41.3252 118.182 41.0835C118.54 40.8322 118.907 40.7065 119.284 40.7065C119.622 40.7065 119.893 40.7548 120.096 40.8515L119.806 42.3015C119.68 42.2628 119.564 42.2338 119.458 42.2145C119.352 42.1952 119.221 42.1855 119.066 42.1855C118.786 42.1855 118.491 42.2967 118.182 42.519C117.873 42.7317 117.607 43.1087 117.384 43.65V48H115.717Z" fill="#6A6E81"/>
<path d="M19.8713 101L18.3113 93.152H19.7393L20.4233 97.112C20.4873 97.536 20.5513 97.956 20.6153 98.372C20.6793 98.788 20.7433 99.204 20.8073 99.62H20.8553C20.9433 99.204 21.0273 98.788 21.1073 98.372C21.1953 97.948 21.2833 97.528 21.3713 97.112L22.3313 93.152H23.5433L24.5033 97.112C24.5913 97.52 24.6793 97.936 24.7673 98.36C24.8553 98.776 24.9433 99.196 25.0313 99.62H25.0793C25.1433 99.196 25.2033 98.776 25.2593 98.36C25.3233 97.944 25.3873 97.528 25.4513 97.112L26.1353 93.152H27.4673L25.9673 101H24.2393L23.2673 96.872C23.2033 96.568 23.1393 96.268 23.0753 95.972C23.0193 95.668 22.9673 95.364 22.9193 95.06H22.8713C22.8153 95.364 22.7553 95.668 22.6913 95.972C22.6353 96.268 22.5753 96.568 22.5113 96.872L21.5633 101H19.8713ZM31.4501 101.144C30.9381 101.144 30.4701 101.052 30.0461 100.868C29.6221 100.676 29.2581 100.404 28.9541 100.052C28.6501 99.692 28.4141 99.26 28.2461 98.756C28.0781 98.252 27.9941 97.68 27.9941 97.04C27.9941 96.408 28.0781 95.844 28.2461 95.348C28.4141 94.844 28.6501 94.42 28.9541 94.076C29.2581 93.732 29.6221 93.468 30.0461 93.284C30.4701 93.1 30.9381 93.008 31.4501 93.008C31.9621 93.008 32.4301 93.1 32.8541 93.284C33.2781 93.468 33.6421 93.732 33.9461 94.076C34.2581 94.42 34.4981 94.844 34.6661 95.348C34.8341 95.844 34.9181 96.408 34.9181 97.04C34.9181 97.68 34.8341 98.252 34.6661 98.756C34.4981 99.26 34.2581 99.692 33.9461 100.052C33.6421 100.404 33.2781 100.676 32.8541 100.868C32.4301 101.052 31.9621 101.144 31.4501 101.144ZM31.4501 99.932C31.7621 99.932 32.0421 99.864 32.2901 99.728C32.5381 99.592 32.7501 99.4 32.9261 99.152C33.1021 98.896 33.2381 98.592 33.3341 98.24C33.4301 97.88 33.4781 97.48 33.4781 97.04C33.4781 96.16 33.2941 95.472 32.9261 94.976C32.5661 94.472 32.0741 94.22 31.4501 94.22C30.8261 94.22 30.3301 94.472 29.9621 94.976C29.6021 95.472 29.4221 96.16 29.4221 97.04C29.4221 97.48 29.4701 97.88 29.5661 98.24C29.6621 98.592 29.7981 98.896 29.9741 99.152C30.1501 99.4 30.3621 99.592 30.6101 99.728C30.8581 99.864 31.1381 99.932 31.4501 99.932ZM36.248 101V93.152H38.9C39.308 93.152 39.688 93.192 40.04 93.272C40.392 93.352 40.696 93.484 40.952 93.668C41.208 93.844 41.408 94.08 41.552 94.376C41.704 94.672 41.78 95.04 41.78 95.48C41.78 96.08 41.636 96.564 41.348 96.932C41.068 97.3 40.692 97.564 40.22 97.724L42.092 101H40.532L38.84 97.928H37.64V101H36.248ZM37.64 96.824H38.756C39.292 96.824 39.7 96.712 39.98 96.488C40.268 96.264 40.412 95.928 40.412 95.48C40.412 95.024 40.268 94.708 39.98 94.532C39.7 94.356 39.292 94.268 38.756 94.268H37.64V96.824ZM43.1096 101V93.152H44.5016V99.824H47.7656V101H43.1096ZM48.893 101V93.152H50.993C52.193 93.152 53.129 93.476 53.801 94.124C54.473 94.772 54.809 95.744 54.809 97.04C54.809 97.688 54.721 98.26 54.545 98.756C54.377 99.252 54.129 99.668 53.801 100.004C53.481 100.332 53.089 100.58 52.625 100.748C52.169 100.916 51.649 101 51.065 101H48.893ZM50.285 99.872H50.897C51.697 99.872 52.309 99.644 52.733 99.188C53.165 98.724 53.381 98.008 53.381 97.04C53.381 96.08 53.165 95.38 52.733 94.94C52.301 94.5 51.689 94.28 50.897 94.28H50.285V99.872ZM58.3154 101V93.152H63.0554V94.328H59.7074V96.548H62.5634V97.724H59.7074V101H58.3154ZM64.1926 101V93.152H65.5846V101H64.1926ZM67.3393 101V93.152H68.7673L71.2153 97.568L72.0193 99.236H72.0673C72.0353 98.828 71.9953 98.392 71.9473 97.928C71.9073 97.456 71.8873 97 71.8873 96.56V93.152H73.2193V101H71.7913L69.3433 96.584L68.5393 94.916H68.4913C68.5233 95.332 68.5593 95.768 68.5993 96.224C68.6473 96.68 68.6713 97.128 68.6713 97.568V101H67.3393ZM76.5823 96.824L76.3063 97.784H78.3103L78.0343 96.824C77.9063 96.408 77.7823 95.98 77.6623 95.54C77.5503 95.1 77.4383 94.664 77.3263 94.232H77.2783C77.1663 94.672 77.0543 95.112 76.9423 95.552C76.8303 95.984 76.7103 96.408 76.5823 96.824ZM73.9543 101L76.5103 93.152H78.1423L80.6983 101H79.2343L78.6223 98.876H75.9823L75.3703 101H73.9543ZM81.4257 101V93.152H82.8537L85.3017 97.568L86.1057 99.236H86.1537C86.1217 98.828 86.0817 98.392 86.0337 97.928C85.9937 97.456 85.9737 97 85.9737 96.56V93.152H87.3057V101H85.8777L83.4297 96.584L82.6257 94.916H82.5777C82.6097 95.332 82.6457 95.768 82.6857 96.224C82.7337 96.68 82.7577 97.128 82.7577 97.568V101H81.4257ZM92.1927 101.144C91.6967 101.144 91.2327 101.056 90.8007 100.88C90.3687 100.704 89.9927 100.444 89.6727 100.1C89.3607 99.756 89.1127 99.332 88.9287 98.828C88.7447 98.324 88.6527 97.748 88.6527 97.1C88.6527 96.46 88.7447 95.888 88.9287 95.384C89.1207 94.872 89.3767 94.44 89.6967 94.088C90.0247 93.736 90.4047 93.468 90.8367 93.284C91.2767 93.1 91.7447 93.008 92.2407 93.008C92.7367 93.008 93.1767 93.108 93.5607 93.308C93.9447 93.508 94.2607 93.74 94.5087 94.004L93.7647 94.904C93.5567 94.696 93.3327 94.532 93.0927 94.412C92.8527 94.284 92.5807 94.22 92.2767 94.22C91.9567 94.22 91.6607 94.288 91.3887 94.424C91.1247 94.552 90.8927 94.74 90.6927 94.988C90.5007 95.228 90.3487 95.524 90.2367 95.876C90.1327 96.228 90.0807 96.624 90.0807 97.064C90.0807 97.96 90.2727 98.664 90.6567 99.176C91.0487 99.68 91.5767 99.932 92.2407 99.932C92.5927 99.932 92.9047 99.86 93.1767 99.716C93.4487 99.564 93.6967 99.368 93.9207 99.128L94.6647 100.004C94.3447 100.372 93.9767 100.656 93.5607 100.856C93.1527 101.048 92.6967 101.144 92.1927 101.144ZM95.7348 101V93.152H97.1268V101H95.7348ZM100.489 96.824L100.213 97.784H102.217L101.941 96.824C101.813 96.408 101.689 95.98 101.569 95.54C101.457 95.1 101.345 94.664 101.233 94.232H101.185C101.073 94.672 100.961 95.112 100.849 95.552C100.737 95.984 100.617 96.408 100.489 96.824ZM97.8615 101L100.417 93.152H102.049L104.605 101H103.141L102.529 98.876H99.8895L99.2775 101H97.8615ZM105.333 101V93.152H106.725V99.824H109.989V101H105.333ZM114.887 96.824L114.611 97.784H116.615L116.339 96.824C116.211 96.408 116.087 95.98 115.967 95.54C115.855 95.1 115.743 94.664 115.631 94.232H115.583C115.471 94.672 115.359 95.112 115.247 95.552C115.135 95.984 115.015 96.408 114.887 96.824ZM112.259 101L114.815 93.152H116.447L119.003 101H117.539L116.927 98.876H114.287L113.675 101H112.259ZM120.51 101L118.95 93.152H120.378L121.062 97.112C121.126 97.536 121.19 97.956 121.254 98.372C121.318 98.788 121.382 99.204 121.446 99.62H121.494C121.582 99.204 121.666 98.788 121.746 98.372C121.834 97.948 121.922 97.528 122.01 97.112L122.97 93.152H124.182L125.142 97.112C125.23 97.52 125.318 97.936 125.406 98.36C125.494 98.776 125.582 99.196 125.67 99.62H125.718C125.782 99.196 125.842 98.776 125.898 98.36C125.962 97.944 126.026 97.528 126.09 97.112L126.774 93.152H128.106L126.606 101H124.878L123.906 96.872C123.842 96.568 123.778 96.268 123.714 95.972C123.658 95.668 123.606 95.364 123.558 95.06H123.51C123.454 95.364 123.394 95.668 123.33 95.972C123.274 96.268 123.214 96.568 123.15 96.872L122.202 101H120.51ZM130.696 96.824L130.42 97.784H132.424L132.148 96.824C132.02 96.408 131.896 95.98 131.776 95.54C131.664 95.1 131.552 94.664 131.44 94.232H131.392C131.28 94.672 131.168 95.112 131.056 95.552C130.944 95.984 130.824 96.408 130.696 96.824ZM128.068 101L130.624 93.152H132.256L134.812 101H133.348L132.736 98.876H130.096L129.484 101H128.068ZM135.539 101V93.152H138.191C138.599 93.152 138.979 93.192 139.331 93.272C139.683 93.352 139.987 93.484 140.243 93.668C140.499 93.844 140.699 94.08 140.843 94.376C140.995 94.672 141.071 95.04 141.071 95.48C141.071 96.08 140.927 96.564 140.639 96.932C140.359 97.3 139.983 97.564 139.511 97.724L141.383 101H139.823L138.131 97.928H136.931V101H135.539ZM136.931 96.824H138.047C138.583 96.824 138.991 96.712 139.271 96.488C139.559 96.264 139.703 95.928 139.703 95.48C139.703 95.024 139.559 94.708 139.271 94.532C138.991 94.356 138.583 94.268 138.047 94.268H136.931V96.824ZM142.401 101V93.152H144.501C145.701 93.152 146.637 93.476 147.309 94.124C147.981 94.772 148.317 95.744 148.317 97.04C148.317 97.688 148.229 98.26 148.053 98.756C147.885 99.252 147.637 99.668 147.309 100.004C146.989 100.332 146.597 100.58 146.133 100.748C145.677 100.916 145.157 101 144.573 101H142.401ZM143.793 99.872H144.405C145.205 99.872 145.817 99.644 146.241 99.188C146.673 98.724 146.889 98.008 146.889 97.04C146.889 96.08 146.673 95.38 146.241 94.94C145.809 94.5 145.197 94.28 144.405 94.28H143.793V99.872Z" fill="#6A6E81"/>
</svg>
