<svg width="165" height="102" viewBox="0 0 165 102" fill="none" xmlns="http://www.w3.org/2000/svg">
<path d="M59.9128 81.4051C64.7186 76.626 67.4286 73.7425 67.4286 71.166C67.4729 70.753 67.4257 70.3353 67.2905 69.9425C67.1552 69.5498 66.9352 69.1916 66.6459 68.8935C66.3567 68.5953 66.0054 68.3645 65.6169 68.2174C65.2285 68.0703 64.8124 68.0105 64.3982 68.0422C63.7254 68.0969 63.0725 68.2972 62.4848 68.6291C61.897 68.961 61.3884 69.4167 60.9941 69.9646L59.8193 68.7898C60.3913 68.0486 61.1226 67.4455 61.959 67.0249C62.7955 66.6044 63.7158 66.3772 64.6519 66.3602C65.2845 66.3111 65.9203 66.3985 66.5162 66.6164C67.1122 66.8342 67.6544 67.1775 68.1062 67.623C68.558 68.0685 68.9089 68.6058 69.1352 69.1987C69.3614 69.7915 69.4578 70.426 69.4176 71.0592C69.4176 74.0629 66.7477 77.0531 62.9031 81.0046C63.7841 80.9245 64.7587 80.8578 65.573 80.8578H70.2053V82.6332H59.9128V81.4051Z" fill="#6A6E81"/>
<path d="M71.8337 74.5972C71.8337 69.2574 73.7561 66.3606 76.96 66.3606C80.1638 66.3606 82.0728 69.2441 82.0728 74.5972C82.0728 79.9504 80.0971 82.9273 76.96 82.9273C73.8228 82.9273 71.8337 79.9504 71.8337 74.5972ZM80.0704 74.5972C80.0704 69.9116 78.8155 68.0159 76.96 68.0159C75.1044 68.0159 73.8362 69.9116 73.8362 74.5972C73.8362 79.2829 75.091 81.272 76.96 81.272C78.8289 81.272 80.0971 79.2829 80.0971 74.5972H80.0704Z" fill="#6A6E81"/>
<path d="M83.5547 81.4053C88.3605 76.6262 91.0705 73.7427 91.0705 71.1662C91.1135 70.7592 91.0677 70.3476 90.9363 69.9599C90.8049 69.5723 90.5909 69.2177 90.3092 68.9208C90.0275 68.6238 89.6847 68.3915 89.3045 68.2399C88.9242 68.0882 88.5157 68.0209 88.1069 68.0424C87.4341 68.0971 86.7812 68.2974 86.1934 68.6293C85.6057 68.9612 85.097 69.4169 84.7028 69.9648L83.5146 68.79C84.0886 68.051 84.8203 67.4493 85.6563 67.029C86.4923 66.6087 87.4116 66.3803 88.3472 66.3604C88.9814 66.3096 89.6192 66.3955 90.2174 66.6123C90.8156 66.8292 91.3603 67.172 91.8146 67.6174C92.2689 68.0629 92.6223 68.6007 92.8509 69.1945C93.0795 69.7883 93.178 70.4243 93.1396 71.0594C93.1396 74.0631 90.4697 77.0534 86.6251 81.0048C87.5062 80.9247 88.4807 80.858 89.295 80.858H93.9273V82.6335H83.5547V81.4053Z" fill="#6A6E81"/>
<path d="M96.3438 80.9249H100.002V69.1639H97.1047V67.829C98.2965 67.6543 99.4434 67.2509 100.482 66.6409H102.057V80.9249H105.368V82.6336H96.3438V80.9249Z" fill="#6A6E81"/>
<path fill-rule="evenodd" clip-rule="evenodd" d="M132.16 76.7064C132.937 77.7186 133.954 78.5202 135.12 79.0379C136.286 79.5556 137.563 79.7729 138.835 79.67C141.51 79.547 144.128 78.8505 146.511 77.6275C142.413 77.0001 143.401 76.1591 140.53 75.1979C138.692 74.7602 136.768 74.848 134.977 75.4515C137.057 74.7461 139.057 73.8244 140.944 72.7015C141.855 73.3932 142.912 73.8672 144.034 74.087C145.157 74.3068 146.314 74.2667 147.419 73.9697C149.849 73.312 152.119 72.1675 154.093 70.6057C150.262 70.8726 151.036 69.9382 148.26 69.6845C146.884 69.6294 145.514 69.8897 144.255 70.4455C145.63 69.3726 146.916 68.1895 148.1 66.9078C149.112 67.3597 150.217 67.5651 151.324 67.5071C152.431 67.4491 153.508 67.1293 154.467 66.5741C156.607 65.3844 158.486 63.7774 159.994 61.8484C156.456 62.9964 156.977 61.9151 154.32 62.3156C152.84 62.6565 151.466 63.353 150.316 64.3447C151.479 62.8166 152.524 61.2009 153.439 59.5122C154.548 59.7089 155.687 59.6474 156.768 59.3325C157.85 59.0177 158.844 58.4579 159.674 57.6967C161.554 56.0087 163.091 53.9734 164.199 51.7027C160.888 53.6518 161.209 52.4637 158.632 53.4649C157.034 54.223 155.656 55.3763 154.627 56.8156C155.445 54.9534 156.115 53.0296 156.63 51.062C157.699 50.9656 158.734 50.6315 159.658 50.0842C160.582 49.5368 161.371 48.7899 161.97 47.8981C163.397 45.8872 164.426 43.6214 165 41.2234C162.33 43.8933 162.33 42.6384 160.127 44.187C158.868 45.2207 157.879 46.5446 157.244 48.045C157.588 46.0997 157.794 44.1323 157.858 42.1578C158.836 41.8747 159.737 41.3766 160.497 40.6998C161.257 40.023 161.856 39.1847 162.25 38.2464C163.201 36.1413 163.753 33.8781 163.879 31.5717C161.916 34.4418 161.769 33.3739 160.061 35.1894C158.921 36.6471 158.168 38.369 157.871 40.1955C157.841 38.0066 157.636 35.8237 157.257 33.6675C158.173 33.2356 158.976 32.5974 159.604 31.8029C160.232 31.0085 160.667 30.0794 160.875 29.0887C161.358 26.9701 161.394 24.7743 160.982 22.6408C159.647 25.7112 159.233 24.7501 157.911 26.7925C157.125 28.2913 156.761 29.9754 156.857 31.6651C156.723 31.0644 156.576 30.477 156.403 29.8763C156.083 28.6615 155.695 27.4867 155.268 26.3387C156.019 25.753 156.63 25.0065 157.055 24.1542C157.48 23.3018 157.709 22.365 157.725 21.4127C157.765 19.3944 157.402 17.3882 156.657 15.5122C156.016 18.5959 155.468 17.795 154.654 19.9309C154.253 21.3117 154.202 22.7708 154.507 24.176C153.858 22.6923 153.113 21.252 152.278 19.8641C152.78 19.2102 153.143 18.4614 153.348 17.663C153.552 16.8645 153.592 16.033 153.466 15.2185C153.226 13.3844 152.661 11.6078 151.797 9.97216C151.691 12.8423 151.143 12.1882 150.783 14.2173C150.64 15.6052 150.819 17.0073 151.303 18.3156C150.398 16.9185 149.403 15.5808 148.326 14.3107C148.729 13.6745 148.996 12.962 149.111 12.2177C149.226 11.4735 149.186 10.7136 148.994 9.98551C148.607 8.38553 147.913 6.87582 146.951 5.54012C147.138 8.10322 146.564 7.59594 146.431 9.45153C146.446 10.8261 146.803 12.1752 147.472 13.3763C146.439 12.2928 145.337 11.2761 144.175 10.3326C144.5 9.72045 144.686 9.04371 144.718 8.35116C144.751 7.65862 144.629 6.96753 144.362 6.32774C143.828 5.00241 143.013 3.80897 141.972 2.83017C142.426 5.05954 141.839 4.7258 141.972 6.39449C142.104 7.5757 142.566 8.69566 143.307 9.62507C142.195 8.75463 141.032 7.95219 139.823 7.22216C139.918 6.64269 139.897 6.04994 139.759 5.479C139.622 4.90805 139.371 4.37049 139.022 3.89813C138.281 2.84827 137.353 1.94332 136.285 1.22822C137.166 3.04376 136.619 2.83017 137.073 4.21852C137.461 5.15548 138.065 5.9878 138.835 6.64813C137.733 6.03239 136.596 5.47972 135.431 4.99279C135.448 4.44074 135.353 3.89095 135.151 3.37687C134.949 2.8628 134.644 2.39519 134.256 2.0025C133.403 1.14315 132.373 0.478311 131.239 0.0534668C132.307 1.65541 131.733 1.58866 132.334 2.87021C132.689 3.54033 133.208 4.10976 133.842 4.52555C133.552 4.46585 133.252 4.46585 132.961 4.52555C132.143 4.79065 131.309 5.00465 130.465 5.16633C131.083 5.76112 131.863 6.16045 132.708 6.31439C133.18 6.41232 133.669 6.39554 134.133 6.26547C134.598 6.13539 135.025 5.89581 135.377 5.56682C136.405 6.00735 137.407 6.48793 138.368 7.00856C137.941 6.85091 137.478 6.81849 137.033 6.91512C135.698 7.23551 136.058 7.48915 134.456 7.80954C135.182 8.37422 136.051 8.72553 136.966 8.8241C137.478 8.88376 137.997 8.82042 138.48 8.63933C138.963 8.45825 139.396 8.16463 139.743 7.78284C140.939 8.50713 142.09 9.30519 143.187 10.1724C142.441 9.63465 141.543 9.34933 140.624 9.35808C138.995 9.43818 139.289 9.74522 137.326 9.77191C138.224 10.4893 139.275 10.9917 140.397 11.2404C140.982 11.3914 141.592 11.4243 142.19 11.3372C142.788 11.2501 143.363 11.0447 143.881 10.7331C144.929 11.6022 145.919 12.5387 146.845 13.5365C146.183 12.9547 145.348 12.6075 144.468 12.5486C142.56 12.4552 142.92 12.8957 140.57 12.6955C141.449 13.7342 142.58 14.5295 143.854 15.0049C144.497 15.2659 145.19 15.3809 145.882 15.3417C146.575 15.3024 147.25 15.1099 147.859 14.778C149.135 16.335 150.278 17.9961 151.277 19.744C150.625 18.6105 149.58 17.7555 148.34 17.3411C146.404 16.8205 146.698 17.3411 144.335 16.6336C145.069 17.8637 146.085 18.9022 147.299 19.6639C147.927 20.0799 148.638 20.3539 149.382 20.4669C150.127 20.5799 150.887 20.5291 151.61 20.318C152.471 21.8801 153.233 23.4941 153.893 25.1506C153.334 24.1899 152.483 23.4324 151.464 22.9879C149.488 22.2003 149.755 22.7743 147.352 21.7197C148.022 23.0861 148.995 24.2821 150.195 25.2173C150.775 25.7046 151.449 26.0683 152.174 26.2864C152.899 26.5045 153.661 26.5722 154.414 26.4855C154.801 27.5268 155.161 28.6081 155.509 29.7294L155.829 30.8775C155.337 30.131 154.661 29.5241 153.867 29.1154C151.811 28.0741 152.051 28.7282 149.555 27.3666C150.172 28.8908 151.12 30.2588 152.331 31.3714C153.403 32.4338 154.829 33.0616 156.336 33.1336C156.678 34.9404 156.887 36.7696 156.964 38.6069C156.547 37.702 155.931 36.9033 155.161 36.2707C153.146 34.6688 153.306 35.4163 150.876 33.3472C151.317 35.1315 152.117 36.8075 153.226 38.2731C154.15 39.5817 155.462 40.567 156.977 41.0899C156.926 43.2415 156.694 45.3851 156.283 47.4976C156.108 46.2629 155.616 45.0945 154.854 44.1069C152.999 41.9576 153.012 42.7719 150.85 40.102C150.919 42.1288 151.42 44.1176 152.318 45.9357C153.058 47.6178 154.354 48.9941 155.989 49.8338C155.47 51.9404 154.773 53.9991 153.907 55.9879C153.892 54.7072 153.547 53.4518 152.905 52.3435C151.37 49.7804 151.237 50.6348 149.435 47.4042C149.148 49.4964 149.307 51.6255 149.902 53.6518C150.367 55.4593 151.402 57.0692 152.852 58.244C151.74 60.324 150.435 62.295 148.954 64.1311C149.313 62.7426 149.276 61.2812 148.847 59.9127C147.913 57.1093 147.606 57.8969 146.564 54.3993C145.84 56.3285 145.539 58.391 145.683 60.4467C145.755 62.3602 146.459 64.196 147.686 65.6663C146.109 67.4638 144.341 69.0841 142.413 70.4989C143.1 69.0436 143.368 67.4257 143.187 65.8265C142.76 62.7695 142.319 63.5171 141.852 59.7124C140.814 61.5777 140.169 63.6357 139.956 65.7598C139.703 67.7175 140.053 69.7057 140.958 71.46C139.113 72.6458 137.138 73.6134 135.07 74.3435L134.363 74.6639C135.488 73.4778 136.188 71.9519 136.352 70.3253C136.619 67.1615 135.925 67.7489 136.352 63.8641C134.733 65.3231 133.495 67.1565 132.748 69.204C131.927 71.2074 131.885 73.4448 132.627 75.4782C128.956 77.1469 122.242 80.3108 120.773 81.6324C119.879 82.42 120.573 83.6081 121.107 83.1809C122.188 82.3265 125.112 80.511 126.273 79.7501C128.171 78.6148 130.137 77.5983 132.16 76.7064Z" fill="#6A6E81"/>
<path fill-rule="evenodd" clip-rule="evenodd" d="M38.7136 79.71C39.8483 80.4842 42.7985 82.2864 43.8799 83.1408C44.4272 83.568 45.108 82.3799 44.2269 81.5789C42.7585 80.2439 36.0437 77.1068 32.3592 75.4381C33.1059 73.4017 33.0678 71.1603 32.2524 69.1505C31.5011 67.1016 30.2589 65.2682 28.6347 63.8107C29.0886 67.6954 28.4078 67.1214 28.6347 70.2852C28.8042 71.9382 29.5344 73.4834 30.7039 74.6638L29.983 74.3568C27.9195 73.622 25.9483 72.6498 24.1092 71.46C25.0175 69.7117 25.3626 67.7252 25.0971 65.7731C24.8911 63.6477 24.2456 61.5883 23.2015 59.7257C22.801 63.5303 22.3604 62.7828 21.9466 65.8398C21.7578 67.4321 22.0167 69.0455 22.6942 70.4988C20.7643 69.0915 18.9998 67.4703 17.4345 65.6663C18.6618 64.1973 19.362 62.3598 19.4235 60.4466C19.571 58.3963 19.2751 56.3383 18.5558 54.4126C17.5146 57.9102 17.2209 57.0825 16.2597 59.9126C15.8379 61.2829 15.8056 62.7435 16.1663 64.1311C14.71 62.2615 13.4402 60.254 12.375 58.1371C13.8304 56.9668 14.8659 55.3551 15.3252 53.5449C15.9131 51.522 16.0722 49.3986 15.7925 47.3107C13.9903 50.5413 13.8568 49.6869 12.3216 52.2367C11.6815 53.3465 11.3325 54.6001 11.307 55.8811C10.454 53.8915 9.75774 51.8383 9.22451 49.7403C10.8642 48.903 12.1653 47.5264 12.909 45.8422C13.801 44.0265 14.3013 42.0435 14.3774 40.0218C12.1614 42.6918 12.1614 41.9308 10.3726 44.0267C9.5462 45.0131 8.99782 46.202 8.78398 47.4709C8.36221 45.3759 8.10335 43.2514 8.00971 41.1165C9.53002 40.5977 10.8476 39.6119 11.7743 38.2998C12.8852 36.8514 13.6933 35.1944 14.1505 33.4272C11.7075 35.4964 11.8811 34.7621 9.86529 36.3641C9.08039 36.9677 8.44538 37.7443 8.00971 38.6335C8.07791 36.7957 8.28768 34.9658 8.63714 33.1602C10.144 33.0882 11.5708 32.4604 12.642 31.3981C13.8547 30.2869 14.8034 28.9185 15.4187 27.3932C12.909 28.7282 13.1626 28.1141 11.1068 29.142C10.3119 29.5507 9.636 30.1577 9.14442 30.9041C9.23786 30.517 9.34466 30.1432 9.46481 29.7561C9.79854 28.6481 10.1723 27.5667 10.5595 26.5255C11.3165 26.6031 12.0815 26.5247 12.807 26.2951C13.5326 26.0655 14.2034 25.6896 14.7779 25.1905C15.9783 24.2605 16.9508 23.0688 17.6214 21.7063C15.2184 22.7609 15.4854 22.1735 13.5097 22.9612C12.5155 23.4303 11.6903 24.1949 11.1468 25.1505C11.8117 23.4938 12.5785 21.8798 13.443 20.318C14.1652 20.5355 14.9268 20.5896 15.6726 20.4765C16.4183 20.3634 17.1296 20.0858 17.7549 19.6638C18.9683 18.9021 19.984 17.8636 20.7184 16.6335C18.3422 17.3544 18.6493 16.8337 16.7136 17.341C15.4734 17.7554 14.4284 18.6104 13.7767 19.7439C14.7694 17.9798 15.9128 16.3049 17.1942 14.7379C17.8055 15.0641 18.4809 15.2523 19.1729 15.2892C19.8648 15.3261 20.5565 15.2108 21.199 14.9515C22.4705 14.4767 23.6006 13.6866 24.483 12.6553C22.1335 12.8556 22.4939 12.4017 20.585 12.4951C19.7042 12.5578 18.8688 12.9098 18.2087 13.4964C19.161 12.5137 20.173 11.5908 21.2391 10.733C21.7568 11.0453 22.3322 11.2499 22.9309 11.3348C23.5295 11.4197 24.1391 11.383 24.7233 11.2269C25.8473 10.9838 26.8988 10.4809 27.7937 9.7585C25.7646 9.7585 26.125 9.42476 24.4964 9.35801C23.5784 9.34444 22.6802 9.62513 21.9333 10.159C23.0252 9.27851 24.171 8.46707 25.3641 7.72937C25.7108 8.11116 26.1436 8.40478 26.6265 8.58587C27.1094 8.76696 27.6285 8.8303 28.1408 8.77063C29.0755 8.68846 29.9661 8.33593 30.7039 7.75607C29.7992 7.50901 28.908 7.21492 28.034 6.875C27.5911 6.767 27.1259 6.79492 26.699 6.9551C27.6602 6.43447 28.6614 5.95388 29.6893 5.51335C30.0427 5.84189 30.4689 6.08211 30.9329 6.21437C31.397 6.34662 31.8857 6.36715 32.3592 6.27427C33.2393 6.13422 34.0574 5.73444 34.7087 5.12621C33.8677 4.95267 33.04 4.73908 32.2124 4.48544C31.9224 4.41912 31.6213 4.41912 31.3313 4.48544C31.9627 4.06618 32.4808 3.49759 32.8398 2.8301C33.4272 1.49515 32.8398 1.60194 33.9345 0C32.8097 0.428237 31.79 1.09288 30.9442 1.94903C30.5577 2.34309 30.2545 2.81094 30.0526 3.32468C29.8508 3.83843 29.7545 4.38755 29.7694 4.93932C28.6067 5.43165 27.4705 5.98418 26.3653 6.59466C27.0979 5.93181 27.6688 5.10977 28.034 4.19175C28.4879 2.8568 27.9405 3.03034 28.8216 1.20146C27.7562 1.91956 26.8291 2.82402 26.085 3.87136C25.7473 4.35607 25.5096 4.90322 25.3859 5.48083C25.2621 6.05844 25.2547 6.65493 25.3641 7.23544C24.1589 7.95955 22.9997 8.75759 21.8932 9.625C22.658 8.70325 23.1442 7.58261 23.2949 6.39442C23.3617 4.72573 22.7743 5.05947 23.2282 2.8301C22.1905 3.81433 21.3718 5.00604 20.8252 6.32767C20.563 6.96907 20.4449 7.6603 20.4795 8.35239C20.5141 9.04448 20.7005 9.72049 21.0255 10.3325C19.8536 11.3132 18.7435 12.3654 17.7015 13.483C18.3515 12.2771 18.691 10.9282 18.6893 9.55825C18.5425 7.70267 17.9818 8.2233 18.1687 5.64684C17.2116 6.9854 16.5184 8.49412 16.1262 10.0922C15.9339 10.8203 15.894 11.5802 16.0088 12.3245C16.1237 13.0687 16.3909 13.7812 16.7937 14.4175C15.7159 15.69 14.7173 17.0274 13.8034 18.4223C14.2989 17.1167 14.4818 15.7131 14.3374 14.324C13.9636 12.2949 13.4163 12.9891 13.3228 10.0922C12.4572 11.7033 11.8918 13.4584 11.6541 15.2718C11.5296 16.0833 11.5695 16.9115 11.7713 17.7072C11.9731 18.503 12.3327 19.2501 12.8289 19.9041C12.0286 21.3027 11.311 22.7469 10.6796 24.2294C10.9874 22.8237 10.9323 21.3627 10.5194 19.9842C9.7051 17.8483 9.18447 18.6493 8.51699 15.5522C7.74762 17.4092 7.36165 19.4026 7.38228 21.4126C7.38932 22.3499 7.60362 23.274 8.00982 24.1187C8.41602 24.9634 9.00406 25.7078 9.7318 26.2985C9.30461 27.4466 8.93082 28.6214 8.58374 29.8362C8.42354 30.4369 8.2767 31.0243 8.1432 31.625C8.2394 29.9353 7.87489 28.2511 7.08859 26.7524C5.75364 24.71 5.35316 25.6711 4.0182 22.6007C3.60607 24.7341 3.64244 26.93 4.125 29.0485C4.32773 30.0466 4.76024 30.9836 5.38821 31.7854C6.01617 32.5871 6.82233 33.2315 7.74272 33.6675C7.36446 35.8236 7.15912 38.0065 7.12864 40.1954C6.82601 38.3708 6.07358 36.6503 4.93932 35.1893C3.23058 33.4272 3.08374 34.4551 1.12136 31.5716C1.24119 33.8789 1.79366 36.1432 2.75 38.2464C3.14397 39.1846 3.74287 40.0229 4.50282 40.6997C5.26278 41.3765 6.16452 41.8747 7.14199 42.1578C7.19976 44.1327 7.40502 46.1006 7.75607 48.0449C7.12876 46.5141 6.1338 45.1615 4.85922 44.1068C2.6699 42.5983 2.6699 43.7998 0 41.1833C0.575085 43.5787 1.5988 45.8436 3.01699 47.858C3.6284 48.7551 4.43214 49.5046 5.36972 50.0519C6.3073 50.5992 7.35511 50.9305 8.43689 51.0219C8.94977 52.9901 9.61939 54.9141 10.4393 56.7755C9.43104 55.3503 8.07552 54.2061 6.50121 53.4515C3.92476 52.4502 4.24515 53.6384 0.934466 51.676C2.05881 53.9512 3.61382 55.9868 5.51335 57.6699C6.34077 58.4358 7.33375 59.0005 8.41503 59.3201C9.49631 59.6396 10.6367 59.7053 11.7476 59.5121C12.6631 61.2009 13.7075 62.8165 14.8714 64.3447C13.7211 63.3529 12.3465 62.6564 10.8665 62.3155C8.1966 61.9151 8.73058 62.9964 5.19296 61.8483C6.68886 63.7732 8.55425 65.3799 10.6796 66.574C11.6401 67.1253 12.7164 67.4438 13.8222 67.5041C14.928 67.5644 16.0326 67.3647 17.0473 66.9211C18.2344 68.195 19.5199 69.3734 20.892 70.4454C19.6321 69.891 18.2625 69.6307 16.8871 69.6845C14.1104 69.9381 14.8847 70.8859 11.0534 70.6056C13.0242 72.1726 15.2962 73.3176 17.7282 73.9697C18.8325 74.2667 19.9903 74.3068 21.1126 74.0869C22.2349 73.8671 23.2919 73.3932 24.2027 72.7015C26.0901 73.8243 28.0901 74.746 30.1699 75.4515C28.3792 74.848 26.4548 74.7601 24.6165 75.1978C21.7464 76.159 22.7342 77 18.6359 77.6274C21.0187 78.8504 23.6364 79.547 26.3119 79.6699C27.5835 79.7728 28.8606 79.5555 30.0265 79.0378C31.1925 78.5201 32.2102 77.7186 32.9866 76.7063C34.9545 77.5911 36.8669 78.5941 38.7136 79.71Z" fill="#6A6E81"/>
<path d="M48.4587 13.7368H51.5291C53.5049 13.7368 54.96 14.3375 54.96 16.0997C54.9771 16.5417 54.8583 16.9783 54.6196 17.3507C54.3809 17.723 54.0338 18.0133 53.625 18.1822V18.249C54.1577 18.3338 54.6403 18.6124 54.9803 19.0312C55.3203 19.45 55.4937 19.9796 55.4672 20.5184C55.4672 22.4407 53.892 23.3351 51.7694 23.3351H48.4587V13.7368ZM51.3823 17.7417C52.7172 17.7417 53.2913 17.2077 53.2913 16.4067C53.2913 15.6057 52.6505 15.0718 51.409 15.0718H50.1541V17.7417H51.3823ZM51.5959 22.0536C53.0109 22.0536 53.7985 21.5463 53.7985 20.465C53.7985 19.3837 53.0376 19.0232 51.5959 19.0232H50.1541V22.0536H51.5959Z" fill="#6A6E81"/>
<path d="M56.455 19.7439C56.4168 19.2752 56.4733 18.8035 56.6209 18.357C56.7685 17.9105 57.0044 17.4982 57.3144 17.1446C57.6244 16.791 58.0024 16.5032 58.4257 16.2985C58.8491 16.0937 59.3093 15.9761 59.779 15.9526C61.728 15.9526 62.7426 17.4077 62.7426 19.3701C62.7687 19.6454 62.7687 19.9225 62.7426 20.1978H58.1103C58.1155 20.4701 58.1747 20.7386 58.2845 20.9879C58.3943 21.2371 58.5526 21.462 58.7501 21.6495C58.9475 21.8371 59.1803 21.9835 59.4349 22.0803C59.6894 22.1772 59.9607 22.2225 60.2329 22.2136C60.8297 22.2045 61.4104 22.0187 61.9016 21.6796L62.4756 22.7342C61.7498 23.2261 60.896 23.4953 60.0193 23.5085C59.5299 23.5234 59.0429 23.4347 58.5902 23.248C58.1375 23.0614 57.7295 22.7811 57.3929 22.4255C57.0562 22.07 56.7986 21.6472 56.637 21.1851C56.4753 20.7229 56.4133 20.2318 56.455 19.7439ZM61.2875 19.0497C61.2875 17.9284 60.8069 17.2609 59.819 17.2609C59.355 17.2781 58.9156 17.4737 58.5923 17.807C58.2689 18.1402 58.0867 18.5854 58.0836 19.0497H61.2875Z" fill="#6A6E81"/>
<path d="M63.5037 22.5206L64.3046 21.4259C64.8511 21.9231 65.5555 22.2115 66.2937 22.2403C67.0813 22.2403 67.4418 21.8665 67.4418 21.3725C67.4418 20.8786 66.6675 20.5048 65.9066 20.2111C65.1457 19.9174 63.9175 19.3167 63.9175 18.1153C63.9175 16.9138 64.9187 15.9526 66.5874 15.9526C67.4631 15.9637 68.3096 16.2694 68.9903 16.8204L68.216 17.8483C67.7677 17.4756 67.2098 17.26 66.6274 17.2342C65.9066 17.2342 65.5595 17.5679 65.5595 18.0218C65.5595 18.4757 66.2537 18.8094 67.0279 19.0898C68.0158 19.4636 69.0971 19.9308 69.0971 21.2791C69.0971 22.6274 68.1092 23.5085 66.2937 23.5085C65.2798 23.4981 64.2982 23.1506 63.5037 22.5206Z" fill="#6A6E81"/>
<path d="M70.3653 20.9056V17.408H69.3374V16.2065L70.4588 16.1264L70.659 14.1641H72.0874V16.073H73.9163V17.408H72.0874V20.8522C72.0874 21.6932 72.4078 22.107 73.102 22.107C73.3591 22.1015 73.6128 22.0471 73.8495 21.9468L74.1432 23.2017C73.6708 23.3654 73.1748 23.4511 72.6748 23.4553C70.9794 23.5087 70.3653 22.4541 70.3653 20.9056Z" fill="#6A6E81"/>
<path d="M77.7075 18.4892C77.7075 15.3921 79.443 13.5632 81.9393 13.5632C84.4357 13.5632 86.1845 15.3921 86.1845 18.4892C86.1845 21.5863 84.449 23.5086 81.9393 23.5086C79.4296 23.5086 77.7075 21.5996 77.7075 18.4892ZM84.3823 18.4892C84.3823 16.3533 83.4078 15.045 81.8993 15.045C80.3908 15.045 79.4163 16.38 79.4163 18.4892C79.4163 20.5984 80.3908 22.0268 81.8993 22.0268C83.4078 22.0268 84.4223 20.6518 84.4223 18.4892H84.3823Z" fill="#6A6E81"/>
<path d="M87.8132 16.073H89.1482L89.2683 17.0475C89.5625 16.7044 89.924 16.4255 90.3305 16.228C90.737 16.0305 91.1797 15.9186 91.6312 15.8994C93.1664 15.8994 93.8472 16.9407 93.8472 18.7562V23.2817H92.272V19.0366C92.272 17.8484 91.9382 17.4079 91.1506 17.4079C90.827 17.4308 90.5119 17.5224 90.2265 17.6766C89.9411 17.8309 89.6918 18.0442 89.4953 18.3023V23.3351H87.8132V16.073Z" fill="#6A6E81"/>
<path d="M95.8896 21.4926V12.9756H97.5717V21.5727C97.5717 21.9865 97.7719 22.1334 97.9455 22.1334H98.2125L98.4261 23.3882C98.1415 23.4994 97.8368 23.5494 97.5316 23.5351C96.3302 23.5084 95.8896 22.7474 95.8896 21.4926Z" fill="#6A6E81"/>
<path d="M99.5605 13.8971C99.5498 13.6945 99.6001 13.4933 99.7049 13.3196C99.8097 13.1459 99.9642 13.0076 100.148 12.9225C100.333 12.8375 100.538 12.8096 100.738 12.8425C100.938 12.8754 101.124 12.9676 101.271 13.1071C101.419 13.2467 101.521 13.4271 101.564 13.6253C101.608 13.8234 101.591 14.0301 101.516 14.2186C101.441 14.4071 101.312 14.5688 101.144 14.6828C100.976 14.7968 100.778 14.8579 100.575 14.8582C100.443 14.8696 100.311 14.853 100.186 14.8094C100.062 14.7659 99.9476 14.6964 99.8518 14.6056C99.7559 14.5148 99.6804 14.4047 99.6302 14.2826C99.58 14.1604 99.5562 14.029 99.5605 13.8971ZM99.7207 16.073H101.456V23.2818H99.7207V16.073Z" fill="#6A6E81"/>
<path d="M103.419 16.073H104.754L104.86 17.0475H104.927C105.221 16.7044 105.583 16.4255 105.989 16.228C106.396 16.0305 106.839 15.9186 107.29 15.8994C108.825 15.8994 109.506 16.9407 109.506 18.7562V23.2817H107.891V19.0366C107.891 17.8484 107.544 17.4079 106.756 17.4079C106.435 17.4326 106.122 17.5251 105.839 17.6793C105.556 17.8334 105.309 18.0458 105.114 18.3023V23.3351H103.419V16.073Z" fill="#6A6E81"/>
<path d="M111.028 19.7439C110.99 19.2752 111.046 18.8035 111.194 18.357C111.341 17.9105 111.577 17.4982 111.887 17.1446C112.197 16.791 112.575 16.5032 112.999 16.2985C113.422 16.0937 113.882 15.9761 114.352 15.9526C116.301 15.9526 117.329 17.3677 117.329 19.3701C117.336 19.6482 117.31 19.9262 117.249 20.1978H112.67C112.677 20.4707 112.738 20.7395 112.849 20.9888C112.96 21.2381 113.12 21.4629 113.318 21.6503C113.517 21.8377 113.75 21.9839 114.006 22.0806C114.261 22.1773 114.533 22.2225 114.806 22.2136C115.402 22.2022 115.982 22.0166 116.475 21.6796L117.049 22.7342C116.317 23.2244 115.459 23.4932 114.579 23.5085C114.091 23.5215 113.605 23.4313 113.154 23.2438C112.703 23.0563 112.297 22.7758 111.961 22.4204C111.626 22.0651 111.37 21.643 111.209 21.1818C111.048 20.7206 110.986 20.2306 111.028 19.7439ZM115.86 19.0497C115.86 17.9284 115.38 17.2609 114.392 17.2609C113.928 17.2781 113.489 17.4737 113.165 17.807C112.842 18.1402 112.66 18.5854 112.657 19.0497H115.86Z" fill="#6A6E81"/>
<path d="M26.9392 30.29H28.6346V38.4599H32.6395V39.9017H26.9392V30.29Z" fill="#6A6E81"/>
<path d="M33.3738 36.2974C33.3357 35.8305 33.3917 35.3606 33.5387 34.9157C33.6856 34.4708 33.9205 34.0599 34.2293 33.7076C34.5381 33.3552 34.9146 33.0684 35.3363 32.8644C35.7581 32.6603 36.2165 32.543 36.6845 32.5195C38.6335 32.5195 39.6614 33.9212 39.6614 35.937C39.6656 36.21 39.6432 36.4827 39.5947 36.7513H35.0024C35.0076 37.0236 35.0668 37.2922 35.1766 37.5414C35.2865 37.7906 35.4447 38.0155 35.6422 38.2031C35.8397 38.3906 36.0725 38.5371 36.327 38.6339C36.5816 38.7307 36.8528 38.776 37.125 38.7671C37.7244 38.7607 38.3089 38.5798 38.8071 38.2465L39.3811 39.3011C38.6494 39.7913 37.792 40.0601 36.9114 40.0754C36.423 40.0867 35.9377 39.9948 35.4873 39.8056C35.0368 39.6165 34.6314 39.3344 34.2975 38.9778C33.9635 38.6212 33.7087 38.1981 33.5495 37.7362C33.3903 37.2743 33.3304 36.7841 33.3738 36.2974ZM38.193 35.6166C38.193 34.4953 37.7124 33.8144 36.7245 33.8144C36.2617 33.8383 35.8255 34.0382 35.5053 34.3733C35.1852 34.7084 35.0052 35.1532 35.0024 35.6166H38.193Z" fill="#6A6E81"/>
<path d="M40.2219 32.6929H41.944L43.0921 36.4307C43.279 37.1383 43.5059 37.8725 43.6928 38.6067C43.9064 37.8725 44.1066 37.1383 44.3069 36.4307L45.4549 32.6929H47.0836L44.6406 39.9016H42.7183L40.2219 32.6929Z" fill="#6A6E81"/>
<path d="M47.6844 36.2974C47.6462 35.8294 47.7027 35.3584 47.8505 34.9127C47.9983 34.467 48.2343 34.0555 48.5445 33.703C48.8547 33.3504 49.2328 33.0639 49.6561 32.8606C50.0794 32.6573 50.5393 32.5413 51.0084 32.5195C52.9574 32.5195 53.9853 33.9212 53.9853 35.937C54.0116 36.2078 54.0116 36.4805 53.9853 36.7513H49.3931C49.407 37.2908 49.6312 37.8035 50.0177 38.1801C50.4043 38.5566 50.9226 38.7673 51.4623 38.7671C52.0578 38.7628 52.6387 38.5816 53.131 38.2465L53.705 39.3011C52.9734 39.7913 52.1159 40.0601 51.2353 40.0754C50.7458 40.0886 50.259 39.9981 49.807 39.8098C49.3549 39.6215 48.9478 39.3397 48.6125 38.9829C48.2771 38.6261 48.021 38.2023 47.861 37.7395C47.7011 37.2767 47.6409 36.7852 47.6844 36.2974ZM52.5169 35.6166C52.5169 34.4953 52.0363 33.8144 51.0485 33.8144C50.5833 33.835 50.1437 34.0335 49.8207 34.3689C49.4978 34.7043 49.316 35.151 49.313 35.6166H52.5169Z" fill="#6A6E81"/>
<path d="M55.4539 32.6931H56.7888L56.909 33.9613C57.0868 33.5584 57.3708 33.2115 57.7305 32.9576C58.0903 32.7036 58.5123 32.5522 58.9514 32.5196C59.2307 32.5027 59.51 32.553 59.7657 32.6664L59.4721 34.1348C59.2317 34.0517 58.9788 34.011 58.7245 34.0147C58.1505 34.0147 57.4563 34.4018 57.0157 35.4965V39.9018H55.4539V32.6931Z" fill="#6A6E81"/>
<path d="M60.0729 37.9662C60.0729 36.4177 61.4078 35.6167 64.318 35.2963C64.318 34.5354 63.9843 33.8946 62.9831 33.8946C62.2557 33.9451 61.555 34.1894 60.9539 34.6021L60.2998 33.4274C61.1808 32.8449 62.2076 32.5211 63.2634 32.4929C65.0522 32.4929 65.9333 33.5876 65.9333 35.6034V39.8752H64.5983L64.4782 39.0876C63.8692 39.6571 63.081 39.9969 62.2488 40.0487C61.9653 40.0715 61.6801 40.0341 61.412 39.9387C61.1439 39.8434 60.8991 39.6925 60.6936 39.4957C60.488 39.299 60.3264 39.0611 60.2195 38.7974C60.1125 38.5338 60.0625 38.2505 60.0729 37.9662ZM64.318 37.9662V36.3509C62.3556 36.5912 61.6481 37.1119 61.6481 37.8327C61.6481 38.5536 62.0886 38.7538 62.6894 38.7538C63.2975 38.7083 63.8633 38.4254 64.2646 37.9662H64.318Z" fill="#6A6E81"/>
<path d="M67.3481 41.21C67.3682 40.8843 67.4738 40.5696 67.6542 40.2978C67.8347 40.0259 68.0837 39.8064 68.3761 39.6615C68.1713 39.5371 68.0037 39.36 67.891 39.1486C67.7782 38.9372 67.7244 38.6993 67.7353 38.46C67.7531 38.1914 67.8336 37.9308 67.9704 37.6989C68.1072 37.4671 68.2964 37.2705 68.5229 37.1251V37.0583C68.2327 36.8317 67.9977 36.5421 67.8358 36.2114C67.674 35.8807 67.5894 35.5175 67.5884 35.1493C67.6002 34.7916 67.6838 34.4398 67.8342 34.115C67.9847 33.7901 68.1989 33.4989 68.4642 33.2585C68.7294 33.0182 69.0403 32.8336 69.3784 32.7158C69.7164 32.598 70.0747 32.5494 70.4319 32.5729C70.7908 32.5694 71.1476 32.6282 71.4865 32.7464H74.0763V33.9879H72.7413C73.0125 34.3396 73.1582 34.772 73.1552 35.2161C73.1556 35.5625 73.0827 35.9051 72.9412 36.2214C72.7998 36.5377 72.5931 36.8205 72.3346 37.0512C72.0762 37.2819 71.7718 37.4553 71.4416 37.5601C71.1114 37.6649 70.7627 37.6986 70.4185 37.659C70.0733 37.6489 69.7332 37.5718 69.4173 37.4321C69.3071 37.5106 69.2179 37.615 69.1574 37.736C69.0969 37.857 69.0669 37.991 69.0702 38.1263C69.0702 38.5401 69.3639 38.7804 70.245 38.7804H71.5799C73.302 38.7804 74.2498 39.3144 74.2498 40.5559C74.2498 41.7974 72.7413 43.1056 70.3918 43.1056C68.6297 43.0923 67.3481 42.4649 67.3481 41.21ZM72.5545 40.8229C72.5545 40.2622 72.1006 40.102 71.2195 40.102H70.2316C69.8998 40.11 69.5682 40.0786 69.2438 40.0086C69.0847 40.1127 68.9524 40.2527 68.8573 40.4173C68.7623 40.582 68.7072 40.7666 68.6964 40.9564C68.6964 41.6105 69.3906 41.9843 70.5387 41.9843C71.6867 41.9843 72.5545 41.437 72.5545 40.8229ZM71.6734 35.0959C71.6997 34.9158 71.687 34.7321 71.636 34.5573C71.585 34.3826 71.497 34.2208 71.378 34.0831C71.2589 33.9453 71.1116 33.8349 70.9461 33.7591C70.7805 33.6834 70.6006 33.6442 70.4185 33.6442C70.2365 33.6442 70.0566 33.6834 69.891 33.7591C69.7254 33.8349 69.5781 33.9453 69.4591 34.0831C69.34 34.2208 69.252 34.3826 69.2011 34.5573C69.1501 34.7321 69.1373 34.9158 69.1637 35.0959C69.0905 35.2976 69.067 35.5139 69.0951 35.7265C69.1233 35.9392 69.2022 36.1419 69.3253 36.3176C69.4485 36.4932 69.6121 36.6366 69.8024 36.7356C69.9927 36.8346 70.204 36.8863 70.4185 36.8863C70.633 36.8863 70.8444 36.8346 71.0347 36.7356C71.225 36.6366 71.3886 36.4932 71.5117 36.3176C71.6348 36.1419 71.7138 35.9392 71.7419 35.7265C71.7701 35.5139 71.7466 35.2976 71.6734 35.0959Z" fill="#6A6E81"/>
<path d="M74.6105 36.2974C74.5742 35.8298 74.632 35.3596 74.7805 34.9146C74.929 34.4697 75.1652 34.059 75.475 33.7068C75.7849 33.3547 76.1621 33.0681 76.5846 32.8642C77.007 32.6603 77.466 32.5431 77.9345 32.5195C79.8835 32.5195 80.9114 33.9212 80.9114 35.937C80.9377 36.2078 80.9377 36.4805 80.9114 36.7513H76.2658C76.271 37.0236 76.3302 37.2922 76.44 37.5414C76.5498 37.7906 76.7081 38.0155 76.9056 38.2031C77.103 38.3906 77.3358 38.5371 77.5904 38.6339C77.8449 38.7307 78.1162 38.776 78.3884 38.7671C78.9969 38.7659 79.5914 38.5848 80.0971 38.2465L80.6712 39.3011C79.9395 39.7913 79.082 40.0601 78.2015 40.0754C77.7092 40.0922 77.219 40.0045 76.7631 39.8181C76.3072 39.6316 75.8961 39.3506 75.5567 38.9936C75.2174 38.6366 74.9576 38.2118 74.7945 37.747C74.6314 37.2823 74.5687 36.7882 74.6105 36.2974ZM79.443 35.6166C79.443 34.4953 78.9624 33.8144 77.9746 33.8144C77.5117 33.8383 77.0755 34.0382 76.7554 34.3733C76.4352 34.7084 76.2553 35.1532 76.2525 35.6166H79.443Z" fill="#6A6E81"/>
<path d="M81.9392 36.2974C81.9392 33.9479 83.421 32.5195 84.9962 32.5195C85.3486 32.5192 85.6974 32.5887 86.0228 32.7239C86.3481 32.859 86.6435 33.0573 86.8919 33.3071V32.1457V29.4758H88.5739V39.8484H87.239L87.1188 39.0741H87.0521C86.524 39.641 85.7966 39.9808 85.0229 40.0219C83.1006 40.102 81.9392 38.687 81.9392 36.2974ZM86.8385 37.8727V34.5086C86.4428 34.1295 85.9179 33.9148 85.37 33.9079C84.4356 33.9079 83.688 34.7756 83.688 36.2841C83.688 37.7926 84.2754 38.687 85.3166 38.687C85.6154 38.6753 85.9076 38.5959 86.1712 38.4548C86.4348 38.3138 86.663 38.1147 86.8385 37.8727Z" fill="#6A6E81"/>
<path d="M95.3954 31.7318H92.6187V30.29H99.8674V31.7318H97.1041V39.9017H95.3954V31.7318Z" fill="#6A6E81"/>
<path d="M100.535 32.6931H101.87L101.99 33.9613C102.175 33.5449 102.474 33.1889 102.851 32.9339C103.229 32.679 103.671 32.5354 104.126 32.5196C104.405 32.5027 104.685 32.553 104.941 32.6664L104.647 34.1348C104.407 34.0506 104.154 34.0099 103.899 34.0147C103.325 34.0147 102.631 34.4018 102.191 35.4965V39.9018H100.535V32.6931Z" fill="#6A6E81"/>
<path d="M105.101 37.9662C105.101 36.4177 106.436 35.6167 109.346 35.2963C109.346 34.5354 109.012 33.8946 108.011 33.8946C107.284 33.9451 106.583 34.1894 105.982 34.6021L105.381 33.4274C106.262 32.8449 107.289 32.5211 108.345 32.4929C110.134 32.4929 111.015 33.5876 111.015 35.6034V39.8752H109.64L109.466 39.1143C108.857 39.6838 108.069 40.0236 107.237 40.0754C106.954 40.0927 106.671 40.0501 106.406 39.9506C106.14 39.851 105.899 39.6967 105.698 39.4977C105.496 39.2987 105.339 39.0595 105.236 38.7956C105.133 38.5317 105.087 38.2491 105.101 37.9662ZM109.346 37.9662V36.3509C107.383 36.5912 106.676 37.1119 106.676 37.8327C106.676 38.5536 107.117 38.7538 107.717 38.7538C108.028 38.7382 108.332 38.6604 108.611 38.5251C108.891 38.3898 109.141 38.1998 109.346 37.9662Z" fill="#6A6E81"/>
<path d="M112.47 36.2974C112.47 33.9479 113.952 32.5195 115.527 32.5195C115.879 32.5192 116.228 32.5887 116.553 32.7239C116.879 32.859 117.174 33.0573 117.422 33.3071V32.1457V29.4758H119.104V39.8484H117.769L117.649 39.0741C117.117 39.643 116.385 39.9828 115.607 40.0219C113.631 40.102 112.47 38.687 112.47 36.2974ZM117.369 37.8727V34.5086C116.973 34.1295 116.448 33.9148 115.901 33.9079C114.966 33.9079 114.219 34.7756 114.219 36.2841C114.219 37.7926 114.806 38.687 115.847 38.687C116.146 38.6753 116.438 38.5959 116.702 38.4548C116.965 38.3138 117.193 38.1147 117.369 37.8727Z" fill="#6A6E81"/>
<path d="M120.893 30.4636C120.883 30.2605 120.933 30.0588 121.039 29.8848C121.144 29.7108 121.299 29.5724 121.484 29.4878C121.669 29.4031 121.876 29.376 122.076 29.41C122.277 29.444 122.463 29.5375 122.609 29.6784C122.756 29.8193 122.857 30.0011 122.899 30.2001C122.941 30.3991 122.923 30.6062 122.846 30.7945C122.769 30.9828 122.637 31.1436 122.467 31.256C122.298 31.3684 122.098 31.4272 121.895 31.4248C121.764 31.4342 121.633 31.4161 121.51 31.3717C121.387 31.3273 121.275 31.2575 121.18 31.1669C121.086 31.0763 121.012 30.9669 120.962 30.8457C120.913 30.7246 120.889 30.5944 120.893 30.4636ZM121.054 32.693H122.736V39.9018H121.054V32.693Z" fill="#6A6E81"/>
<path d="M124.751 32.6931H126.086L126.206 33.6542C126.503 33.3154 126.866 33.0402 127.272 32.8452C127.678 32.6502 128.119 32.5394 128.569 32.5195C130.104 32.5195 130.785 33.5608 130.785 35.3763V39.9018H129.21V35.6033C129.21 34.4018 128.876 33.9613 128.089 33.9613C127.764 33.9875 127.449 34.0819 127.164 34.2383C126.879 34.3947 126.63 34.6097 126.433 34.869V39.9018H124.751V32.6931Z" fill="#6A6E81"/>
<path d="M132.347 41.2099C132.367 40.8842 132.473 40.5696 132.653 40.2977C132.834 40.0258 133.083 39.8063 133.375 39.6614C133.168 39.5388 132.998 39.3623 132.882 39.1508C132.767 38.9393 132.711 38.7006 132.721 38.4599C132.741 38.1904 132.824 37.9294 132.963 37.6976C133.102 37.4659 133.294 37.2698 133.522 37.125V37.0582C133.228 36.8344 132.989 36.5457 132.825 36.2146C132.66 35.8835 132.575 35.5189 132.574 35.1493C132.586 34.7903 132.67 34.4373 132.821 34.1116C132.972 33.7858 133.188 33.4939 133.454 33.2534C133.721 33.0128 134.034 32.8286 134.373 32.7116C134.713 32.5947 135.073 32.5475 135.431 32.5728C135.79 32.5707 136.146 32.6294 136.486 32.7464H139.062V33.9879H137.727C138.004 34.3365 138.15 34.7709 138.141 35.216C138.142 35.5569 138.072 35.8942 137.936 36.2064C137.799 36.5187 137.599 36.7988 137.347 37.0289C137.096 37.259 136.799 37.4339 136.476 37.5424C136.153 37.6509 135.81 37.6906 135.471 37.659C135.133 37.6618 134.797 37.5983 134.483 37.4721C134.37 37.5482 134.277 37.6517 134.214 37.7731C134.151 37.8944 134.12 38.0296 134.123 38.1663C134.123 38.5801 134.416 38.8204 135.297 38.8204H136.632C138.368 38.8204 139.302 39.3544 139.302 40.5959C139.302 41.8374 137.807 43.1456 135.458 43.1456C133.615 43.0922 132.347 42.4648 132.347 41.2099ZM137.553 40.8228C137.553 40.2621 137.1 40.1019 136.219 40.1019H135.244C134.912 40.1099 134.581 40.0785 134.256 40.0085C134.094 40.1103 133.958 40.2495 133.861 40.4144C133.763 40.5793 133.707 40.7651 133.695 40.9563C133.695 41.6104 134.403 41.9842 135.551 41.9842C136.699 41.9842 137.5 41.4369 137.5 40.8228H137.553ZM136.672 35.0959C136.699 34.9157 136.686 34.732 136.635 34.5573C136.584 34.3825 136.496 34.2207 136.377 34.083C136.258 33.9453 136.111 33.8348 135.945 33.7591C135.78 33.6833 135.6 33.6441 135.418 33.6441C135.236 33.6441 135.056 33.6833 134.89 33.7591C134.724 33.8348 134.577 33.9453 134.458 34.083C134.339 34.2207 134.251 34.3825 134.2 34.5573C134.149 34.732 134.136 34.9157 134.163 35.0959C134.09 35.2975 134.066 35.5138 134.094 35.7265C134.122 35.9391 134.201 36.1419 134.324 36.3175C134.447 36.4932 134.611 36.6366 134.801 36.7356C134.992 36.8346 135.203 36.8863 135.418 36.8863C135.632 36.8863 135.843 36.8346 136.034 36.7356C136.224 36.6366 136.388 36.4932 136.511 36.3175C136.634 36.1419 136.713 35.9391 136.741 35.7265C136.769 35.5138 136.746 35.2975 136.672 35.0959Z" fill="#6A6E81"/>
<path d="M50.2073 55.227L51.2085 54.0656C51.8747 54.7295 52.7652 55.12 53.7048 55.1602C54.7862 55.1602 55.3735 54.6663 55.3735 53.9187C55.3735 53.1711 54.7595 52.8774 53.8917 52.517L52.5568 51.943C52.0202 51.7723 51.5485 51.4418 51.205 50.9956C50.8614 50.5495 50.6624 50.009 50.6345 49.4466C50.6661 49.0572 50.7754 48.6781 50.956 48.3316C51.1366 47.9852 51.3848 47.6784 51.686 47.4295C51.9872 47.1806 52.3352 46.9946 52.7094 46.8825C53.0837 46.7704 53.4766 46.7344 53.865 46.7767C54.969 46.7826 56.0272 47.2184 56.8153 47.9915L55.9476 49.0862C55.4033 48.5073 54.6582 48.1586 53.865 48.1117C52.9439 48.1117 52.3432 48.5389 52.3432 49.2464C52.3432 49.9539 53.0774 50.2743 53.8784 50.5813L55.2133 51.1287C55.7748 51.2892 56.2682 51.6295 56.6178 52.0972C56.9674 52.565 57.154 53.1345 57.149 53.7185C57.149 55.2804 55.8141 56.5753 53.6915 56.5753C52.3991 56.5951 51.1497 56.1116 50.2073 55.227Z" fill="#6A6E81"/>
<path d="M58.5776 49.2463H59.9126L60.0327 50.0206H60.0995C60.6874 49.4616 61.4526 49.1262 62.2621 49.0728C64.0643 49.0728 65.1055 50.5145 65.1055 52.7439C65.1055 55.2135 63.6238 56.6419 62.0218 56.6419C61.3269 56.6075 60.6679 56.3231 60.1662 55.841V57.0558V59.3118H58.5776V49.2463ZM63.4102 52.7572C63.4102 51.3288 62.9429 50.4745 61.8483 50.4745C61.2338 50.5215 60.6628 50.8094 60.2597 51.2754V54.6395C60.6581 55.0059 61.1739 55.2189 61.7148 55.2402C62.7427 55.2402 63.4102 54.3992 63.4102 52.7572Z" fill="#6A6E81"/>
<path d="M66.2403 52.864C66.2022 52.3953 66.2586 51.9237 66.4062 51.4771C66.5539 51.0306 66.7897 50.6183 67.0997 50.2647C67.4098 49.9111 67.7877 49.6234 68.2111 49.4186C68.6345 49.2138 69.0947 49.0962 69.5644 49.0728C71.5134 49.0728 72.5413 50.4878 72.5413 52.5036C72.5489 52.7773 72.522 53.0509 72.4612 53.3179H67.8823C67.8892 53.5908 67.9501 53.8597 68.0613 54.109C68.1726 54.3582 68.3321 54.5831 68.5306 54.7704C68.7292 54.9578 68.9628 55.104 69.2182 55.2007C69.4735 55.2974 69.7454 55.3426 70.0182 55.3337C70.6174 55.3266 71.1999 55.1355 71.6869 54.7863L72.261 55.8543C71.5293 56.3445 70.6718 56.6134 69.7913 56.6286C69.3036 56.6395 68.819 56.5479 68.3689 56.3597C67.9189 56.1715 67.5133 55.8909 67.1786 55.536C66.8439 55.1811 66.5874 54.7599 66.4258 54.2996C66.2641 53.8394 66.201 53.3503 66.2403 52.864ZM71.0729 52.1164C71.0729 51.0084 70.5923 50.3276 69.6044 50.3276C69.1415 50.348 68.7039 50.5446 68.3813 50.8772C68.0586 51.2098 67.8753 51.6531 67.869 52.1164H71.0729Z" fill="#6A6E81"/>
<path d="M73.5423 52.8643C73.509 52.3736 73.5779 51.8814 73.7447 51.4188C73.9116 50.9562 74.1727 50.5332 74.5116 50.1768C74.8504 49.8204 75.2596 49.5382 75.7132 49.3482C76.1668 49.1582 76.655 49.0645 77.1467 49.073C77.9314 49.0683 78.6891 49.359 79.2693 49.8874L78.4416 50.982C78.1221 50.6617 77.6923 50.4755 77.2401 50.4614C76.0787 50.4614 75.2644 51.4092 75.2644 52.8643C75.2644 54.3194 76.0654 55.2539 77.2001 55.2539C77.7503 55.2271 78.274 55.01 78.6819 54.6398L79.3627 55.7611C78.7116 56.3289 77.877 56.6418 77.0132 56.6422C76.5285 56.6504 76.0477 56.5557 75.6022 56.3645C75.1568 56.1733 74.757 55.8899 74.429 55.533C74.1011 55.1761 73.8525 54.7537 73.6997 54.2937C73.5468 53.8337 73.4932 53.3465 73.5423 52.8643Z" fill="#6A6E81"/>
<path d="M80.4844 47.017C80.4844 46.7479 80.5913 46.4899 80.7815 46.2996C80.9718 46.1093 81.2299 46.0024 81.4989 46.0024C81.768 46.0024 82.0261 46.1093 82.2163 46.2996C82.4066 46.4899 82.5135 46.7479 82.5135 47.017C82.5135 47.2861 82.4066 47.5441 82.2163 47.7344C82.0261 47.9247 81.768 48.0316 81.4989 48.0316C81.2299 48.0316 80.9718 47.9247 80.7815 47.7344C80.5913 47.5441 80.4844 47.2861 80.4844 47.017ZM80.6446 49.2464H82.34V56.4685H80.6446V49.2464Z" fill="#6A6E81"/>
<path d="M83.9684 54.5195C83.9684 52.9843 85.3034 52.17 88.2136 51.8496C88.2136 51.0887 87.8665 50.5146 86.8786 50.5146C86.1531 50.5643 85.4534 50.8037 84.8495 51.2088L84.2354 50.0875C85.1124 49.4949 86.1409 49.166 87.199 49.1396C88.9878 49.1396 89.8689 50.2477 89.8689 52.2634V56.5353H88.5339L88.4138 55.7343C87.8126 56.3175 87.0208 56.6636 86.1844 56.7088C85.8881 56.7397 85.5887 56.7045 85.3077 56.6057C85.0266 56.507 84.7709 56.3472 84.559 56.1379C84.3471 55.9285 84.1842 55.6748 84.0821 55.395C83.98 55.1151 83.9412 54.8161 83.9684 54.5195ZM88.2136 54.5195V52.9042C86.2378 53.1579 85.5437 53.6785 85.5437 54.3994C85.5437 55.1202 85.9842 55.3205 86.5849 55.3205C86.8967 55.3054 87.2021 55.2266 87.4823 55.0888C87.7624 54.951 88.0113 54.7573 88.2136 54.5195Z" fill="#6A6E81"/>
<path d="M91.7778 54.6129V46.0959H93.4465V54.7064C93.4465 55.1069 93.6468 55.2537 93.8203 55.2537H94.0873L94.3009 56.5887C94.0147 56.6936 93.7112 56.7434 93.4065 56.7355C92.2184 56.6421 91.7778 55.8678 91.7778 54.6129Z" fill="#6A6E81"/>
<path d="M95.449 47.017C95.449 46.7479 95.5559 46.4899 95.7461 46.2996C95.9364 46.1093 96.1945 46.0024 96.4635 46.0024C96.7326 46.0024 96.9907 46.1093 97.1809 46.2996C97.3712 46.4899 97.4781 46.7479 97.4781 47.017C97.4781 47.2861 97.3712 47.5441 97.1809 47.7344C96.9907 47.9247 96.7326 48.0316 96.4635 48.0316C96.1945 48.0316 95.9364 47.9247 95.7461 47.7344C95.5559 47.5441 95.449 47.2861 95.449 47.017ZM95.6092 49.2464H97.2912V56.4685H95.6092V49.2464Z" fill="#6A6E81"/>
<path d="M98.5862 55.6407L99.3872 54.5594C99.9385 55.0469 100.641 55.3298 101.376 55.3604C102.164 55.3604 102.524 54.9999 102.524 54.4927C102.524 53.9854 101.75 53.6249 100.976 53.3312C100.201 53.0376 99 52.4368 99 51.2354C99 50.0339 100.001 49.0728 101.67 49.0728C102.546 49.0839 103.392 49.3895 104.073 49.9405L103.299 50.9684C102.846 50.6031 102.291 50.3884 101.71 50.3543C100.989 50.3543 100.642 50.688 100.642 51.1419C100.642 51.5958 101.336 51.9429 102.11 52.2232C103.098 52.5837 104.18 53.0509 104.18 54.4126C104.18 55.7742 103.192 56.6419 101.376 56.6419C100.361 56.6268 99.3795 56.2746 98.5862 55.6407Z" fill="#6A6E81"/>
<path d="M105.461 54.0255V50.5947H104.433V49.2598L105.554 49.1797L105.755 47.2173H107.17V49.1797H108.999V50.5146H107.156V53.9454C107.156 54.7998 107.477 55.2804 108.158 55.2804C108.418 55.2699 108.676 55.2157 108.919 55.1202L109.212 56.3617C108.74 56.5293 108.244 56.6194 107.744 56.6287C106.062 56.642 105.461 55.5874 105.461 54.0255Z" fill="#6A6E81"/>
<path d="M109.466 55.6407L110.267 54.5594C110.818 55.0469 111.521 55.3298 112.256 55.3604C113.044 55.3604 113.404 54.9999 113.404 54.4927C113.404 53.9854 112.63 53.6249 111.869 53.3312C110.908 52.9842 109.88 52.4368 109.88 51.2354C109.88 50.0339 110.881 49.0728 112.55 49.0728C113.426 49.0839 114.272 49.3895 114.953 49.9405L114.178 50.9684C113.727 50.6007 113.171 50.3857 112.59 50.3543C111.869 50.3543 111.522 50.688 111.522 51.1419C111.522 51.5958 112.216 51.9429 112.99 52.2232C113.978 52.5837 115.06 53.0509 115.06 54.4126C115.06 55.7742 114.072 56.6419 112.256 56.6419C111.241 56.6268 110.259 56.2746 109.466 55.6407Z" fill="#6A6E81"/>
<path d="M13.2694 97.7852C13.217 97.2656 13.2745 96.7408 13.438 96.2449C13.6016 95.7489 13.8676 95.2929 14.2188 94.9065C14.57 94.52 14.9986 94.2117 15.4767 94.0016C15.9548 93.7915 16.4717 93.6843 16.994 93.6869C17.4366 93.68 17.8759 93.7641 18.2847 93.934C18.6934 94.104 19.0629 94.3561 19.3702 94.6748L18.6226 95.5825C18.4259 95.3525 18.1825 95.1669 17.9087 95.038C17.6348 94.9091 17.3366 94.8399 17.034 94.835C15.699 94.835 14.6978 95.9163 14.6978 97.6918C14.6978 99.4673 15.5389 100.562 17.1007 100.562C17.5079 100.582 17.9092 100.459 18.2355 100.215V98.5728H16.7403V97.4248H19.4903V100.896C18.8027 101.514 17.9054 101.848 16.9806 101.83C16.4602 101.845 15.9426 101.748 15.463 101.545C14.9835 101.342 14.5531 101.039 14.2011 100.655C13.8491 100.272 13.5838 99.8169 13.423 99.3216C13.2623 98.8264 13.2099 98.3024 13.2694 97.7852Z" fill="#6A6E81"/>
<path d="M21.1056 93.8203H22.4405V100.495H25.7111V101.67H21.0388L21.1056 93.8203Z" fill="#6A6E81"/>
<path d="M26.2451 97.7185C26.2451 95.1821 27.6602 93.7136 29.7026 93.7136C31.7451 93.7136 33.1735 95.2088 33.1735 97.7185C33.1735 100.228 31.7585 101.83 29.7026 101.83C27.6468 101.83 26.2451 100.268 26.2451 97.7185ZM31.7318 97.7185C31.7318 95.9697 30.9441 94.8884 29.7026 94.8884C28.4611 94.8884 27.6735 95.9697 27.6735 97.7185C27.6735 99.4673 28.4611 100.615 29.7026 100.615C30.9441 100.615 31.7318 99.4806 31.7318 97.7185Z" fill="#6A6E81"/>
<path d="M34.6287 93.8203H37.1517C38.767 93.8203 39.9551 94.3143 39.9551 95.756C39.9796 96.1255 39.887 96.4934 39.6905 96.8073C39.494 97.1213 39.2035 97.3653 38.8605 97.5048C39.2966 97.5734 39.6919 97.8009 39.9703 98.1435C40.2488 98.486 40.3908 98.9194 40.369 99.3604C40.369 100.936 39.034 101.67 37.352 101.67H34.6821L34.6287 93.8203ZM37.0316 97.0642C38.1129 97.0642 38.5935 96.6371 38.5935 95.9696C38.5935 95.3021 38.0728 94.9016 37.0449 94.9016H36.0437V97.0642H37.0316ZM37.2051 100.602C38.3532 100.602 39.0073 100.188 39.0073 99.2669C39.0073 98.3458 38.3799 98.0788 37.2051 98.0788H36.0437V100.562L37.2051 100.602Z" fill="#6A6E81"/>
<path d="M43.2257 93.8203H44.8677L47.4175 101.683H45.9624L45.3883 99.5606H42.7184L42.1043 101.683H40.6626L43.2257 93.8203ZM43.0255 98.4659H45.0279L44.7476 97.5048C44.5073 96.6771 44.267 95.7693 44.04 94.8349C43.8264 95.7159 43.5861 96.6104 43.3459 97.5048L43.0255 98.4659Z" fill="#6A6E81"/>
<path d="M48.2717 93.8203H49.6734V100.495H52.9441V101.67H48.2717V93.8203Z" fill="#6A6E81"/>
<path d="M56.4685 93.8203H58.9916C60.6069 93.8203 61.795 94.3143 61.795 95.756C61.8194 96.1255 61.7268 96.4934 61.5303 96.8073C61.3338 97.1213 61.0434 97.3653 60.7003 97.5048C61.1388 97.5736 61.5361 97.803 61.8148 98.1484C62.0936 98.4938 62.234 98.9306 62.2088 99.3737C62.2088 100.949 60.8738 101.683 59.1918 101.683H56.5219L56.4685 93.8203ZM58.8714 97.0642C59.9527 97.0642 60.4333 96.6371 60.4333 95.9696C60.4333 95.3021 59.9127 94.9016 58.8848 94.9016H57.8702V97.0642H58.8714ZM59.045 100.602C60.2064 100.602 60.8472 100.188 60.8472 99.2669C60.8472 98.3458 60.2197 98.0788 59.045 98.0788H57.8702V100.562L59.045 100.602Z" fill="#6A6E81"/>
<path d="M63.4905 98.239V93.8203H64.8254V98.3458C64.8254 100.055 65.4529 100.615 66.414 100.615C67.3752 100.615 68.0827 100.055 68.0827 98.3458V93.8203H69.4177V98.239C69.4177 100.815 68.2696 101.83 66.4541 101.83C64.6385 101.83 63.4905 100.815 63.4905 98.239Z" fill="#6A6E81"/>
<path d="M70.6189 100.669L71.4332 99.7211C71.9842 100.263 72.7167 100.582 73.489 100.616C74.3701 100.616 74.824 100.215 74.824 99.601C74.824 98.9869 74.3167 98.7466 73.6092 98.4529L72.5279 97.9857C72.0782 97.8445 71.6837 97.5669 71.399 97.1913C71.1144 96.8157 70.9537 96.3609 70.9393 95.8898C70.9623 95.567 71.0506 95.2521 71.1989 94.9645C71.3472 94.6768 71.5525 94.4222 71.8021 94.2162C72.0518 94.0103 72.3407 93.8572 72.6513 93.7662C72.962 93.6752 73.2878 93.6484 73.6092 93.6871C74.513 93.6866 75.3808 94.0414 76.0254 94.675L75.3179 95.5694C74.8619 95.1172 74.2512 94.8548 73.6092 94.8352C72.875 94.8352 72.381 95.1956 72.381 95.7697C72.381 96.3437 72.9818 96.6107 73.6225 96.8777L74.6905 97.3182C75.151 97.4496 75.5557 97.7283 75.8426 98.1117C76.1295 98.4951 76.2829 98.9619 76.2791 99.4408C76.2678 99.7922 76.1823 100.137 76.0284 100.453C75.8744 100.77 75.6554 101.05 75.3857 101.275C75.116 101.501 74.8016 101.667 74.4633 101.763C74.1249 101.858 73.7702 101.881 73.4223 101.83C72.3731 101.819 71.3688 101.403 70.6189 100.669Z" fill="#6A6E81"/>
<path d="M77.5876 93.8203H78.9893V101.683H77.5876V93.8203Z" fill="#6A6E81"/>
<path d="M80.8582 93.8203H82.2999L84.7429 98.2524L85.5572 99.921C85.5572 99.1067 85.3836 98.1189 85.3836 97.2511V93.8203H86.7186V101.683H85.3169L82.8739 97.2645L82.0596 95.5958C82.0596 96.4235 82.2332 97.3713 82.2332 98.2657V101.697H80.8982L80.8582 93.8203Z" fill="#6A6E81"/>
<path d="M88.6277 93.8203H93.3668V95.0084H90.0294V97.0108H92.8461V98.1856H90.0294V100.508H93.4469V101.683H88.6277V93.8203Z" fill="#6A6E81"/>
<path d="M94.4346 100.669L95.2489 99.7211C95.7965 100.26 96.5237 100.579 97.2914 100.616C98.1858 100.616 98.6263 100.215 98.6263 99.601C98.6263 98.9869 98.119 98.7466 97.4115 98.4529L96.3302 97.9857C95.887 97.8394 95.5001 97.5593 95.2227 97.1839C94.9454 96.8086 94.7913 96.3564 94.7817 95.8898C94.8046 95.567 94.893 95.2521 95.0413 94.9645C95.1896 94.6768 95.3948 94.4222 95.6445 94.2162C95.8942 94.0103 96.1831 93.8572 96.4937 93.7662C96.8044 93.6752 97.1302 93.6484 97.4516 93.6871C98.3554 93.6866 99.2232 94.0414 99.8678 94.675L99.1603 95.5694C98.7042 95.1172 98.0936 94.8548 97.4516 94.8352C96.704 94.8352 96.2101 95.1956 96.2101 95.7697C96.2101 96.3437 96.8108 96.6107 97.4649 96.8777L98.5329 97.3182C99.0023 97.4519 99.4137 97.7387 99.7015 98.1329C99.9893 98.5272 100.137 99.0063 100.121 99.4942C100.121 100.829 99.0669 101.83 97.2914 101.83C96.7621 101.835 96.2371 101.735 95.7467 101.536C95.2563 101.336 94.8104 101.042 94.4346 100.669Z" fill="#6A6E81"/>
<path d="M100.668 100.669L101.496 99.7211C102.042 100.263 102.77 100.581 103.539 100.616C104.42 100.616 104.874 100.215 104.874 99.601C104.874 98.9869 104.366 98.7466 103.659 98.4529L102.577 97.9857C102.128 97.8445 101.733 97.5669 101.449 97.1913C101.164 96.8157 101.003 96.3609 100.989 95.8898C101.012 95.567 101.1 95.2521 101.248 94.9645C101.397 94.6768 101.602 94.4222 101.852 94.2162C102.101 94.0103 102.39 93.8572 102.701 93.7662C103.012 93.6752 103.337 93.6484 103.659 93.6871C104.559 93.6873 105.422 94.0422 106.062 94.675L105.354 95.5694C104.907 95.12 104.306 94.8575 103.672 94.8352C102.925 94.8352 102.431 95.1956 102.431 95.7697C102.431 96.3437 103.031 96.6107 103.672 96.8777L104.753 97.3182C105.21 97.454 105.611 97.7342 105.895 98.117C106.179 98.4997 106.331 98.9642 106.329 99.4408C106.31 99.7837 106.22 100.119 106.065 100.426C105.91 100.732 105.694 101.004 105.43 101.223C105.165 101.443 104.859 101.605 104.529 101.7C104.199 101.795 103.852 101.822 103.512 101.777C102.457 101.787 101.438 101.391 100.668 100.669Z" fill="#6A6E81"/>
<path d="M111.469 93.8203H113.097L115.66 101.683H114.192L113.578 99.5606H110.908L110.294 101.683H108.906L111.469 93.8203ZM111.268 98.4659H113.271L112.99 97.5048C112.737 96.6771 112.51 95.7693 112.283 94.8349C112.056 95.7159 111.829 96.6104 111.575 97.5048L111.268 98.4659Z" fill="#6A6E81"/>
<path d="M115.74 93.8203H117.169L117.849 97.8252C117.983 98.6662 118.116 99.5072 118.237 100.348L118.811 97.7851L119.772 93.7803H120.987L121.948 97.7851C122.135 98.6128 122.295 99.4672 122.482 100.308C122.602 99.4672 122.735 98.6261 122.856 97.7851L123.55 93.7803H124.885L123.39 101.643H121.654L120.693 97.5048C120.559 96.9041 120.439 96.29 120.346 95.6893C120.239 96.29 120.119 96.9041 119.985 97.5048L119.038 101.643H117.302L115.74 93.8203Z" fill="#6A6E81"/>
<path d="M127.555 93.8203H129.183L131.746 101.683H130.278L129.664 99.5606H126.994L126.38 101.683H124.991L127.555 93.8203ZM127.341 98.4659H129.357L129.076 97.5048C128.823 96.6771 128.596 95.7693 128.369 94.8349C128.155 95.7159 127.928 96.6104 127.675 97.5048L127.341 98.4659Z" fill="#6A6E81"/>
<path d="M132.601 93.8203H135.271C136.899 93.8203 138.154 94.4077 138.154 96.1565C138.187 96.652 138.05 97.144 137.766 97.5515C137.482 97.959 137.068 98.2579 136.592 98.3992L138.461 101.683H136.899L135.204 98.6128H134.003V101.683H132.668L132.601 93.8203ZM135.111 97.5048C136.178 97.5048 136.766 97.0509 136.766 96.1698C136.766 95.2888 136.178 94.955 135.111 94.955H133.989V97.5048H135.111Z" fill="#6A6E81"/>
<path d="M139.596 93.8202H141.692C142.214 93.7633 142.742 93.8257 143.237 94.0027C143.732 94.1797 144.18 94.4667 144.547 94.842C144.915 95.2174 145.193 95.6712 145.359 96.1695C145.526 96.6677 145.577 97.1973 145.51 97.7183C145.51 100.388 144.095 101.723 141.758 101.723H139.583L139.596 93.8202ZM141.598 100.562C143.187 100.562 144.095 99.654 144.095 97.7183C144.095 95.7826 143.187 94.9549 141.598 94.9549H140.984V100.562H141.598Z" fill="#6A6E81"/>
<path d="M146.444 100.669L147.258 99.7211C147.806 100.26 148.533 100.579 149.301 100.616C150.195 100.616 150.636 100.215 150.636 99.601C150.636 98.9869 150.129 98.7466 149.421 98.4529L148.34 97.9857C147.908 97.8289 147.533 97.5446 147.266 97.1703C146.999 96.796 146.852 96.3495 146.845 95.8898C146.868 95.567 146.956 95.2521 147.104 94.9645C147.253 94.6768 147.458 94.4222 147.707 94.2162C147.957 94.0103 148.246 93.8572 148.557 93.7662C148.867 93.6752 149.193 93.6484 149.514 93.6871C150.418 93.6866 151.286 94.0414 151.931 94.675L151.223 95.5694C150.759 95.1367 150.149 94.8937 149.514 94.8886C148.78 94.8886 148.286 95.249 148.286 95.8231C148.286 96.3971 148.887 96.6641 149.528 96.9311L150.596 97.3716C151.056 97.503 151.461 97.7817 151.748 98.1651C152.035 98.5485 152.188 99.0153 152.184 99.4942C152.165 99.8371 152.076 100.172 151.921 100.479C151.766 100.786 151.55 101.057 151.286 101.277C151.021 101.496 150.714 101.658 150.384 101.754C150.054 101.849 149.708 101.875 149.368 101.83C148.828 101.84 148.291 101.743 147.789 101.543C147.287 101.344 146.83 101.047 146.444 100.669Z" fill="#6A6E81"/>
</svg>
