<svg width="48" height="63" viewBox="0 0 48 63" fill="none" xmlns="http://www.w3.org/2000/svg">
    <path d="M41.196 37.995c2.824-3.2 4.613-7.248 5.272-11.484.658-4.236 0-8.567-1.789-12.426-1.789-3.86-4.613-7.249-8.284-9.508C32.724 2.317 28.675 1 24.345 1c-4.33 0-8.471 1.224-12.049 3.577-3.577 2.354-6.495 5.648-8.284 9.508-1.788 3.86-2.353 8.19-1.788 12.426A22.411 22.411 0 0 0 7.59 37.995L1 56.258l10.072-3.2L16.816 62l5.836-16.38c.565 0 1.13.095 1.6.095.565 0 1.13 0 1.6-.095L31.689 62l5.743-8.943 10.072 3.2-6.307-18.262zM16.438 58.611l-4.706-7.342-8.284 2.635 5.271-14.779c3.389 3.389 7.813 5.554 12.52 6.213l-4.8 13.273zm7.908-14.403c-4.142 0-8.19-1.223-11.579-3.483a21.315 21.315 0 0 1-7.72-9.32c-1.6-3.765-1.976-8-1.223-12.049.753-4.047 2.824-7.719 5.742-10.637a21.09 21.09 0 0 1 10.638-5.742c4.047-.847 8.19-.377 12.05 1.224 3.765 1.6 7.06 4.236 9.319 7.719 2.259 3.389 3.483 7.437 3.483 11.579 0 5.553-2.166 10.825-6.12 14.685-3.765 3.765-9.036 6.024-14.59 6.024zm12.708 7.155-4.707 7.342-4.707-13.179c4.707-.659 9.132-2.824 12.52-6.213l5.272 14.78-8.378-2.73z" fill="#FF4521" stroke="#FF4521" stroke-width=".499"/>
    <path d="M24.346 6.083a17.448 17.448 0 0 0-9.602 2.919 17.638 17.638 0 0 0-6.401 7.719c-1.318 3.2-1.695 6.683-.942 9.978.66 3.39 2.354 6.401 4.707 8.849a16.947 16.947 0 0 0 8.849 4.707c3.389.659 6.872.282 9.978-.942 3.2-1.318 5.837-3.483 7.72-6.4a17.447 17.447 0 0 0 2.917-9.603c0-4.612-1.788-8.943-5.083-12.237-3.106-3.2-7.53-4.99-12.143-4.99zm0 33.042c-3.107 0-6.213-.941-8.755-2.636-2.636-1.694-4.613-4.236-5.836-7.06-1.224-2.918-1.507-6.024-.942-9.131.565-3.106 2.071-5.836 4.33-8.096 2.166-2.165 4.99-3.671 8.096-4.33 3.107-.565 6.213-.282 9.131.941 2.919 1.224 5.366 3.201 7.06 5.837 1.695 2.636 2.636 5.648 2.636 8.754 0 4.237-1.694 8.19-4.612 11.203-2.824 2.824-6.872 4.518-11.108 4.518z" fill="#FF4521" stroke="#FF4521" stroke-width=".499"/>
    <path d="m21.688 27.484-.026-.295h-2.294l-.444.062.027.35a5.276 5.276 0 0 0 1.383 3.56 4.957 4.957 0 0 0 3.375 1.604v1.763h1.786v-1.774a5.228 5.228 0 0 0 1.787-.493 5.04 5.04 0 0 0 1.571-1.191 5.17 5.17 0 0 0 .975-1.677 6.12 6.12 0 0 0 .073-3.77 4.004 4.004 0 0 0-.801-1.41 5.222 5.222 0 0 0-2.336-1.364 12.77 12.77 0 0 0-1.269-.359v-5.016c.441.1.834.355 1.11.723.278.368.42.824.406 1.29l.023.298h2.77l-.035-.359a4.942 4.942 0 0 0-.076-.478l-.021-.107a4.47 4.47 0 0 0-1.417-2.678 4.215 4.215 0 0 0-2.758-1.096V13.3H23.71v1.769a5.916 5.916 0 0 0-1.639.443 4.73 4.73 0 0 0-1.493 1.024 4.509 4.509 0 0 0-.96 1.521 5.387 5.387 0 0 0-.338 1.938 4.301 4.301 0 0 0 .543 2.23c.38.677.934 1.231 1.602 1.6a7.82 7.82 0 0 0 2.287.89v5.642a2.8 2.8 0 0 1-1.49-1.077 2.953 2.953 0 0 1-.534-1.796zm.887-6.037a1.781 1.781 0 0 1-.403-.644 2.834 2.834 0 0 1-.148-.985 2.232 2.232 0 0 1 .4-1.514 2.106 2.106 0 0 1 1.283-.843v4.596l-.201-.067a2.54 2.54 0 0 1-.288-.102 2.179 2.179 0 0 1-.642-.448l-.001.007zm2.924 8.93v-5.22c.274.083.541.19.799.318.256.12.487.29.679.503.155.185.267.405.325.643.072.307.106.623.102.939A2.547 2.547 0 0 1 27 29.358c-.354.523-.89.886-1.495 1.013l-.006.006z" fill="#FF4521"/>
</svg>
