<svg width="165" height="104" viewBox="0 0 165 104" fill="none" xmlns="http://www.w3.org/2000/svg">
<path d="M59.8849 80.0332C64.6853 75.2594 67.3788 72.3792 67.3788 69.8057C67.4244 69.3957 67.3797 68.9806 67.2478 68.5897C67.1159 68.1989 66.9001 67.8416 66.6155 67.543C66.3308 67.2443 65.9843 67.0116 65.6002 66.8612C65.216 66.7108 64.8037 66.6462 64.3919 66.6721C63.7199 66.7326 63.0687 66.9365 62.4821 67.27C61.8956 67.6036 61.3873 68.059 60.9917 68.6056L59.8182 67.4321C60.3909 66.6932 61.1216 66.0918 61.9568 65.6718C62.792 65.2519 63.7106 65.0242 64.6453 65.0053C65.2783 64.9543 65.9148 65.04 66.5117 65.2567C67.1086 65.4735 67.6519 65.816 68.1047 66.2613C68.5575 66.7065 68.9093 67.2439 69.1361 67.8371C69.3628 68.4302 69.4593 69.0652 69.419 69.699C69.419 72.6992 66.7521 75.6861 62.9251 79.6331C63.7919 79.5531 64.7653 79.4865 65.592 79.4865H70.2191V81.2599H59.9249L59.8849 80.0332Z" fill="#6A6E81"/>
<path d="M71.7927 73.2325C71.7927 67.8987 73.7129 65.0051 76.9132 65.0051C80.1134 65.0051 82.0202 67.8854 82.0202 73.2325C82.0202 78.5796 80.0868 81.5531 76.9132 81.5531C73.7396 81.5531 71.7927 78.5796 71.7927 73.2325ZM80.0201 73.2325C80.0201 68.5521 78.7667 66.6586 76.9132 66.6586C75.0597 66.6586 73.7929 68.5521 73.7929 73.2325C73.7929 77.9128 75.033 79.8997 76.9132 79.8997C78.7933 79.8997 80.0201 77.9128 80.0201 73.2325Z" fill="#6A6E81"/>
<path d="M83.5002 80.033C88.3006 75.2593 90.9942 72.3791 90.9942 69.8055C91.0406 69.3919 90.9951 68.9732 90.8609 68.5792C90.7268 68.1853 90.5073 67.8258 90.2181 67.5264C89.929 67.2271 89.5773 66.9953 89.1882 66.8476C88.7991 66.6999 88.3822 66.6399 87.9673 66.672C87.2952 66.7325 86.644 66.9364 86.0574 67.2699C85.4709 67.6035 84.9626 68.0589 84.567 68.6054L83.3936 67.432C83.9649 66.6917 84.6953 66.0892 85.5309 65.6691C86.3664 65.2491 87.2856 65.0221 88.2206 65.0052C88.8536 64.9541 89.4901 65.0399 90.0871 65.2566C90.684 65.4733 91.2272 65.8159 91.68 66.2611C92.1328 66.7064 92.4846 67.2438 92.7114 67.837C92.9381 68.4301 93.0347 69.0651 92.9944 69.6989C92.9944 72.6991 90.3274 75.686 86.5005 79.633C87.3672 79.553 88.3406 79.4863 89.1673 79.4863H93.7944V81.2598H83.5002V80.033Z" fill="#6A6E81"/>
<path d="M97.1067 80.033C101.907 75.2593 104.601 72.3791 104.601 69.8055C104.647 69.3919 104.602 68.9732 104.467 68.5792C104.333 68.1853 104.114 67.8258 103.825 67.5264C103.535 67.2271 103.184 66.9953 102.795 66.8476C102.406 66.6999 101.989 66.6399 101.574 66.672C100.902 66.7325 100.25 66.9364 99.6639 67.2699C99.0773 67.6035 98.5691 68.0589 98.1734 68.6054L97 67.432C97.5713 66.6917 98.3018 66.0892 99.1373 65.6691C99.9728 65.2491 100.892 65.0221 101.827 65.0052C102.46 64.9541 103.097 65.0399 103.693 65.2566C104.29 65.4733 104.834 65.8159 105.286 66.2611C105.739 66.7064 106.091 67.2438 106.318 67.837C106.545 68.4301 106.641 69.0651 106.601 69.6989C106.601 72.6991 103.934 75.686 100.107 79.633C100.974 79.553 101.947 79.4863 102.774 79.4863H107.401V81.2598H97.1067V80.033Z" fill="#6A6E81"/>
<path fill-rule="evenodd" clip-rule="evenodd" d="M132.077 76.673C132.854 77.6831 133.87 78.4831 135.035 79.0002C136.199 79.5172 137.475 79.7348 138.745 79.6332C141.418 79.515 144.033 78.819 146.412 77.593C142.318 76.9663 143.305 76.1263 140.438 75.1662C138.602 74.7297 136.68 74.8175 134.891 75.4195C136.972 74.7124 138.974 73.7919 140.865 72.6726C141.769 73.375 142.822 73.8604 143.943 74.0916C145.064 74.3227 146.224 74.2935 147.332 74.0061C149.758 73.3464 152.026 72.2034 153.999 70.6458C150.172 70.9125 150.932 69.9791 148.159 69.7257C146.785 69.6721 145.417 69.932 144.158 70.4858C145.537 69.4143 146.825 68.2326 148.012 66.9522C149.021 67.4035 150.122 67.6086 151.226 67.5506C152.329 67.4927 153.403 67.1733 154.359 66.6188C156.5 65.4304 158.382 63.8254 159.893 61.8984C156.346 63.0452 156.879 61.8984 154.212 62.3651C152.734 62.7056 151.361 63.4013 150.212 64.392C151.384 62.8721 152.428 61.2575 153.332 59.5649C154.44 59.7645 155.579 59.7046 156.659 59.3899C157.74 59.0752 158.732 58.5144 159.56 57.7514C161.465 56.0776 163.019 54.0426 164.133 51.7643C160.84 53.7111 161.146 52.5243 158.573 53.5244C157.007 54.301 155.656 55.4503 154.639 56.8714C155.46 55.0116 156.134 53.0899 156.653 51.1242C157.721 51.0261 158.753 50.6917 159.676 50.1451C160.598 49.5985 161.388 48.8534 161.986 47.964C163.414 45.958 164.437 43.6935 165 41.2968C162.333 43.9636 162.333 42.7102 160.146 44.257C158.885 45.2858 157.895 46.6092 157.266 48.1107C157.612 46.1682 157.813 44.2025 157.866 42.2302C158.843 41.9457 159.745 41.4476 160.506 40.7719C161.267 40.0962 161.868 39.2598 162.267 38.3232C163.216 36.2204 163.768 33.9598 163.893 31.656C161.933 34.5229 161.773 33.4561 160.066 35.2696C158.932 36.7264 158.184 38.4466 157.893 40.27C157.856 38.084 157.651 35.9041 157.279 33.7495C158.189 33.3037 158.983 32.6544 159.6 31.8519C160.218 31.0495 160.642 30.1154 160.84 29.1224C161.308 27.0046 161.344 24.8141 160.946 22.6819C159.613 25.7488 159.2 24.7888 157.879 26.8289C157.089 28.3246 156.721 30.0069 156.813 31.696C156.679 31.0959 156.533 30.5092 156.373 29.9092C156.039 28.6957 155.653 27.5223 155.226 26.3756C155.953 25.7849 156.542 25.0416 156.949 24.1982C157.357 23.3548 157.575 22.432 157.586 21.4952C157.629 19.4777 157.261 17.4726 156.506 15.6013C155.866 18.6816 155.333 17.8815 154.519 20.015C154.105 21.3921 154.054 22.853 154.372 24.2554C153.718 22.7758 152.975 21.3375 152.146 19.9484C152.641 19.2919 153 18.5437 153.204 17.7471C153.408 16.9506 153.451 16.1215 153.332 15.308C153.094 13.4738 152.525 11.6982 151.652 10.0676C151.559 12.9345 151.012 12.2811 150.639 14.3079C150.501 15.6953 150.683 17.0958 151.172 18.4016C150.265 17.0211 149.267 15.7025 148.185 14.4546C148.589 13.8197 148.858 13.1085 148.975 12.3652C149.092 11.6219 149.055 10.8625 148.865 10.1342C148.468 8.54005 147.776 7.03413 146.825 5.69387C146.999 8.25408 146.439 7.74737 146.292 9.60086C146.305 10.9758 146.667 12.3249 147.345 13.5212C146.308 12.4014 145.199 11.3502 144.025 10.3743C144.347 9.76192 144.531 9.08617 144.564 8.39487C144.596 7.70357 144.476 7.01363 144.212 6.37393C143.679 5.0501 142.864 3.85801 141.825 2.88031C142.265 5.12049 141.731 4.7738 141.731 6.45393C141.861 7.63417 142.324 8.75325 143.065 9.68086C141.957 8.81455 140.799 8.01315 139.598 7.28067C139.69 6.70181 139.666 6.11056 139.529 5.54079C139.392 4.97103 139.143 4.43397 138.798 3.9604C138.053 2.91131 137.122 2.00746 136.051 1.29351C136.944 3.10699 136.398 2.89364 136.838 4.28042C137.229 5.22212 137.831 6.06148 138.598 6.73396C137.499 6.11366 136.364 5.56146 135.198 5.08049C135.221 4.52955 135.129 3.97981 134.93 3.4658C134.73 2.95179 134.426 2.48461 134.038 2.09358C133.199 1.22683 132.185 0.549401 131.064 0.10675C132.144 1.70688 131.571 1.64021 132.171 2.92031C132.539 3.59715 133.077 4.16686 133.731 4.57378C133.441 4.51377 133.141 4.51377 132.851 4.57378C132.034 4.84017 131.201 5.05396 130.357 5.21383C130.98 5.80043 131.757 6.1981 132.597 6.36059C133.069 6.45619 133.557 6.43835 134.021 6.30853C134.484 6.17871 134.911 5.94062 135.264 5.61387C136.291 6.0539 137.291 6.53394 138.251 7.05398C137.825 6.89723 137.362 6.86486 136.918 6.96064C135.584 7.28067 135.931 7.53402 134.344 7.85405C135.068 8.42059 135.937 8.7718 136.851 8.86746C137.364 8.92221 137.883 8.85265 138.363 8.66465C138.844 8.47666 139.272 8.17575 139.611 7.78738C140.813 8.50289 141.966 9.29573 143.065 10.1609C142.325 9.62393 141.432 9.3388 140.518 9.3475C138.878 9.42751 139.185 9.7342 137.224 9.76087C138.117 10.4773 139.161 10.9791 140.278 11.2277C140.862 11.3823 141.472 11.4171 142.07 11.3301C142.668 11.243 143.242 11.0358 143.758 10.7209C144.806 11.6067 145.795 12.5599 146.719 13.5745C146.075 12.9982 145.26 12.6512 144.398 12.5878C142.505 12.4944 142.865 12.9345 140.518 12.7344C141.394 13.7676 142.518 14.5613 143.785 15.0413C144.427 15.302 145.119 15.4169 145.811 15.3777C146.502 15.3385 147.177 15.1462 147.785 14.8146C149.065 16.3738 150.211 18.0375 151.212 19.7884C150.561 18.6561 149.517 17.8021 148.279 17.3882C146.332 16.8681 146.639 17.3882 144.278 16.6814C145.017 17.9108 146.036 18.948 147.252 19.7083C147.877 20.1236 148.585 20.3972 149.327 20.5101C150.068 20.623 150.826 20.5723 151.546 20.3617C152.402 21.9005 153.164 23.4903 153.826 25.1221C153.265 24.1592 152.409 23.4019 151.386 22.9619C149.425 22.1752 149.692 22.7486 147.292 21.6285C147.957 22.9927 148.923 24.1875 150.119 25.1221C150.7 25.6092 151.375 25.9727 152.102 26.1905C152.829 26.4083 153.592 26.4758 154.346 26.3889C154.728 27.429 155.088 28.5091 155.426 29.6291C155.546 30.0025 155.653 30.3892 155.759 30.7759C155.238 30.0586 154.54 29.4888 153.732 29.1224C151.692 28.0824 151.932 28.7357 149.425 27.3756C150.047 28.899 150.999 30.2654 152.212 31.376C153.282 32.4371 154.707 33.0642 156.213 33.1361C156.56 34.9399 156.77 36.7676 156.839 38.6032C156.431 37.7136 155.824 36.9291 155.066 36.3097C153.052 34.7096 153.226 35.4563 150.799 33.3895C151.228 35.1758 152.028 36.8521 153.146 38.3099C154.077 39.6263 155.404 40.6118 156.933 41.1234C156.875 43.2722 156.644 45.4127 156.239 47.5239C156.026 46.2565 155.478 45.0689 154.653 44.0837C152.812 41.9368 152.812 42.7502 150.652 40.0833C150.717 42.1069 151.213 44.0935 152.106 45.9105C152.855 47.5885 154.153 48.9617 155.786 49.8041C155.261 51.8858 154.575 53.9233 153.732 55.898C153.714 54.6175 153.364 53.3637 152.719 52.2577C151.199 49.6974 151.052 50.5509 149.265 47.3239C148.972 49.4135 149.132 51.5417 149.732 53.5644C150.192 55.3722 151.226 56.9818 152.679 58.1515C151.602 60.2574 150.33 62.2575 148.879 64.1253C149.248 62.7404 149.216 61.2788 148.785 59.9116C147.852 57.1114 147.532 57.8981 146.492 54.4045C145.772 56.3323 145.477 58.3926 145.625 60.445C145.696 62.3502 146.394 64.1786 147.612 65.6454C146.023 67.4426 144.238 69.0571 142.292 70.4591C142.974 69.0044 143.237 67.3882 143.052 65.7921C142.638 62.7385 142.198 63.4852 141.798 59.6849C140.755 61.5454 140.11 63.6025 139.905 65.7254C139.64 67.6797 139.985 69.6679 140.891 71.4192C139.068 72.61 137.112 73.5855 135.064 74.3261L134.344 74.6461C135.477 73.4662 136.182 71.9402 136.344 70.3125C136.598 67.1522 135.918 67.7389 136.344 63.8586C134.723 65.3123 133.486 67.1447 132.744 69.1924C131.918 71.1922 131.876 73.4295 132.624 75.4595C128.944 77.1263 122.237 80.2866 120.77 81.6067C119.89 82.3934 120.57 83.5802 121.116 83.1535C122.197 82.3001 125.117 80.4866 126.277 79.7266C128.146 78.5905 130.083 77.5707 132.077 76.673V76.673Z" fill="#6A6E81"/>
<path fill-rule="evenodd" clip-rule="evenodd" d="M38.7365 79.6731C39.8699 80.4465 42.8168 82.2467 43.8969 83.1001C44.4303 83.5268 45.1237 82.34 44.2436 81.54C42.7635 80.2065 36.0696 77.0729 32.3893 75.4061C33.1309 73.3704 33.0881 71.1315 32.2693 69.1256C31.5276 67.0779 30.2907 65.2456 28.669 63.7919C29.1224 67.6722 28.429 67.0988 28.669 70.259C28.833 71.8799 29.5321 73.3999 30.6559 74.5794L29.9491 74.2727C27.8837 73.5389 25.9103 72.5679 24.0686 71.3791C24.9864 69.6363 25.3361 67.6501 25.0687 65.6987C24.8566 63.577 24.2122 61.5213 23.1752 59.6582C22.7752 63.4585 22.3352 62.7118 21.9085 65.7653C21.7352 67.3581 22.0027 68.9679 22.6819 70.4191C20.75 69.0135 18.9831 67.3942 17.4147 65.592C18.6446 64.126 19.3487 62.2907 19.4149 60.3782C19.5657 58.329 19.2652 56.2716 18.5348 54.3511C17.4947 57.8447 17.2014 57.018 16.2547 59.8449C15.8244 61.2167 15.792 62.6824 16.1613 64.0719C14.7192 62.2173 13.4557 60.2305 12.3877 58.1381C13.8459 56.9731 14.8812 55.3615 15.3346 53.551C15.9353 51.5329 16.0945 49.409 15.8013 47.3238C14.0145 50.5508 13.8678 49.6974 12.3477 52.2442C11.7023 53.3503 11.3532 54.6041 11.3343 55.8845C10.4822 53.8972 9.78672 51.8464 9.25409 49.7507C10.8857 48.8998 12.1824 47.5232 12.9344 45.8437C13.8277 44.0315 14.3232 42.0493 14.3878 40.0299C12.1877 42.6968 12.1877 41.9367 10.3875 44.0302C9.57121 45.0197 9.02868 46.2059 8.81407 47.4705C8.41055 45.3592 8.17864 43.2187 8.12066 41.07C9.63521 40.551 10.9468 39.5661 11.8676 38.2564C12.982 36.7915 13.7811 35.1116 14.2145 33.3227C11.7876 35.3895 11.9477 34.6562 9.9475 36.2563C9.17481 36.8842 8.55855 37.683 8.14735 38.5898C8.21548 36.754 8.42501 34.9263 8.77407 33.1227C10.2793 33.0508 11.7044 32.4237 12.7744 31.3626C13.9899 30.2563 14.9382 28.8885 15.5479 27.3622C13.0544 28.6957 13.2944 28.0823 11.2409 29.109C10.4507 29.5226 9.77672 30.1278 9.28078 30.8692C9.38746 30.4825 9.49413 30.1091 9.61414 29.7224C9.9475 28.6157 10.3075 27.5356 10.6942 26.4955C11.4525 26.5725 12.2184 26.494 12.9453 26.2647C13.6721 26.0354 14.3444 25.6602 14.9212 25.162C16.0951 24.2448 17.0514 23.079 17.7215 21.7484C15.3213 22.8019 15.5879 22.2151 13.6278 23.0019C12.6097 23.4368 11.7522 24.1778 11.1742 25.122C11.8383 23.4672 12.6043 21.8551 13.4678 20.295C14.1875 20.5083 14.9454 20.5604 15.6875 20.4475C16.4296 20.3345 17.1378 20.0594 17.7615 19.6416C18.9775 18.8812 19.9964 17.844 20.735 16.6147C18.3615 17.3347 18.6549 16.8147 16.7347 17.3214C15.496 17.7353 14.4521 18.5894 13.8011 19.7216C14.7999 17.9776 15.9464 16.3226 17.2281 14.7745C17.8474 15.1105 18.5338 15.304 19.2374 15.3409C19.941 15.3778 20.644 15.2572 21.2951 14.9879C22.5651 14.5137 23.6939 13.7244 24.5754 12.6944C22.2152 12.8944 22.5885 12.441 20.6817 12.5344C19.8005 12.5909 18.9641 12.9433 18.3082 13.5344C19.2283 12.5165 20.2174 11.5631 21.2684 10.6809C21.7853 10.9935 22.36 11.1983 22.9581 11.2831C23.5562 11.3679 24.1653 11.3309 24.7487 11.1742C25.8674 10.9313 26.9134 10.4288 27.8023 9.70746C25.7888 9.70746 26.1488 9.3741 24.522 9.30742C23.6051 9.29386 22.7079 9.57424 21.9618 10.1075C23.0533 9.26156 24.198 8.48657 25.3887 7.7873C25.7324 8.16846 26.1622 8.46179 26.6425 8.64274C27.1227 8.82369 27.6393 8.88701 28.149 8.82738C29.071 8.72787 29.9453 8.36701 30.6692 7.7873C29.0557 7.46727 29.3357 7.21392 28.0823 6.90723C27.6401 6.79681 27.1747 6.82474 26.7488 6.98724C27.7089 6.46719 28.6957 5.98715 29.7224 5.54712C30.0766 5.87347 30.5023 6.11224 30.9655 6.24424C31.4286 6.37624 31.9163 6.39779 32.3893 6.30718C33.2435 6.13817 34.0306 5.72607 34.6562 5.12042C33.8161 4.94707 32.976 4.73372 32.1626 4.48036C31.873 4.41366 31.5721 4.41366 31.2826 4.48036C31.9101 4.0579 32.4268 3.49082 32.7893 2.8269C33.376 1.49345 32.7893 1.60013 33.8828 0C32.7553 0.427549 31.7323 1.09134 30.8825 1.94682C30.4848 2.35357 30.1763 2.83874 29.9765 3.37138C29.7768 3.90403 29.6902 4.47246 29.7224 5.04041C28.5586 5.52679 27.4234 6.07884 26.3222 6.69388C27.0888 6.02141 27.6909 5.18204 28.0823 4.24034C28.5223 2.9069 27.9756 3.08025 28.869 1.25344C27.8026 1.96796 26.8761 2.87184 26.1355 3.92032C25.7855 4.39424 25.5334 4.93305 25.3937 5.50537C25.2541 6.0777 25.2297 6.67209 25.3221 7.25392C24.1183 7.97721 22.9604 8.77436 21.8551 9.64078C22.5901 8.70951 23.0517 7.59229 23.1886 6.41385C23.1886 4.74705 22.6685 5.08041 23.1086 2.85357C22.0716 3.83346 21.2576 5.02495 20.7217 6.34718C20.4577 6.98689 20.3375 7.67682 20.3698 8.36812C20.402 9.05942 20.5859 9.73517 20.9084 10.3475C19.7828 11.3398 18.7185 12.3997 17.7215 13.5211C18.3994 12.3248 18.7619 10.9757 18.7749 9.60078C18.6282 7.7473 18.0682 8.26734 18.2415 5.6938C17.2908 7.0339 16.5988 8.53987 16.2013 10.1342C16.0112 10.8623 15.9735 11.6219 16.0905 12.3653C16.2075 13.1087 16.4768 13.82 16.8814 14.4545C15.7777 15.7202 14.7577 17.0565 13.8278 18.4548C14.3187 17.1497 14.4968 15.7476 14.3478 14.3612C13.9878 12.3343 13.4411 13.0277 13.3344 10.1342C12.4679 11.7664 11.9032 13.5417 11.6676 15.3746C11.5482 16.186 11.5916 17.0131 11.7954 17.8075C11.9992 18.602 12.3592 19.3479 12.8544 20.0016C12.028 21.3968 11.2844 22.8394 10.6275 24.322C10.9356 22.9179 10.8805 21.4585 10.4675 20.0816C9.65413 17.9348 9.1341 18.7482 8.48071 15.6546C7.72352 17.5249 7.36034 19.5314 7.41393 21.5484C7.42311 22.4706 7.63447 23.3796 8.03304 24.2114C8.43162 25.0431 9.00773 25.7772 9.7208 26.3621C9.2941 27.5089 8.90742 28.6823 8.57406 29.8958C8.41405 30.4958 8.26735 31.0825 8.134 31.6826C8.226 29.9935 7.85729 28.3112 7.06727 26.8155C5.73382 24.7753 5.33377 25.7354 4.00033 22.6685C3.60226 24.8007 3.63857 26.9912 4.10702 29.109C4.31807 30.0975 4.75377 31.0242 5.3804 31.8173C6.00703 32.6105 6.80777 33.2487 7.72064 33.6827C7.34943 35.8373 7.14438 38.0173 7.10727 40.2033C6.81607 38.3798 6.06837 36.6597 4.93375 35.2029C3.22695 33.3894 3.06694 34.4695 1.10678 31.5892C1.2393 33.892 1.79058 36.1514 2.73358 38.2564C3.13112 39.1911 3.73067 40.0262 4.48918 40.7017C5.24768 41.3772 6.14629 41.8764 7.12057 42.1634C7.18273 44.1365 7.39222 46.1021 7.74729 48.0439C7.10484 46.5464 6.11258 45.2249 4.85375 44.1903C2.65357 42.6435 2.68022 43.8436 0 41.23C0.562804 43.6268 1.58634 45.8912 3.01359 47.8972C3.62084 48.7936 4.42105 49.5427 5.35554 50.0896C6.29002 50.6364 7.33506 50.9672 8.41401 51.0575C8.93086 53.0238 9.60418 54.9457 10.4275 56.8046C9.41861 55.3793 8.06536 54.2325 6.49385 53.471C3.92031 52.4709 4.22703 53.6577 0.933425 51.6975C2.05212 53.9729 3.60598 56.007 5.50712 57.6847C6.33489 58.4468 7.32778 59.0071 8.40807 59.3217C9.48837 59.6363 10.6268 59.6967 11.7343 59.4982C12.639 61.1908 13.6827 62.8054 14.8546 64.3252C13.7056 63.3346 12.3326 62.6389 10.8542 62.2984C8.18735 61.8984 8.72072 62.9785 5.17376 61.8317C6.68487 63.7587 8.56642 65.3637 10.7075 66.5521C11.667 67.1027 12.7421 67.4209 13.8466 67.4811C14.9512 67.5413 16.0545 67.3419 17.0681 66.8988C18.2488 68.1885 19.5332 69.3792 20.9084 70.4591C19.65 69.9053 18.2819 69.6453 16.9081 69.699C14.1345 69.9524 14.9079 70.8991 11.0676 70.6191C13.0372 72.1827 15.3063 73.3263 17.7348 73.9793C18.8408 74.2666 19.998 74.2958 21.1171 74.0646C22.2361 73.8334 23.2871 73.348 24.1887 72.6459C26.0798 73.7651 28.0818 74.6857 30.1624 75.3928C28.3737 74.79 26.4516 74.7022 24.6154 75.1394C21.7351 76.0995 22.7352 76.9396 18.6415 77.5663C21.0205 78.7906 23.6359 79.4866 26.3088 79.6065C27.5788 79.708 28.8541 79.4904 30.0185 78.9734C31.183 78.4564 32.1996 77.6564 32.976 76.6462C34.9559 77.5372 36.8796 78.548 38.7365 79.6731V79.6731Z" fill="#6A6E81"/>
<path d="M59.9052 30V21.938H57.1647V20.517H64.3277V21.938H61.5872V30H59.9052ZM65.4717 30V19.763H67.1392V22.402L67.0812 23.7795C67.3809 23.4992 67.7096 23.2527 68.0672 23.04C68.4346 22.8177 68.8647 22.7065 69.3577 22.7065C70.1214 22.7065 70.6772 22.953 71.0252 23.446C71.3732 23.9293 71.5472 24.6253 71.5472 25.534V30H69.8797V25.7515C69.8797 25.1618 69.7927 24.7462 69.6187 24.5045C69.4447 24.2628 69.1596 24.142 68.7632 24.142C68.4539 24.142 68.1784 24.2193 67.9367 24.374C67.7047 24.519 67.4389 24.7365 67.1392 25.0265V30H65.4717ZM76.3122 30.174C75.8192 30.174 75.36 30.0918 74.9347 29.9275C74.5093 29.7535 74.1372 29.507 73.8182 29.188C73.4992 28.869 73.2478 28.4823 73.0642 28.028C72.8902 27.564 72.8032 27.0372 72.8032 26.4475C72.8032 25.8675 72.895 25.3455 73.0787 24.8815C73.2623 24.4175 73.504 24.026 73.8037 23.707C74.113 23.388 74.4658 23.1415 74.8622 22.9675C75.2585 22.7935 75.6645 22.7065 76.0802 22.7065C76.5635 22.7065 76.9888 22.7887 77.3562 22.953C77.7235 23.1173 78.028 23.3493 78.2697 23.649C78.521 23.9487 78.7095 24.3063 78.8352 24.722C78.9608 25.1377 79.0237 25.592 79.0237 26.085C79.0237 26.2493 79.014 26.404 78.9947 26.549C78.985 26.694 78.9705 26.81 78.9512 26.897H74.4272C74.5045 27.535 74.7268 28.028 75.0942 28.376C75.4712 28.7143 75.9497 28.8835 76.5297 28.8835C76.839 28.8835 77.1242 28.84 77.3852 28.753C77.6558 28.6563 77.9217 28.5258 78.1827 28.3615L78.7482 29.4055C78.4098 29.6278 78.0328 29.8115 77.6172 29.9565C77.2015 30.1015 76.7665 30.174 76.3122 30.174ZM74.4127 25.766H77.5737C77.5737 25.215 77.4528 24.7848 77.2112 24.4755C76.9792 24.1565 76.6167 23.997 76.1237 23.997C75.6983 23.997 75.3262 24.1468 75.0072 24.4465C74.6882 24.7462 74.49 25.186 74.4127 25.766ZM83.0841 30V20.517H86.1146C86.6076 20.517 87.0571 20.5605 87.4631 20.6475C87.8788 20.7248 88.2365 20.8553 88.5361 21.039C88.8455 21.213 89.0823 21.4498 89.2466 21.7495C89.4206 22.0492 89.5076 22.4165 89.5076 22.8515C89.5076 23.3058 89.3916 23.7263 89.1596 24.113C88.9276 24.4997 88.6038 24.7655 88.1881 24.9105V24.9685C88.7101 25.0845 89.1403 25.331 89.4786 25.708C89.8266 26.0753 90.0006 26.578 90.0006 27.216C90.0006 27.6897 89.9088 28.1005 89.7251 28.4485C89.5415 28.7965 89.2853 29.0865 88.9566 29.3185C88.6376 29.5505 88.2558 29.7245 87.8111 29.8405C87.3665 29.9468 86.8831 30 86.3611 30H83.0841ZM84.7661 24.432H85.9696C86.6366 24.432 87.1151 24.3112 87.4051 24.0695C87.7048 23.8278 87.8546 23.504 87.8546 23.098C87.8546 22.634 87.7 22.3053 87.3906 22.112C87.0813 21.9187 86.6173 21.822 85.9986 21.822H84.7661V24.432ZM84.7661 28.695H86.1871C86.8831 28.695 87.4196 28.5693 87.7966 28.318C88.1736 28.057 88.3621 27.6607 88.3621 27.129C88.3621 26.6263 88.1785 26.2638 87.8111 26.0415C87.4438 25.8095 86.9025 25.6935 86.1871 25.6935H84.7661V28.695ZM94.346 30.174C93.853 30.174 93.3938 30.0918 92.9685 29.9275C92.5432 29.7535 92.171 29.507 91.852 29.188C91.533 28.869 91.2817 28.4823 91.098 28.028C90.924 27.564 90.837 27.0372 90.837 26.4475C90.837 25.8675 90.9288 25.3455 91.1125 24.8815C91.2962 24.4175 91.5378 24.026 91.8375 23.707C92.1468 23.388 92.4997 23.1415 92.896 22.9675C93.2923 22.7935 93.6983 22.7065 94.114 22.7065C94.5973 22.7065 95.0227 22.7887 95.39 22.953C95.7573 23.1173 96.0618 23.3493 96.3035 23.649C96.5548 23.9487 96.7433 24.3063 96.869 24.722C96.9947 25.1377 97.0575 25.592 97.0575 26.085C97.0575 26.2493 97.0478 26.404 97.0285 26.549C97.0188 26.694 97.0043 26.81 96.985 26.897H92.461C92.5383 27.535 92.7607 28.028 93.128 28.376C93.505 28.7143 93.9835 28.8835 94.5635 28.8835C94.8728 28.8835 95.158 28.84 95.419 28.753C95.6897 28.6563 95.9555 28.5258 96.2165 28.3615L96.782 29.4055C96.4437 29.6278 96.0667 29.8115 95.651 29.9565C95.2353 30.1015 94.8003 30.174 94.346 30.174ZM92.4465 25.766H95.6075C95.6075 25.215 95.4867 24.7848 95.245 24.4755C95.013 24.1565 94.6505 23.997 94.1575 23.997C93.7322 23.997 93.36 24.1468 93.041 24.4465C92.722 24.7462 92.5238 25.186 92.4465 25.766ZM100.347 30.174C99.8536 30.174 99.3654 30.0822 98.8821 29.8985C98.4084 29.7052 97.9976 29.4683 97.6496 29.188L98.4326 28.115C98.7516 28.3663 99.0658 28.5645 99.3751 28.7095C99.6941 28.8448 100.037 28.9125 100.405 28.9125C100.791 28.9125 101.076 28.8352 101.26 28.6805C101.444 28.5162 101.536 28.3083 101.536 28.057C101.536 27.912 101.492 27.7863 101.405 27.68C101.318 27.564 101.202 27.4625 101.057 27.3755C100.912 27.2885 100.748 27.2112 100.564 27.1435C100.38 27.0662 100.197 26.9888 100.013 26.9115C99.7811 26.8245 99.5443 26.723 99.3026 26.607C99.0609 26.491 98.8434 26.3508 98.6501 26.1865C98.4664 26.0222 98.3118 25.8337 98.1861 25.621C98.0701 25.3987 98.0121 25.1377 98.0121 24.838C98.0121 24.2097 98.2441 23.6973 98.7081 23.301C99.1721 22.9047 99.8053 22.7065 100.608 22.7065C101.101 22.7065 101.545 22.7935 101.942 22.9675C102.338 23.1415 102.681 23.3397 102.971 23.562L102.203 24.577C101.951 24.3933 101.695 24.2483 101.434 24.142C101.183 24.026 100.917 23.968 100.637 23.968C100.279 23.968 100.013 24.0453 99.8391 24.2C99.6748 24.345 99.5926 24.5287 99.5926 24.751C99.5926 24.896 99.6313 25.0217 99.7086 25.128C99.7956 25.2247 99.9068 25.3117 100.042 25.389C100.177 25.4663 100.332 25.5388 100.506 25.6065C100.69 25.6742 100.878 25.7418 101.072 25.8095C101.313 25.8965 101.555 25.998 101.797 26.114C102.038 26.2203 102.256 26.3557 102.449 26.52C102.652 26.6843 102.812 26.8873 102.928 27.129C103.053 27.361 103.116 27.6413 103.116 27.97C103.116 28.2793 103.053 28.5693 102.928 28.84C102.812 29.101 102.638 29.333 102.406 29.536C102.174 29.7293 101.884 29.884 101.536 30C101.188 30.116 100.791 30.174 100.347 30.174ZM106.54 30.174C106.124 30.174 105.772 30.1112 105.482 29.9855C105.201 29.8598 104.969 29.6858 104.786 29.4635C104.612 29.2315 104.481 28.9608 104.394 28.6515C104.317 28.3325 104.278 27.9797 104.278 27.593V24.2H103.263V22.953L104.365 22.8805L104.568 20.9375H105.96V22.8805H107.773V24.2H105.96V27.593C105.96 28.4243 106.294 28.84 106.961 28.84C107.086 28.84 107.212 28.8255 107.338 28.7965C107.473 28.7675 107.594 28.7288 107.7 28.6805L107.99 29.913C107.797 29.9807 107.574 30.0387 107.323 30.087C107.081 30.145 106.82 30.174 106.54 30.174ZM20.7874 48V38.517H26.5004V39.938H22.4694V42.3595H25.8769V43.7805H22.4694V46.579H26.6454V48H20.7874ZM30.507 48.174C29.608 48.174 28.8927 47.8502 28.361 47.2025C27.839 46.5452 27.578 45.6268 27.578 44.4475C27.578 43.8675 27.6602 43.3455 27.8245 42.8815C27.9985 42.4175 28.2257 42.026 28.506 41.707C28.7864 41.388 29.1054 41.1415 29.463 40.9675C29.8304 40.7935 30.2074 40.7065 30.594 40.7065C31 40.7065 31.3432 40.779 31.6235 40.924C31.9039 41.0593 32.1842 41.2478 32.4645 41.4895L32.4065 40.344V37.763H34.074V48H32.6965L32.5805 47.2315H32.5225C32.2615 47.4925 31.957 47.7148 31.609 47.8985C31.261 48.0822 30.8937 48.174 30.507 48.174ZM30.913 46.7965C31.4447 46.7965 31.9425 46.5307 32.4065 45.999V42.6785C32.1552 42.4562 31.9087 42.3015 31.667 42.2145C31.435 42.1275 31.1982 42.084 30.9565 42.084C30.4925 42.084 30.101 42.287 29.782 42.693C29.463 43.099 29.3035 43.679 29.3035 44.433C29.3035 45.2063 29.4389 45.796 29.7095 46.202C29.9899 46.5983 30.391 46.7965 30.913 46.7965ZM38.0246 48.174C37.2609 48.174 36.7051 47.9323 36.3571 47.449C36.0091 46.956 35.8351 46.2552 35.8351 45.3465V40.8805H37.5026V45.129C37.5026 45.7187 37.5896 46.1343 37.7636 46.376C37.9376 46.6177 38.2179 46.7385 38.6046 46.7385C38.9139 46.7385 39.1846 46.6612 39.4166 46.5065C39.6583 46.3518 39.9144 46.1005 40.1851 45.7525V40.8805H41.8526V48H40.4896L40.3591 46.956H40.3156C40.0063 47.3233 39.6679 47.6182 39.3006 47.8405C38.9429 48.0628 38.5176 48.174 38.0246 48.174ZM46.6472 48.174C46.1639 48.174 45.7096 48.0918 45.2842 47.9275C44.8686 47.7632 44.5061 47.5215 44.1967 47.2025C43.8874 46.8835 43.6457 46.492 43.4717 46.028C43.2977 45.564 43.2107 45.0372 43.2107 44.4475C43.2107 43.8578 43.3074 43.331 43.5007 42.867C43.6941 42.403 43.9551 42.0115 44.2837 41.6925C44.6124 41.3735 44.9894 41.1318 45.4147 40.9675C45.8497 40.7935 46.3041 40.7065 46.7777 40.7065C47.2417 40.7065 47.6381 40.7838 47.9667 40.9385C48.3051 41.0932 48.6047 41.2817 48.8657 41.504L48.0537 42.5915C47.8604 42.4272 47.6671 42.3015 47.4737 42.2145C47.2901 42.1178 47.0871 42.0695 46.8647 42.0695C46.2847 42.0695 45.8159 42.287 45.4582 42.722C45.1006 43.1473 44.9217 43.7225 44.9217 44.4475C44.9217 45.1628 45.0957 45.738 45.4437 46.173C45.8014 46.5983 46.2606 46.811 46.8212 46.811C47.1016 46.811 47.3626 46.753 47.6042 46.637C47.8556 46.5113 48.0827 46.3663 48.2857 46.202L48.9672 47.304C48.6289 47.594 48.2567 47.8115 47.8507 47.9565C47.4544 48.1015 47.0532 48.174 46.6472 48.174ZM51.6664 48.174C51.038 48.174 50.5305 47.9855 50.1439 47.6085C49.7572 47.2218 49.5639 46.7143 49.5639 46.086C49.5639 45.709 49.6412 45.3755 49.7959 45.0855C49.9602 44.7858 50.2115 44.5297 50.5499 44.317C50.8979 44.1043 51.3329 43.9255 51.8549 43.7805C52.3865 43.6355 53.0197 43.5243 53.7544 43.447C53.7447 43.2633 53.7157 43.0893 53.6674 42.925C53.6287 42.751 53.5562 42.6012 53.4499 42.4755C53.3532 42.3402 53.2227 42.2387 53.0584 42.171C52.894 42.0937 52.691 42.055 52.4494 42.055C52.1014 42.055 51.7582 42.1227 51.4199 42.258C51.0912 42.3933 50.7674 42.5577 50.4484 42.751L49.8394 41.6345C50.2357 41.3832 50.6804 41.1657 51.1734 40.982C51.6664 40.7983 52.198 40.7065 52.7684 40.7065C53.6577 40.7065 54.3199 40.9723 54.7549 41.504C55.1995 42.026 55.4219 42.7848 55.4219 43.7805V48H54.0444L53.9284 47.217H53.8704C53.5514 47.4877 53.2082 47.7148 52.8409 47.8985C52.4832 48.0822 52.0917 48.174 51.6664 48.174ZM52.2029 46.869C52.4929 46.869 52.7539 46.8013 52.9859 46.666C53.2275 46.5307 53.4837 46.3373 53.7544 46.086V44.491C53.271 44.549 52.865 44.6263 52.5364 44.723C52.2077 44.8197 51.9419 44.9308 51.7389 45.0565C51.5359 45.1725 51.3909 45.3078 51.3039 45.4625C51.2169 45.6172 51.1734 45.7815 51.1734 45.9555C51.1734 46.2745 51.27 46.5065 51.4634 46.6515C51.6567 46.7965 51.9032 46.869 52.2029 46.869ZM59.4094 48.174C58.9937 48.174 58.6409 48.1112 58.3509 47.9855C58.0705 47.8598 57.8385 47.6858 57.6549 47.4635C57.4809 47.2315 57.3504 46.9608 57.2634 46.6515C57.186 46.3325 57.1474 45.9797 57.1474 45.593V42.2H56.1324V40.953L57.2344 40.8805L57.4374 38.9375H58.8294V40.8805H60.6419V42.2H58.8294V45.593C58.8294 46.4243 59.1629 46.84 59.8299 46.84C59.9555 46.84 60.0812 46.8255 60.2069 46.7965C60.3422 46.7675 60.463 46.7288 60.5694 46.6805L60.8594 47.913C60.666 47.9807 60.4437 48.0387 60.1924 48.087C59.9507 48.145 59.6897 48.174 59.4094 48.174ZM61.8501 48V40.8805H63.5176V48H61.8501ZM62.6911 39.6335C62.3915 39.6335 62.145 39.5465 61.9516 39.3725C61.7583 39.1985 61.6616 38.9713 61.6616 38.691C61.6616 38.4107 61.7583 38.1835 61.9516 38.0095C62.145 37.8258 62.3915 37.734 62.6911 37.734C62.9908 37.734 63.2373 37.8258 63.4306 38.0095C63.624 38.1835 63.7206 38.4107 63.7206 38.691C63.7206 38.9713 63.624 39.1985 63.4306 39.3725C63.2373 39.5465 62.9908 39.6335 62.6911 39.6335ZM68.2696 48.174C67.8249 48.174 67.3996 48.0918 66.9936 47.9275C66.5876 47.7632 66.2251 47.5215 65.9061 47.2025C65.5967 46.8835 65.3502 46.492 65.1666 46.028C64.9829 45.564 64.8911 45.0372 64.8911 44.4475C64.8911 43.8578 64.9829 43.331 65.1666 42.867C65.3502 42.403 65.5967 42.0115 65.9061 41.6925C66.2251 41.3735 66.5876 41.1318 66.9936 40.9675C67.3996 40.7935 67.8249 40.7065 68.2696 40.7065C68.7142 40.7065 69.1396 40.7935 69.5456 40.9675C69.9612 41.1318 70.3237 41.3735 70.6331 41.6925C70.9424 42.0115 71.1889 42.403 71.3726 42.867C71.5659 43.331 71.6626 43.8578 71.6626 44.4475C71.6626 45.0372 71.5659 45.564 71.3726 46.028C71.1889 46.492 70.9424 46.8835 70.6331 47.2025C70.3237 47.5215 69.9612 47.7632 69.5456 47.9275C69.1396 48.0918 68.7142 48.174 68.2696 48.174ZM68.2696 46.811C68.7916 46.811 69.2024 46.5983 69.5021 46.173C69.8017 45.738 69.9516 45.1628 69.9516 44.4475C69.9516 43.7225 69.8017 43.1473 69.5021 42.722C69.2024 42.287 68.7916 42.0695 68.2696 42.0695C67.7476 42.0695 67.3367 42.287 67.0371 42.722C66.7471 43.1473 66.6021 43.7225 66.6021 44.4475C66.6021 45.1628 66.7471 45.738 67.0371 46.173C67.3367 46.5983 67.7476 46.811 68.2696 46.811ZM73.0231 48V40.8805H74.4006L74.5166 41.8375H74.5746C74.8936 41.5282 75.2367 41.2623 75.6041 41.04C75.9811 40.8177 76.4161 40.7065 76.9091 40.7065C77.6727 40.7065 78.2286 40.953 78.5766 41.446C78.9246 41.9293 79.0986 42.6253 79.0986 43.534V48H77.4311V43.7515C77.4311 43.1618 77.3441 42.7462 77.1701 42.5045C76.9961 42.2628 76.7109 42.142 76.3146 42.142C76.0052 42.142 75.7297 42.2193 75.4881 42.374C75.2561 42.519 74.9902 42.7365 74.6906 43.0265V48H73.0231ZM82.5723 48.174C81.944 48.174 81.4365 47.9855 81.0498 47.6085C80.6632 47.2218 80.4698 46.7143 80.4698 46.086C80.4698 45.709 80.5472 45.3755 80.7018 45.0855C80.8662 44.7858 81.1175 44.5297 81.4558 44.317C81.8038 44.1043 82.2388 43.9255 82.7608 43.7805C83.2925 43.6355 83.9257 43.5243 84.6603 43.447C84.6507 43.2633 84.6217 43.0893 84.5733 42.925C84.5347 42.751 84.4622 42.6012 84.3558 42.4755C84.2592 42.3402 84.1287 42.2387 83.9643 42.171C83.8 42.0937 83.597 42.055 83.3553 42.055C83.0073 42.055 82.6642 42.1227 82.3258 42.258C81.9972 42.3933 81.6733 42.5577 81.3543 42.751L80.7453 41.6345C81.1417 41.3832 81.5863 41.1657 82.0793 40.982C82.5723 40.7983 83.104 40.7065 83.6743 40.7065C84.5637 40.7065 85.2258 40.9723 85.6608 41.504C86.1055 42.026 86.3278 42.7848 86.3278 43.7805V48H84.9503L84.8343 47.217H84.7763C84.4573 47.4877 84.1142 47.7148 83.7468 47.8985C83.3892 48.0822 82.9977 48.174 82.5723 48.174ZM83.1088 46.869C83.3988 46.869 83.6598 46.8013 83.8918 46.666C84.1335 46.5307 84.3897 46.3373 84.6603 46.086V44.491C84.177 44.549 83.771 44.6263 83.4423 44.723C83.1137 44.8197 82.8478 44.9308 82.6448 45.0565C82.4418 45.1725 82.2968 45.3078 82.2098 45.4625C82.1228 45.6172 82.0793 45.7815 82.0793 45.9555C82.0793 46.2745 82.176 46.5065 82.3693 46.6515C82.5627 46.7965 82.8092 46.869 83.1088 46.869ZM89.6574 48.174C89.0581 48.174 88.6376 47.9952 88.3959 47.6375C88.1542 47.2798 88.0334 46.7917 88.0334 46.173V37.763H89.7009V46.26C89.7009 46.463 89.7396 46.608 89.8169 46.695C89.8942 46.7723 89.9764 46.811 90.0634 46.811C90.1021 46.811 90.1359 46.811 90.1649 46.811C90.2036 46.811 90.2567 46.8013 90.3244 46.782L90.5419 48.029C90.3196 48.1257 90.0247 48.174 89.6574 48.174ZM94.4377 48V38.517H97.4247C97.9467 38.517 98.4301 38.5653 98.8747 38.662C99.3291 38.7587 99.7206 38.923 100.049 39.155C100.378 39.387 100.634 39.6915 100.818 40.0685C101.001 40.4358 101.093 40.895 101.093 41.446C101.093 41.968 101.001 42.4223 100.818 42.809C100.634 43.1957 100.378 43.5195 100.049 43.7805C99.7302 44.0318 99.3484 44.2203 98.9037 44.346C98.4687 44.462 97.9951 44.52 97.4827 44.52H96.1197V48H94.4377ZM96.1197 43.1715H97.3522C98.7442 43.1715 99.4402 42.5963 99.4402 41.446C99.4402 40.8467 99.2566 40.4358 98.8892 40.2135C98.5316 39.9815 97.9999 39.8655 97.2942 39.8655H96.1197V43.1715ZM102.442 48V40.8805H103.82L103.936 42.142H103.994C104.245 41.678 104.55 41.3252 104.907 41.0835C105.265 40.8322 105.632 40.7065 106.009 40.7065C106.348 40.7065 106.618 40.7548 106.821 40.8515L106.531 42.3015C106.406 42.2628 106.29 42.2338 106.183 42.2145C106.077 42.1952 105.946 42.1855 105.792 42.1855C105.511 42.1855 105.217 42.2967 104.907 42.519C104.598 42.7317 104.332 43.1087 104.11 43.65V48H102.442ZM110.334 48.174C109.89 48.174 109.464 48.0918 109.058 47.9275C108.652 47.7632 108.29 47.5215 107.971 47.2025C107.661 46.8835 107.415 46.492 107.231 46.028C107.048 45.564 106.956 45.0372 106.956 44.4475C106.956 43.8578 107.048 43.331 107.231 42.867C107.415 42.403 107.661 42.0115 107.971 41.6925C108.29 41.3735 108.652 41.1318 109.058 40.9675C109.464 40.7935 109.89 40.7065 110.334 40.7065C110.779 40.7065 111.204 40.7935 111.61 40.9675C112.026 41.1318 112.388 41.3735 112.698 41.6925C113.007 42.0115 113.254 42.403 113.437 42.867C113.631 43.331 113.727 43.8578 113.727 44.4475C113.727 45.0372 113.631 45.564 113.437 46.028C113.254 46.492 113.007 46.8835 112.698 47.2025C112.388 47.5215 112.026 47.7632 111.61 47.9275C111.204 48.0918 110.779 48.174 110.334 48.174ZM110.334 46.811C110.856 46.811 111.267 46.5983 111.567 46.173C111.866 45.738 112.016 45.1628 112.016 44.4475C112.016 43.7225 111.866 43.1473 111.567 42.722C111.267 42.287 110.856 42.0695 110.334 42.0695C109.812 42.0695 109.401 42.287 109.102 42.722C108.812 43.1473 108.667 43.7225 108.667 44.4475C108.667 45.1628 108.812 45.738 109.102 46.173C109.401 46.5983 109.812 46.811 110.334 46.811ZM117.567 51.1465C117.142 51.1465 116.746 51.1078 116.378 51.0305C116.021 50.9532 115.711 50.8372 115.45 50.6825C115.189 50.5278 114.981 50.3345 114.827 50.1025C114.682 49.8705 114.609 49.5998 114.609 49.2905C114.609 48.9908 114.696 48.7105 114.87 48.4495C115.044 48.1982 115.296 47.971 115.624 47.768V47.71C115.441 47.594 115.286 47.4393 115.16 47.246C115.044 47.0527 114.986 46.811 114.986 46.521C114.986 46.2407 115.064 45.9893 115.218 45.767C115.383 45.535 115.566 45.3465 115.769 45.2015V45.1435C115.528 44.9598 115.31 44.7085 115.117 44.3895C114.933 44.0608 114.841 43.6838 114.841 43.2585C114.841 42.8525 114.919 42.49 115.073 42.171C115.228 41.852 115.431 41.5862 115.682 41.3735C115.943 41.1512 116.243 40.9868 116.581 40.8805C116.92 40.7645 117.277 40.7065 117.654 40.7065C117.848 40.7065 118.031 40.7258 118.205 40.7645C118.389 40.7935 118.553 40.8322 118.698 40.8805H121.25V42.113H119.945C120.061 42.2483 120.158 42.4223 120.235 42.635C120.313 42.838 120.351 43.0652 120.351 43.3165C120.351 43.7128 120.279 44.0608 120.134 44.3605C119.998 44.6602 119.81 44.9115 119.568 45.1145C119.327 45.3175 119.041 45.4722 118.713 45.5785C118.384 45.6848 118.031 45.738 117.654 45.738C117.5 45.738 117.34 45.7235 117.176 45.6945C117.011 45.6655 116.847 45.6172 116.683 45.5495C116.576 45.6462 116.489 45.7428 116.422 45.8395C116.364 45.9362 116.335 46.0667 116.335 46.231C116.335 46.434 116.417 46.5935 116.581 46.7095C116.755 46.8255 117.06 46.8835 117.495 46.8835H118.756C119.617 46.8835 120.264 47.0237 120.699 47.304C121.144 47.5747 121.366 48.0193 121.366 48.638C121.366 48.986 121.274 49.3147 121.091 49.624C120.917 49.9333 120.665 50.1992 120.337 50.4215C120.008 50.6438 119.607 50.8178 119.133 50.9435C118.669 51.0788 118.147 51.1465 117.567 51.1465ZM117.654 44.694C117.993 44.694 118.283 44.5732 118.524 44.3315C118.766 44.0802 118.887 43.7225 118.887 43.2585C118.887 42.8138 118.766 42.4707 118.524 42.229C118.292 41.9777 118.002 41.852 117.654 41.852C117.306 41.852 117.011 41.9728 116.77 42.2145C116.528 42.4562 116.407 42.8042 116.407 43.2585C116.407 43.7225 116.528 44.0802 116.77 44.3315C117.011 44.5732 117.306 44.694 117.654 44.694ZM117.828 50.059C118.408 50.059 118.872 49.943 119.22 49.711C119.578 49.4887 119.757 49.2228 119.757 48.9135C119.757 48.6332 119.646 48.4447 119.423 48.348C119.211 48.2513 118.901 48.203 118.495 48.203H117.524C117.137 48.203 116.813 48.1692 116.552 48.1015C116.185 48.3818 116.001 48.696 116.001 49.044C116.001 49.363 116.161 49.6095 116.48 49.7835C116.808 49.9672 117.258 50.059 117.828 50.059ZM122.331 48V40.8805H123.708L123.824 42.142H123.882C124.134 41.678 124.438 41.3252 124.796 41.0835C125.154 40.8322 125.521 40.7065 125.898 40.7065C126.236 40.7065 126.507 40.7548 126.71 40.8515L126.42 42.3015C126.294 42.2628 126.178 42.2338 126.072 42.2145C125.966 42.1952 125.835 42.1855 125.68 42.1855C125.4 42.1855 125.105 42.2967 124.796 42.519C124.487 42.7317 124.221 43.1087 123.998 43.65V48H122.331ZM128.793 48.174C128.165 48.174 127.658 47.9855 127.271 47.6085C126.884 47.2218 126.691 46.7143 126.691 46.086C126.691 45.709 126.768 45.3755 126.923 45.0855C127.087 44.7858 127.339 44.5297 127.677 44.317C128.025 44.1043 128.46 43.9255 128.982 43.7805C129.514 43.6355 130.147 43.5243 130.881 43.447C130.872 43.2633 130.843 43.0893 130.794 42.925C130.756 42.751 130.683 42.6012 130.577 42.4755C130.48 42.3402 130.35 42.2387 130.185 42.171C130.021 42.0937 129.818 42.055 129.576 42.055C129.228 42.055 128.885 42.1227 128.547 42.258C128.218 42.3933 127.894 42.5577 127.575 42.751L126.966 41.6345C127.363 41.3832 127.807 41.1657 128.3 40.982C128.793 40.7983 129.325 40.7065 129.895 40.7065C130.785 40.7065 131.447 40.9723 131.882 41.504C132.327 42.026 132.549 42.7848 132.549 43.7805V48H131.171L131.055 47.217H130.997C130.678 47.4877 130.335 47.7148 129.968 47.8985C129.61 48.0822 129.219 48.174 128.793 48.174ZM129.33 46.869C129.62 46.869 129.881 46.8013 130.113 46.666C130.355 46.5307 130.611 46.3373 130.881 46.086V44.491C130.398 44.549 129.992 44.6263 129.663 44.723C129.335 44.8197 129.069 44.9308 128.866 45.0565C128.663 45.1725 128.518 45.3078 128.431 45.4625C128.344 45.6172 128.3 45.7815 128.3 45.9555C128.3 46.2745 128.397 46.5065 128.59 46.6515C128.784 46.7965 129.03 46.869 129.33 46.869ZM134.254 48V40.8805H135.632L135.748 41.852H135.806C136.106 41.533 136.429 41.2623 136.777 41.04C137.135 40.8177 137.536 40.7065 137.981 40.7065C138.503 40.7065 138.919 40.8177 139.228 41.04C139.547 41.2623 139.789 41.5765 139.953 41.9825C140.291 41.6152 140.644 41.3107 141.011 41.069C141.379 40.8273 141.79 40.7065 142.244 40.7065C142.998 40.7065 143.554 40.953 143.911 41.446C144.269 41.9293 144.448 42.6253 144.448 43.534V48H142.766V43.7515C142.766 43.1618 142.674 42.7462 142.49 42.5045C142.316 42.2628 142.046 42.142 141.678 42.142C141.234 42.142 140.736 42.4368 140.185 43.0265V48H138.517V43.7515C138.517 43.1618 138.426 42.7462 138.242 42.5045C138.068 42.2628 137.792 42.142 137.415 42.142C136.971 42.142 136.473 42.4368 135.922 43.0265V48H134.254Z" fill="#6A6E81"/>
<path d="M19.8713 101L18.3113 93.152H19.7393L20.4233 97.112C20.4873 97.536 20.5513 97.956 20.6153 98.372C20.6793 98.788 20.7433 99.204 20.8073 99.62H20.8553C20.9433 99.204 21.0273 98.788 21.1073 98.372C21.1953 97.948 21.2833 97.528 21.3713 97.112L22.3313 93.152H23.5433L24.5033 97.112C24.5913 97.52 24.6793 97.936 24.7673 98.36C24.8553 98.776 24.9433 99.196 25.0313 99.62H25.0793C25.1433 99.196 25.2033 98.776 25.2593 98.36C25.3233 97.944 25.3873 97.528 25.4513 97.112L26.1353 93.152H27.4673L25.9673 101H24.2393L23.2673 96.872C23.2033 96.568 23.1393 96.268 23.0753 95.972C23.0193 95.668 22.9673 95.364 22.9193 95.06H22.8713C22.8153 95.364 22.7553 95.668 22.6913 95.972C22.6353 96.268 22.5753 96.568 22.5113 96.872L21.5633 101H19.8713ZM31.4501 101.144C30.9381 101.144 30.4701 101.052 30.0461 100.868C29.6221 100.676 29.2581 100.404 28.9541 100.052C28.6501 99.692 28.4141 99.26 28.2461 98.756C28.0781 98.252 27.9941 97.68 27.9941 97.04C27.9941 96.408 28.0781 95.844 28.2461 95.348C28.4141 94.844 28.6501 94.42 28.9541 94.076C29.2581 93.732 29.6221 93.468 30.0461 93.284C30.4701 93.1 30.9381 93.008 31.4501 93.008C31.9621 93.008 32.4301 93.1 32.8541 93.284C33.2781 93.468 33.6421 93.732 33.9461 94.076C34.2581 94.42 34.4981 94.844 34.6661 95.348C34.8341 95.844 34.9181 96.408 34.9181 97.04C34.9181 97.68 34.8341 98.252 34.6661 98.756C34.4981 99.26 34.2581 99.692 33.9461 100.052C33.6421 100.404 33.2781 100.676 32.8541 100.868C32.4301 101.052 31.9621 101.144 31.4501 101.144ZM31.4501 99.932C31.7621 99.932 32.0421 99.864 32.2901 99.728C32.5381 99.592 32.7501 99.4 32.9261 99.152C33.1021 98.896 33.2381 98.592 33.3341 98.24C33.4301 97.88 33.4781 97.48 33.4781 97.04C33.4781 96.16 33.2941 95.472 32.9261 94.976C32.5661 94.472 32.0741 94.22 31.4501 94.22C30.8261 94.22 30.3301 94.472 29.9621 94.976C29.6021 95.472 29.4221 96.16 29.4221 97.04C29.4221 97.48 29.4701 97.88 29.5661 98.24C29.6621 98.592 29.7981 98.896 29.9741 99.152C30.1501 99.4 30.3621 99.592 30.6101 99.728C30.8581 99.864 31.1381 99.932 31.4501 99.932ZM36.248 101V93.152H38.9C39.308 93.152 39.688 93.192 40.04 93.272C40.392 93.352 40.696 93.484 40.952 93.668C41.208 93.844 41.408 94.08 41.552 94.376C41.704 94.672 41.78 95.04 41.78 95.48C41.78 96.08 41.636 96.564 41.348 96.932C41.068 97.3 40.692 97.564 40.22 97.724L42.092 101H40.532L38.84 97.928H37.64V101H36.248ZM37.64 96.824H38.756C39.292 96.824 39.7 96.712 39.98 96.488C40.268 96.264 40.412 95.928 40.412 95.48C40.412 95.024 40.268 94.708 39.98 94.532C39.7 94.356 39.292 94.268 38.756 94.268H37.64V96.824ZM43.1096 101V93.152H44.5016V99.824H47.7656V101H43.1096ZM48.893 101V93.152H50.993C52.193 93.152 53.129 93.476 53.801 94.124C54.473 94.772 54.809 95.744 54.809 97.04C54.809 97.688 54.721 98.26 54.545 98.756C54.377 99.252 54.129 99.668 53.801 100.004C53.481 100.332 53.089 100.58 52.625 100.748C52.169 100.916 51.649 101 51.065 101H48.893ZM50.285 99.872H50.897C51.697 99.872 52.309 99.644 52.733 99.188C53.165 98.724 53.381 98.008 53.381 97.04C53.381 96.08 53.165 95.38 52.733 94.94C52.301 94.5 51.689 94.28 50.897 94.28H50.285V99.872ZM58.3154 101V93.152H63.0554V94.328H59.7074V96.548H62.5634V97.724H59.7074V101H58.3154ZM64.1926 101V93.152H65.5846V101H64.1926ZM67.3393 101V93.152H68.7673L71.2153 97.568L72.0193 99.236H72.0673C72.0353 98.828 71.9953 98.392 71.9473 97.928C71.9073 97.456 71.8873 97 71.8873 96.56V93.152H73.2193V101H71.7913L69.3433 96.584L68.5393 94.916H68.4913C68.5233 95.332 68.5593 95.768 68.5993 96.224C68.6473 96.68 68.6713 97.128 68.6713 97.568V101H67.3393ZM76.5823 96.824L76.3063 97.784H78.3103L78.0343 96.824C77.9063 96.408 77.7823 95.98 77.6623 95.54C77.5503 95.1 77.4383 94.664 77.3263 94.232H77.2783C77.1663 94.672 77.0543 95.112 76.9423 95.552C76.8303 95.984 76.7103 96.408 76.5823 96.824ZM73.9543 101L76.5103 93.152H78.1423L80.6983 101H79.2343L78.6223 98.876H75.9823L75.3703 101H73.9543ZM81.4257 101V93.152H82.8537L85.3017 97.568L86.1057 99.236H86.1537C86.1217 98.828 86.0817 98.392 86.0337 97.928C85.9937 97.456 85.9737 97 85.9737 96.56V93.152H87.3057V101H85.8777L83.4297 96.584L82.6257 94.916H82.5777C82.6097 95.332 82.6457 95.768 82.6857 96.224C82.7337 96.68 82.7577 97.128 82.7577 97.568V101H81.4257ZM92.1927 101.144C91.6967 101.144 91.2327 101.056 90.8007 100.88C90.3687 100.704 89.9927 100.444 89.6727 100.1C89.3607 99.756 89.1127 99.332 88.9287 98.828C88.7447 98.324 88.6527 97.748 88.6527 97.1C88.6527 96.46 88.7447 95.888 88.9287 95.384C89.1207 94.872 89.3767 94.44 89.6967 94.088C90.0247 93.736 90.4047 93.468 90.8367 93.284C91.2767 93.1 91.7447 93.008 92.2407 93.008C92.7367 93.008 93.1767 93.108 93.5607 93.308C93.9447 93.508 94.2607 93.74 94.5087 94.004L93.7647 94.904C93.5567 94.696 93.3327 94.532 93.0927 94.412C92.8527 94.284 92.5807 94.22 92.2767 94.22C91.9567 94.22 91.6607 94.288 91.3887 94.424C91.1247 94.552 90.8927 94.74 90.6927 94.988C90.5007 95.228 90.3487 95.524 90.2367 95.876C90.1327 96.228 90.0807 96.624 90.0807 97.064C90.0807 97.96 90.2727 98.664 90.6567 99.176C91.0487 99.68 91.5767 99.932 92.2407 99.932C92.5927 99.932 92.9047 99.86 93.1767 99.716C93.4487 99.564 93.6967 99.368 93.9207 99.128L94.6647 100.004C94.3447 100.372 93.9767 100.656 93.5607 100.856C93.1527 101.048 92.6967 101.144 92.1927 101.144ZM95.7348 101V93.152H97.1268V101H95.7348ZM100.489 96.824L100.213 97.784H102.217L101.941 96.824C101.813 96.408 101.689 95.98 101.569 95.54C101.457 95.1 101.345 94.664 101.233 94.232H101.185C101.073 94.672 100.961 95.112 100.849 95.552C100.737 95.984 100.617 96.408 100.489 96.824ZM97.8615 101L100.417 93.152H102.049L104.605 101H103.141L102.529 98.876H99.8895L99.2775 101H97.8615ZM105.333 101V93.152H106.725V99.824H109.989V101H105.333ZM114.887 96.824L114.611 97.784H116.615L116.339 96.824C116.211 96.408 116.087 95.98 115.967 95.54C115.855 95.1 115.743 94.664 115.631 94.232H115.583C115.471 94.672 115.359 95.112 115.247 95.552C115.135 95.984 115.015 96.408 114.887 96.824ZM112.259 101L114.815 93.152H116.447L119.003 101H117.539L116.927 98.876H114.287L113.675 101H112.259ZM120.51 101L118.95 93.152H120.378L121.062 97.112C121.126 97.536 121.19 97.956 121.254 98.372C121.318 98.788 121.382 99.204 121.446 99.62H121.494C121.582 99.204 121.666 98.788 121.746 98.372C121.834 97.948 121.922 97.528 122.01 97.112L122.97 93.152H124.182L125.142 97.112C125.23 97.52 125.318 97.936 125.406 98.36C125.494 98.776 125.582 99.196 125.67 99.62H125.718C125.782 99.196 125.842 98.776 125.898 98.36C125.962 97.944 126.026 97.528 126.09 97.112L126.774 93.152H128.106L126.606 101H124.878L123.906 96.872C123.842 96.568 123.778 96.268 123.714 95.972C123.658 95.668 123.606 95.364 123.558 95.06H123.51C123.454 95.364 123.394 95.668 123.33 95.972C123.274 96.268 123.214 96.568 123.15 96.872L122.202 101H120.51ZM130.696 96.824L130.42 97.784H132.424L132.148 96.824C132.02 96.408 131.896 95.98 131.776 95.54C131.664 95.1 131.552 94.664 131.44 94.232H131.392C131.28 94.672 131.168 95.112 131.056 95.552C130.944 95.984 130.824 96.408 130.696 96.824ZM128.068 101L130.624 93.152H132.256L134.812 101H133.348L132.736 98.876H130.096L129.484 101H128.068ZM135.539 101V93.152H138.191C138.599 93.152 138.979 93.192 139.331 93.272C139.683 93.352 139.987 93.484 140.243 93.668C140.499 93.844 140.699 94.08 140.843 94.376C140.995 94.672 141.071 95.04 141.071 95.48C141.071 96.08 140.927 96.564 140.639 96.932C140.359 97.3 139.983 97.564 139.511 97.724L141.383 101H139.823L138.131 97.928H136.931V101H135.539ZM136.931 96.824H138.047C138.583 96.824 138.991 96.712 139.271 96.488C139.559 96.264 139.703 95.928 139.703 95.48C139.703 95.024 139.559 94.708 139.271 94.532C138.991 94.356 138.583 94.268 138.047 94.268H136.931V96.824ZM142.401 101V93.152H144.501C145.701 93.152 146.637 93.476 147.309 94.124C147.981 94.772 148.317 95.744 148.317 97.04C148.317 97.688 148.229 98.26 148.053 98.756C147.885 99.252 147.637 99.668 147.309 100.004C146.989 100.332 146.597 100.58 146.133 100.748C145.677 100.916 145.157 101 144.573 101H142.401ZM143.793 99.872H144.405C145.205 99.872 145.817 99.644 146.241 99.188C146.673 98.724 146.889 98.008 146.889 97.04C146.889 96.08 146.673 95.38 146.241 94.94C145.809 94.5 145.197 94.28 144.405 94.28H143.793V99.872Z" fill="#6A6E81"/>
</svg>
