<svg width="54" height="54" viewBox="0 0 54 54" fill="none" xmlns="http://www.w3.org/2000/svg">
    <path d="M35.34 23.546V20.86a3.582 3.582 0 0 0-1.057-2.534 3.615 3.615 0 0 0-2.546-1.052h-9.465c-.955 0-1.87.38-2.546 1.051a3.582 3.582 0 0 0-1.056 2.535v2.685h-1.593V20.86a5.166 5.166 0 0 1 1.524-3.654 5.213 5.213 0 0 1 3.67-1.516h9.466a5.213 5.213 0 0 1 3.67 1.516 5.166 5.166 0 0 1 1.523 3.654v2.685h-1.59z" fill="#FF4521" stroke="#FF4521" stroke-width=".473"/>
    <path d="M37.081 23.693h-1.892v-2.831c0-.911-.364-1.785-1.011-2.43a3.463 3.463 0 0 0-2.44-1.007h-9.466a3.464 3.464 0 0 0-2.44 1.008 3.433 3.433 0 0 0-1.012 2.429v2.83h-1.897v-2.83a5.314 5.314 0 0 1 1.567-3.76 5.363 5.363 0 0 1 3.777-1.56h9.466a5.362 5.362 0 0 1 3.776 1.56 5.313 5.313 0 0 1 1.567 3.76l.005 2.83zm-1.591-.299h1.29v-2.532a5.015 5.015 0 0 0-1.478-3.55 5.06 5.06 0 0 0-3.564-1.472h-9.466a5.062 5.062 0 0 0-3.565 1.473 5.017 5.017 0 0 0-1.48 3.549v2.532h1.293v-2.532c0-.99.396-1.94 1.1-2.64a3.765 3.765 0 0 1 2.652-1.096h9.466a3.766 3.766 0 0 1 2.652 1.096c.703.7 1.099 1.65 1.1 2.64v2.532zM19.422 52.85v-3.015a3.583 3.583 0 0 0-1.056-2.535 3.615 3.615 0 0 0-2.546-1.051H6.355c-.956 0-1.871.379-2.547 1.051a3.582 3.582 0 0 0-1.056 2.535v3.016H1.16v-3.016a5.166 5.166 0 0 1 1.523-3.654 5.212 5.212 0 0 1 3.67-1.516h9.466a5.211 5.211 0 0 1 3.67 1.516 5.165 5.165 0 0 1 1.524 3.654v3.016h-1.591z" fill="#FF4521" stroke="#FF4521" stroke-width=".473"/>
    <path d="M21.165 53h-1.898v-3.165a3.434 3.434 0 0 0-1.013-2.43 3.465 3.465 0 0 0-2.44-1.007H6.349a3.464 3.464 0 0 0-2.44 1.008 3.433 3.433 0 0 0-1.011 2.43V53H1v-3.165a5.314 5.314 0 0 1 1.567-3.76 5.363 5.363 0 0 1 3.777-1.56h9.465a5.365 5.365 0 0 1 3.777 1.56 5.316 5.316 0 0 1 1.569 3.76l.01 3.165zm-1.593-.298h1.292v-2.867a5.017 5.017 0 0 0-1.48-3.55 5.063 5.063 0 0 0-3.565-1.472H6.354a5.06 5.06 0 0 0-3.565 1.472 5.015 5.015 0 0 0-1.478 3.55v2.867h1.291v-2.867c.001-.99.397-1.94 1.1-2.64A3.765 3.765 0 0 1 6.354 46.1h9.465a3.766 3.766 0 0 1 2.652 1.095c.704.7 1.1 1.65 1.101 2.64v2.867zM32.845 36.718a.767.767 0 0 1-.411-.12l-4.936-3.407a.908.908 0 0 0-.972-.008l-4.962 3.425a.772.772 0 0 1-.39.1.801.801 0 0 1-.67-.357.774.774 0 0 1 .245-1.07l5.05-3.48a.884.884 0 0 0 .4-.742v-5.905a.773.773 0 0 1 .778-.775.78.78 0 0 1 .779.775v5.867a.892.892 0 0 0 .419.753l5.073 3.492a.781.781 0 0 1-.403 1.452z" fill="#FF4521" stroke="#FF4521" stroke-width=".473"/>
    <path d="M32.845 36.867a.91.91 0 0 1-.492-.144l-4.941-3.41a.755.755 0 0 0-.805-.004l-4.958 3.421a.955.955 0 0 1-1.274-.294.923.923 0 0 1 .29-1.277l5.046-3.474a.738.738 0 0 0 .335-.62v-5.903a.931.931 0 0 1 1.859 0v5.866a.74.74 0 0 0 .347.626l5.079 3.496a.926.926 0 0 1 .41 1.042.925.925 0 0 1-.899.672l.003.003zm-5.839-3.97c.203 0 .4.058.57.167l4.944 3.412a.648.648 0 0 0 .859-.2.631.631 0 0 0-.21-.877l-5.078-3.495a1.04 1.04 0 0 1-.484-.876v-5.866a.625.625 0 0 0-.63-.602.63.63 0 0 0-.628.602v5.904a1.035 1.035 0 0 1-.47.868l-5.045 3.474a.629.629 0 0 0-.289.638c.014.082.045.16.09.23a.647.647 0 0 0 .542.286.621.621 0 0 0 .311-.08l4.956-3.42a1.05 1.05 0 0 1 .562-.166zM51.255 52.85v-3.015c-.001-.95-.38-1.863-1.056-2.535a3.614 3.614 0 0 0-2.546-1.051h-9.465c-.956 0-1.871.379-2.547 1.051a3.582 3.582 0 0 0-1.056 2.535v3.016h-1.592v-3.016a5.166 5.166 0 0 1 1.523-3.654 5.212 5.212 0 0 1 3.67-1.516h9.473a5.211 5.211 0 0 1 3.67 1.516 5.165 5.165 0 0 1 1.524 3.654v3.016h-1.598z" fill="#FF4521" stroke="#FF4521" stroke-width=".473"/>
    <path d="M53 53h-1.898v-3.165a3.434 3.434 0 0 0-1.012-2.43 3.465 3.465 0 0 0-2.44-1.007h-9.465a3.464 3.464 0 0 0-2.44 1.008 3.433 3.433 0 0 0-1.012 2.43V53h-1.898v-3.165a5.315 5.315 0 0 1 1.567-3.76 5.363 5.363 0 0 1 3.778-1.56h9.464a5.365 5.365 0 0 1 3.778 1.56 5.316 5.316 0 0 1 1.568 3.76L53 53zm-1.592-.298h1.291v-2.867a5.017 5.017 0 0 0-1.48-3.55 5.063 5.063 0 0 0-3.565-1.472H38.19a5.06 5.06 0 0 0-3.566 1.472 5.015 5.015 0 0 0-1.478 3.55v2.867h1.291v-2.867a3.73 3.73 0 0 1 1.1-2.64A3.765 3.765 0 0 1 38.19 46.1h9.464a3.766 3.766 0 0 1 2.653 1.095c.703.7 1.1 1.65 1.1 2.64v2.867zM26.876 11.875a5.405 5.405 0 0 1-2.995-.9 5.368 5.368 0 0 1-1.987-2.406 5.34 5.34 0 0 1 1.164-5.847 5.41 5.41 0 0 1 5.872-1.165 5.382 5.382 0 0 1 2.419 1.975c.592.882.908 1.92.908 2.98a5.357 5.357 0 0 1-1.578 3.789 5.406 5.406 0 0 1-3.803 1.574zm0-9.141a3.808 3.808 0 0 0-2.11.634 3.782 3.782 0 0 0-1.401 1.694 3.763 3.763 0 0 0 .819 4.12 3.811 3.811 0 0 0 4.137.822 3.791 3.791 0 0 0 1.704-1.392 3.766 3.766 0 0 0-.47-4.77 3.804 3.804 0 0 0-2.68-1.108z" fill="#FF4521" stroke="#FF4521" stroke-width=".473"/>
    <path d="M26.876 12.025a5.555 5.555 0 0 1-3.078-.927 5.517 5.517 0 0 1-2.042-2.473 5.49 5.49 0 0 1 1.197-6.009 5.56 5.56 0 0 1 6.035-1.197 5.532 5.532 0 0 1 2.486 2.03c.609.907.934 1.973.934 3.063a5.506 5.506 0 0 1-1.622 3.895 5.556 5.556 0 0 1-3.91 1.618zm0-10.727a5.254 5.254 0 0 0-2.912.876 5.219 5.219 0 0 0-1.932 2.339 5.192 5.192 0 0 0 1.132 5.684 5.259 5.259 0 0 0 5.709 1.133 5.233 5.233 0 0 0 2.351-1.92 5.197 5.197 0 0 0 .883-2.898 5.208 5.208 0 0 0-1.534-3.683 5.255 5.255 0 0 0-3.697-1.53zm0 9.142a3.958 3.958 0 0 1-2.194-.66 3.931 3.931 0 0 1-1.456-1.76 3.911 3.911 0 0 1 .852-4.283 3.95 3.95 0 0 1 4.3-.854c.721.297 1.338.8 1.771 1.447.434.646.666 1.405.666 2.182a3.924 3.924 0 0 1-1.155 2.774 3.959 3.959 0 0 1-2.784 1.154zm0-7.557a3.658 3.658 0 0 0-2.028.608c-.6.398-1.068.965-1.345 1.628a3.615 3.615 0 0 0 .785 3.957 3.65 3.65 0 0 0 3.974.79A3.642 3.642 0 0 0 29.9 8.529a3.618 3.618 0 0 0-.451-4.58 3.657 3.657 0 0 0-2.572-1.066zM42.793 40.847a5.404 5.404 0 0 1-2.995-.901 5.368 5.368 0 0 1-1.986-2.406 5.34 5.34 0 0 1 1.164-5.847 5.41 5.41 0 0 1 5.872-1.165 5.383 5.383 0 0 1 2.418 1.975c.593.882.909 1.92.909 2.98a5.357 5.357 0 0 1-1.578 3.789 5.406 5.406 0 0 1-3.804 1.575zm0-9.142a3.81 3.81 0 0 0-2.11.634 3.782 3.782 0 0 0-1.4 1.694 3.762 3.762 0 0 0 .818 4.12 3.8 3.8 0 0 0 4.137.822 3.791 3.791 0 0 0 1.705-1.392 3.766 3.766 0 0 0-.47-4.77 3.804 3.804 0 0 0-2.68-1.108z" fill="#FF4521" stroke="#FF4521" stroke-width=".473"/>
    <path d="M42.793 40.993a5.554 5.554 0 0 1-3.078-.926 5.518 5.518 0 0 1-2.042-2.472 5.49 5.49 0 0 1 1.197-6.01 5.56 5.56 0 0 1 6.035-1.198 5.532 5.532 0 0 1 2.486 2.031c.609.907.934 1.973.934 3.063a5.506 5.506 0 0 1-1.622 3.894 5.556 5.556 0 0 1-3.91 1.618zm0-10.726a5.254 5.254 0 0 0-2.912.875 5.22 5.22 0 0 0-1.932 2.339 5.193 5.193 0 0 0 1.131 5.685 5.26 5.26 0 0 0 5.709 1.133 5.233 5.233 0 0 0 2.352-1.92 5.198 5.198 0 0 0 .883-2.898A5.207 5.207 0 0 0 46.49 31.8a5.255 5.255 0 0 0-3.697-1.53v-.002zm0 9.142a3.958 3.958 0 0 1-2.193-.66 3.931 3.931 0 0 1-1.456-1.76 3.91 3.91 0 0 1 .851-4.283 3.961 3.961 0 0 1 4.3-.854c.722.297 1.338.8 1.772 1.446a3.916 3.916 0 0 1-.489 4.958 3.959 3.959 0 0 1-2.785 1.155v-.002zm0-7.557a3.658 3.658 0 0 0-2.028.608c-.6.398-1.069.965-1.346 1.628a3.615 3.615 0 0 0 .786 3.959 3.652 3.652 0 0 0 3.975.79 3.643 3.643 0 0 0 1.638-1.337 3.619 3.619 0 0 0-.452-4.58 3.658 3.658 0 0 0-2.573-1.067v-.001zM10.958 40.847a5.405 5.405 0 0 1-2.995-.901 5.368 5.368 0 0 1-1.987-2.406 5.34 5.34 0 0 1 1.164-5.847 5.41 5.41 0 0 1 5.872-1.165 5.382 5.382 0 0 1 2.419 1.975c.592.882.908 1.92.908 2.98a5.357 5.357 0 0 1-1.577 3.789 5.406 5.406 0 0 1-3.804 1.575zm0-9.142a3.809 3.809 0 0 0-2.11.634 3.782 3.782 0 0 0-1.4 1.694 3.763 3.763 0 0 0 .818 4.12 3.801 3.801 0 0 0 4.137.822 3.792 3.792 0 0 0 1.704-1.392 3.766 3.766 0 0 0-.47-4.77 3.804 3.804 0 0 0-2.68-1.108z" fill="#FF4521" stroke="#FF4521" stroke-width=".473"/>
    <path d="M10.958 40.993a5.555 5.555 0 0 1-3.078-.926 5.518 5.518 0 0 1-2.042-2.472 5.49 5.49 0 0 1 1.196-6.01 5.56 5.56 0 0 1 6.035-1.198 5.532 5.532 0 0 1 2.487 2.031c.608.907.933 1.973.933 3.063a5.506 5.506 0 0 1-1.621 3.894 5.556 5.556 0 0 1-3.91 1.618zm0-10.726a5.254 5.254 0 0 0-2.912.875 5.22 5.22 0 0 0-1.932 2.339 5.193 5.193 0 0 0 1.13 5.685 5.26 5.26 0 0 0 5.709 1.133 5.232 5.232 0 0 0 2.352-1.92 5.198 5.198 0 0 0 .884-2.898 5.207 5.207 0 0 0-1.534-3.682 5.255 5.255 0 0 0-3.697-1.53v-.002zm0 9.142a3.958 3.958 0 0 1-2.194-.66 3.931 3.931 0 0 1-1.455-1.76 3.911 3.911 0 0 1 .851-4.283 3.961 3.961 0 0 1 4.3-.854c.722.297 1.338.8 1.772 1.446a3.915 3.915 0 0 1-.49 4.958 3.959 3.959 0 0 1-2.784 1.155v-.002zm0-7.557a3.658 3.658 0 0 0-2.028.608c-.6.398-1.069.965-1.346 1.628a3.615 3.615 0 0 0 .786 3.959 3.652 3.652 0 0 0 3.975.79 3.643 3.643 0 0 0 1.637-1.337 3.619 3.619 0 0 0-.451-4.58 3.658 3.658 0 0 0-2.573-1.067v-.001z" fill="#FF4521" stroke="#FF4521" stroke-width=".473"/>
</svg>
