<svg width="74" height="53" viewBox="0 0 74 53" fill="none" xmlns="http://www.w3.org/2000/svg">
<path d="M69.2029 21.4763H54.1029C53.9738 21.4763 53.8459 21.4509 53.7267 21.4015C53.6074 21.3521 53.4991 21.2796 53.4078 21.1884C53.3166 21.0971 53.2441 20.9888 53.1947 20.8695C53.1453 20.7502 53.1199 20.6224 53.1199 20.4933C53.1199 20.3642 53.1453 20.2365 53.1947 20.1172C53.2441 19.9979 53.3166 19.8895 53.4078 19.7982C53.4991 19.7069 53.6074 19.6345 53.7267 19.5851C53.8459 19.5357 53.9738 19.5103 54.1029 19.5103H69.2029C69.4636 19.5103 69.7136 19.6139 69.8979 19.7982C70.0823 19.9826 70.1859 20.2326 70.1859 20.4933C70.1859 20.754 70.0823 21.004 69.8979 21.1884C69.7136 21.3727 69.4636 21.4763 69.2029 21.4763Z" fill="#FF4521"/>
<path d="M69.2029 47.6304H54.1029C53.8422 47.6304 53.5922 47.5268 53.4078 47.3424C53.2235 47.1581 53.1199 46.908 53.1199 46.6473C53.1199 46.3866 53.2235 46.1366 53.4078 45.9523C53.5922 45.7679 53.8422 45.6643 54.1029 45.6643H69.2029C69.4636 45.6643 69.7136 45.7679 69.8979 45.9523C70.0823 46.1366 70.1859 46.3866 70.1859 46.6473C70.1859 46.908 70.0823 47.1581 69.8979 47.3424C69.7136 47.5268 69.4636 47.6304 69.2029 47.6304Z" fill="#FF4521"/>
<path d="M70.271 52.8352H53.0349C52.0956 52.8341 51.1951 52.4606 50.5309 51.7964C49.8667 51.1322 49.493 50.2316 49.4919 49.2922V18.1393C49.493 17.1999 49.8667 16.2993 50.5309 15.6351C51.1951 14.9709 52.0956 14.5973 53.0349 14.5962H70.272C71.2114 14.5972 72.112 14.9708 72.7764 15.635C73.4407 16.2992 73.8146 17.1999 73.8159 18.1393V49.2892C73.8151 50.2292 73.4415 51.1306 72.7769 51.7954C72.1122 52.4602 71.211 52.8341 70.271 52.8352ZM53.0349 16.5613C52.6166 16.5618 52.2155 16.7282 51.9197 17.024C51.6239 17.3199 51.4574 17.7209 51.4569 18.1393V49.2892C51.4574 49.7075 51.6239 50.1086 51.9197 50.4044C52.2155 50.7002 52.6166 50.8667 53.0349 50.8672H70.271C70.6896 50.8667 71.0908 50.7002 71.3868 50.4042C71.6828 50.1082 71.8494 49.7068 71.85 49.2882V18.1362C71.8497 17.7178 71.6833 17.3166 71.3875 17.0208C71.0916 16.7249 70.6904 16.5585 70.272 16.5582L53.0349 16.5613Z" fill="#FF4521"/>
<path d="M50.475 41.885H8.047C5.91361 41.8824 3.86827 41.0338 2.35974 39.5253C0.851209 38.0167 0.00264623 35.9714 0 33.838V4.3291C0.00344236 3.17927 0.462785 2.07767 1.27734 1.26611C2.0919 0.454555 3.19513 -0.000798556 4.34497 1.05131e-06H60.002C61.1497 0.00132437 62.25 0.457852 63.0615 1.26941C63.8731 2.08097 64.3296 3.18139 64.3309 4.3291V12.4821C64.3309 12.7429 64.2273 12.993 64.0428 13.1775C63.8584 13.3619 63.6083 13.4656 63.3474 13.4656C63.0866 13.4656 62.8364 13.3619 62.652 13.1775C62.4675 12.993 62.3639 12.7429 62.3639 12.4821V4.3291C62.3634 3.70273 62.1144 3.10206 61.6716 2.65906C61.2288 2.21605 60.6283 1.96686 60.002 1.96607H4.34497C3.7163 1.96447 3.11266 2.21236 2.66663 2.6554C2.22059 3.09843 1.96859 3.70044 1.96594 4.3291V33.838C1.96806 35.4501 2.60941 36.9955 3.74939 38.1353C4.88937 39.275 6.43496 39.9162 8.047 39.9181H50.475C50.7358 39.9181 50.986 40.0217 51.1704 40.2062C51.3549 40.3906 51.4585 40.6408 51.4585 40.9016C51.4585 41.1625 51.3549 41.4126 51.1704 41.597C50.986 41.7815 50.7358 41.885 50.475 41.885Z" fill="#FF4521"/>
<path d="M46.078 52.8342H18.266C18.0053 52.8342 17.7553 52.7306 17.5709 52.5463C17.3866 52.3619 17.283 52.1119 17.283 51.8512C17.2829 50.5812 17.7362 49.3529 18.561 48.3872L20.142 46.5352L20.1331 43.9991C20.1323 43.7385 20.2348 43.4883 20.4183 43.3032C20.6019 43.1182 20.8514 43.0135 21.1121 43.0122C21.372 43.0125 21.6212 43.1155 21.8054 43.299C21.9896 43.4824 22.0936 43.7313 22.095 43.9912L22.1061 46.8911C22.1066 47.1264 22.0228 47.3543 21.87 47.5332L20.052 49.6611C19.7521 50.0117 19.5275 50.4202 19.392 50.8612H44.944C44.8082 50.4201 44.5832 50.0116 44.283 49.6611L42.465 47.5332C42.3139 47.3556 42.2303 47.1304 42.229 46.8972L42.224 43.9972C42.224 43.7366 42.3272 43.4867 42.5111 43.3021C42.695 43.1175 42.9445 43.0133 43.2051 43.0122C43.4656 43.0122 43.7155 43.1156 43.8998 43.2997C44.0841 43.4838 44.1877 43.7336 44.188 43.9941L44.193 46.5332L45.776 48.3872C46.6009 49.3529 47.0545 50.5811 47.0551 51.8512C47.0551 52.1109 46.9523 52.36 46.7693 52.5442C46.5862 52.7284 46.3377 52.8326 46.078 52.8342Z" fill="#FF4521"/>
<path d="M50.4749 35.7322H5.75391C5.62225 35.7364 5.49104 35.714 5.36816 35.6665C5.24529 35.619 5.13319 35.5473 5.03857 35.4557C4.94395 35.3641 4.86876 35.2544 4.81738 35.1331C4.766 35.0118 4.7395 34.8814 4.7395 34.7496C4.7395 34.6179 4.766 34.4875 4.81738 34.3662C4.86876 34.2449 4.94395 34.1352 5.03857 34.0436C5.13319 33.9519 5.24529 33.8803 5.36816 33.8328C5.49104 33.7853 5.62225 33.7629 5.75391 33.7671H50.4749C50.6065 33.7629 50.7377 33.7853 50.8606 33.8328C50.9835 33.8803 51.0956 33.9519 51.1902 34.0436C51.2848 34.1352 51.36 34.2449 51.4114 34.3662C51.4628 34.4875 51.4893 34.6179 51.4893 34.7496C51.4893 34.8814 51.4628 35.0118 51.4114 35.1331C51.36 35.2544 51.2848 35.3641 51.1902 35.4557C51.0956 35.5473 50.9835 35.619 50.8606 35.6665C50.7377 35.714 50.6065 35.7364 50.4749 35.7322Z" fill="#FF4521"/>
</svg>
