<svg width="36" height="54" viewBox="0 0 36 54" fill="none" xmlns="http://www.w3.org/2000/svg">
<path d="M35.999 0.000734963H8.32199C6.06902 -0.0283242 3.89022 0.80529 2.23199 2.33075C1.57888 2.89943 1.04527 3.59219 0.662109 4.36881C0.278949 5.14543 0.0538824 5.99042 0 6.85474C0 6.89874 4.88292e-06 6.94175 0.00500488 6.98575V52.5267C0.00500488 52.7946 0.1114 53.0515 0.300812 53.2409C0.490224 53.4304 0.747115 53.5367 1.01498 53.5367H34.498C34.7659 53.5367 35.0228 53.4304 35.2122 53.2409C35.4016 53.0515 35.508 52.7946 35.508 52.5267V8.80774C35.508 8.53987 35.4016 8.28298 35.2122 8.09357C35.0228 7.90416 34.7659 7.79773 34.498 7.79773H2.97101C2.83808 7.81101 2.70383 7.79713 2.57645 7.7569C2.44906 7.71667 2.3312 7.65097 2.23001 7.56375C2.09993 7.39928 2.02784 7.19643 2.02499 6.98676V6.79373C2.02499 6.78373 2.02499 6.77374 2.02499 6.76374C2.10099 5.05674 4.26001 2.02274 8.32501 2.02274H35.867L35.999 0.000734963ZM2.02701 9.69873C2.33579 9.7815 2.65433 9.8222 2.974 9.81974H33.49V51.5197H2.02399L2.02701 9.69873Z" fill="#FF4521"/>
<path d="M7.42505 3.90869C7.15718 3.90869 6.90029 4.01512 6.71088 4.20453C6.52146 4.39394 6.41504 4.65083 6.41504 4.9187C6.41504 5.18657 6.52146 5.44346 6.71088 5.63287C6.90029 5.82229 7.15718 5.92868 7.42505 5.92868H34.425C34.6929 5.92868 34.9498 5.82229 35.1392 5.63287C35.3286 5.44346 35.4351 5.18657 35.4351 4.9187C35.4351 4.65083 35.3286 4.39394 35.1392 4.20453C34.9498 4.01512 34.6929 3.90869 34.425 3.90869H7.42505Z" fill="#FF4521"/>
<path d="M17.4619 26.1138L19.9039 28.5678L22.33 26.1278C22.4957 25.9619 22.6389 25.775 22.7559 25.5718C22.9001 25.3208 22.9957 25.0451 23.0379 24.7588C21.6973 23.5632 19.9632 22.9035 18.1669 22.9058C17.6753 22.9056 17.1849 22.9546 16.703 23.0518V24.2988C16.6963 24.7139 16.7947 25.1239 16.989 25.4908C17.1147 25.7209 17.2741 25.9309 17.4619 26.1138Z" fill="#FF4521"/>
<path d="M24.1641 26.0178C24.0656 26.2281 23.9481 26.429 23.813 26.6178C23.6783 26.8075 23.5281 26.9858 23.364 27.1508L20.925 29.5798L23.3781 32.0238C23.5366 32.1847 23.6817 32.3583 23.812 32.5428C24.1288 32.9874 24.3464 33.4949 24.45 34.0308C25.1866 32.8112 25.5521 31.4034 25.5016 29.9795C25.4512 28.5556 24.9871 27.1773 24.166 26.0128L24.1641 26.0178Z" fill="#FF4521"/>
<path d="M16.4269 27.1548C16.2322 26.9612 16.057 26.7489 15.9039 26.5208C15.4699 25.8649 15.2437 25.0933 15.2549 24.3068V23.5128C13.9423 24.0817 12.8247 25.022 12.0396 26.2179C11.2545 27.4138 10.8362 28.8132 10.8362 30.2438C10.8362 31.6744 11.2545 33.0738 12.0396 34.2697C12.8247 35.4656 13.9423 36.4059 15.2549 36.9748V34.8828C15.243 34.0909 15.4733 33.3142 15.9149 32.6568C16.0651 32.4341 16.237 32.2268 16.4279 32.0378L18.8669 29.5858L16.4269 27.1548Z" fill="#FF4521"/>
<path d="M22.3348 33.0268L19.9119 30.5958L17.4609 33.0368C17.2732 33.2228 17.1144 33.4358 16.9899 33.6688C16.7964 34.0436 16.6982 34.4601 16.7038 34.8818V37.4298C18.3664 37.7683 20.0949 37.5209 21.5959 36.7298C22.1293 36.4466 22.626 36.099 23.0749 35.6948L23.0939 34.8858C23.0976 34.434 22.9835 33.9891 22.7629 33.5948C22.6448 33.3881 22.501 33.1973 22.3348 33.0268Z" fill="#FF4521"/>
</svg>
