<svg width="51" height="51" viewBox="0 0 51 51" fill="none" xmlns="http://www.w3.org/2000/svg">
<path d="M16.5941 27.4261C15.6281 27.4261 14.7321 27.2441 13.9061 26.8801C13.0801 26.5161 12.3661 26.0191 11.7641 25.3891L12.8141 24.1711C13.3041 24.6891 13.8781 25.1091 14.5361 25.4311C15.2081 25.7391 15.9011 25.8931 16.6151 25.8931C17.5251 25.8931 18.2321 25.6901 18.7361 25.2841C19.2401 24.8641 19.4921 24.3181 19.4921 23.6461C19.4921 23.2961 19.4291 23.0021 19.3031 22.7641C19.1911 22.5121 19.0301 22.3021 18.8201 22.1341C18.6241 21.9521 18.3861 21.7911 18.1061 21.6511C17.8261 21.5111 17.5251 21.3641 17.2031 21.2101L15.2291 20.3491C14.9071 20.2091 14.5781 20.0411 14.2421 19.8451C13.9061 19.6491 13.6051 19.4111 13.3391 19.1311C13.0731 18.8511 12.8561 18.5221 12.6881 18.1441C12.5201 17.7521 12.4361 17.3041 12.4361 16.8001C12.4361 16.2821 12.5411 15.7991 12.7511 15.3511C12.9751 14.9031 13.2761 14.5181 13.6541 14.1961C14.0461 13.8601 14.5011 13.6011 15.0191 13.4191C15.5511 13.2371 16.1321 13.1461 16.7621 13.1461C17.5881 13.1461 18.3511 13.3071 19.0511 13.6291C19.7511 13.9371 20.3461 14.3431 20.8361 14.8471L19.8911 15.9811C19.4711 15.5751 19.0021 15.2601 18.4841 15.0361C17.9801 14.7981 17.4061 14.6791 16.7621 14.6791C15.9921 14.6791 15.3691 14.8611 14.8931 15.2251C14.4311 15.5751 14.2001 16.0651 14.2001 16.6951C14.2001 17.0311 14.2631 17.3181 14.3891 17.5561C14.5291 17.7801 14.7111 17.9831 14.9351 18.1651C15.1591 18.3331 15.4041 18.4871 15.6701 18.6271C15.9361 18.7531 16.2091 18.8721 16.4891 18.9841L18.4421 19.8241C18.8341 19.9921 19.2051 20.1881 19.5551 20.4121C19.9051 20.6221 20.2061 20.8741 20.4581 21.1681C20.7101 21.4481 20.9061 21.7841 21.0461 22.1761C21.2001 22.5541 21.2771 22.9951 21.2771 23.4991C21.2771 24.0451 21.1651 24.5561 20.9411 25.0321C20.7311 25.5081 20.4231 25.9281 20.0171 26.2921C19.6111 26.6421 19.1211 26.9221 18.5471 27.1321C17.9731 27.3281 17.3221 27.4261 16.5941 27.4261ZM26.5222 27.4261C25.9762 27.4261 25.5142 27.3421 25.1362 27.1741C24.7722 27.0061 24.4712 26.7751 24.2332 26.4811C24.0092 26.1871 23.8482 25.8301 23.7502 25.4101C23.6522 24.9901 23.6032 24.5281 23.6032 24.0241V18.3751H22.0912V17.0731L23.6872 16.9681L23.8972 14.1121H25.3462V16.9681H28.0972V18.3751H25.3462V24.0451C25.3462 24.6751 25.4582 25.1651 25.6822 25.5151C25.9202 25.8511 26.3332 26.0191 26.9212 26.0191C27.1032 26.0191 27.2992 25.9911 27.5092 25.9351C27.7192 25.8791 27.9082 25.8161 28.0762 25.7461L28.4122 27.0481C28.1322 27.1461 27.8242 27.2301 27.4882 27.3001C27.1662 27.3841 26.8442 27.4261 26.5222 27.4261Z" fill="#FF4521"/>
<path d="M13.9061 26.8801L13.9464 26.7886L13.9061 26.8801ZM11.7641 25.3891L11.6883 25.3238L11.6291 25.3925L11.6918 25.4582L11.7641 25.3891ZM12.8141 24.1711L12.8867 24.1024L12.8106 24.0219L12.7383 24.1058L12.8141 24.1711ZM14.5361 25.4311L14.4921 25.5209L14.4944 25.522L14.5361 25.4311ZM18.7361 25.2841L18.7988 25.362L18.8001 25.3609L18.7361 25.2841ZM19.3031 22.7641L19.2115 22.8048L19.2147 22.8109L19.3031 22.7641ZM18.8201 22.1341L18.7519 22.2076L18.7576 22.2122L18.8201 22.1341ZM17.2031 21.2101L17.2463 21.1198L17.2431 21.1184L17.2031 21.2101ZM15.2291 20.3491L15.2691 20.2574L15.269 20.2574L15.2291 20.3491ZM12.6881 18.1441L12.5962 18.1835L12.5967 18.1847L12.6881 18.1441ZM12.7511 15.3511L12.6616 15.3063L12.6605 15.3086L12.7511 15.3511ZM13.6541 14.1961L13.7189 14.2722L13.7192 14.272L13.6541 14.1961ZM15.0191 13.4191L14.9867 13.3245L14.9859 13.3247L15.0191 13.4191ZM19.0511 13.6291L19.0093 13.7199L19.0108 13.7206L19.0511 13.6291ZM20.8361 14.8471L20.9129 14.9111L20.9705 14.8419L20.9078 14.7774L20.8361 14.8471ZM19.8911 15.9811L19.8216 16.053L19.899 16.1278L19.9679 16.0451L19.8911 15.9811ZM18.4841 15.0361L18.4414 15.1265L18.4444 15.1279L18.4841 15.0361ZM14.8931 15.2251L14.9535 15.3048L14.9538 15.3045L14.8931 15.2251ZM14.3891 17.5561L14.3005 17.603L14.3043 17.6091L14.3891 17.5561ZM14.9351 18.1651L14.872 18.2427L14.8751 18.2451L14.9351 18.1651ZM15.6701 18.6271L15.6235 18.7156L15.6273 18.7174L15.6701 18.6271ZM16.4891 18.9841L16.5286 18.8922L16.5262 18.8912L16.4891 18.9841ZM18.4421 19.8241L18.4026 19.9159L18.4027 19.916L18.4421 19.8241ZM19.5551 20.4121L19.5012 20.4963L19.5036 20.4978L19.5551 20.4121ZM20.4581 21.1681L20.3821 21.2332L20.3838 21.235L20.4581 21.1681ZM21.0461 22.1761L20.9518 22.2097L20.9535 22.2138L21.0461 22.1761ZM20.9411 25.0321L20.8506 24.9895L20.8496 24.9917L20.9411 25.0321ZM20.0171 26.2921L20.0824 26.3678L20.0838 26.3665L20.0171 26.2921ZM18.5471 27.1321L18.5794 27.2267L18.5814 27.226L18.5471 27.1321ZM16.5941 27.3261C15.641 27.3261 14.7588 27.1466 13.9464 26.7886L13.8658 26.9716C14.7053 27.3416 15.6152 27.5261 16.5941 27.5261V27.3261ZM13.9464 26.7886C13.132 26.4297 12.429 25.9401 11.8364 25.32L11.6918 25.4582C12.3032 26.098 13.0282 26.6025 13.8658 26.9716L13.9464 26.7886ZM11.8398 25.4544L12.8898 24.2364L12.7383 24.1058L11.6883 25.3238L11.8398 25.4544ZM12.7414 24.2398C13.2399 24.7667 13.8237 25.1938 14.4921 25.5209L14.58 25.3413C13.9325 25.0244 13.3683 24.6114 12.8867 24.1024L12.7414 24.2398ZM14.4944 25.522C15.179 25.8358 15.8862 25.9931 16.6151 25.9931V25.7931C15.916 25.7931 15.2371 25.6424 14.5777 25.3402L14.4944 25.522ZM16.6151 25.9931C17.5388 25.9931 18.271 25.7871 18.7988 25.3619L18.6733 25.2062C18.1931 25.5931 17.5114 25.7931 16.6151 25.7931V25.9931ZM18.8001 25.3609C19.3275 24.9214 19.5921 24.3469 19.5921 23.6461H19.3921C19.3921 24.2892 19.1526 24.8068 18.6721 25.2073L18.8001 25.3609ZM19.5921 23.6461C19.5921 23.2845 19.527 22.9734 19.3915 22.7173L19.2147 22.8109C19.3311 23.0308 19.3921 23.3076 19.3921 23.6461H19.5921ZM19.3945 22.7235C19.2761 22.4572 19.1054 22.2342 18.8826 22.056L18.7576 22.2122C18.9548 22.3699 19.106 22.5669 19.2117 22.8047L19.3945 22.7235ZM18.8881 22.0608C18.6841 21.8713 18.4379 21.7052 18.1508 21.5616L18.0614 21.7405C18.3343 21.877 18.5641 22.0328 18.752 22.2074L18.8881 22.0608ZM18.1508 21.5616C17.8702 21.4213 17.5687 21.2741 17.2462 21.1199L17.1599 21.3003C17.4815 21.4541 17.7819 21.6008 18.0614 21.7405L18.1508 21.5616ZM17.2431 21.1184L15.2691 20.2574L15.1891 20.4407L17.1631 21.3017L17.2431 21.1184ZM15.269 20.2574C14.9509 20.1191 14.6254 19.9529 14.2925 19.7587L14.1917 19.9314C14.5307 20.1292 14.8632 20.2991 15.1892 20.4408L15.269 20.2574ZM14.2925 19.7587C13.9646 19.5674 13.671 19.3353 13.4116 19.0622L13.2666 19.1999C13.5391 19.4868 13.8476 19.7307 14.1917 19.9314L14.2925 19.7587ZM13.4116 19.0622C13.154 18.791 12.9432 18.4718 12.7795 18.1035L12.5967 18.1847C12.769 18.5724 12.9922 18.9111 13.2666 19.1999L13.4116 19.0622ZM12.78 18.1047C12.6182 17.7272 12.5361 17.293 12.5361 16.8001H12.3361C12.3361 17.3152 12.422 17.777 12.5962 18.1835L12.78 18.1047ZM12.5361 16.8001C12.5361 16.296 12.6381 15.8276 12.8416 15.3935L12.6605 15.3086C12.444 15.7705 12.3361 16.2681 12.3361 16.8001H12.5361ZM12.8405 15.3958C13.0586 14.9597 13.3512 14.5854 13.7189 14.2722L13.5892 14.1199C13.2009 14.4507 12.8916 14.8464 12.6616 15.3064L12.8405 15.3958ZM13.7192 14.272C14.1012 13.9446 14.5452 13.6916 15.0522 13.5134L14.9859 13.3247C14.457 13.5106 13.991 13.7756 13.589 14.1201L13.7192 14.272ZM15.0514 13.5137C15.5719 13.3357 16.1418 13.2461 16.7621 13.2461V13.0461C16.1224 13.0461 15.5303 13.1385 14.9867 13.3245L15.0514 13.5137ZM16.7621 13.2461C17.5747 13.2461 18.3233 13.4044 19.0093 13.7199L19.0929 13.5382C18.3788 13.2098 17.6015 13.0461 16.7621 13.0461V13.2461ZM19.0108 13.7206C19.7001 14.0239 20.2841 14.4228 20.7644 14.9168L20.9078 14.7774C20.408 14.2634 19.8021 13.8503 19.0914 13.5375L19.0108 13.7206ZM20.7593 14.7831L19.8143 15.9171L19.9679 16.0451L20.9129 14.9111L20.7593 14.7831ZM19.9606 15.9092C19.5322 15.4951 19.0532 15.1732 18.5238 14.9443L18.4444 15.1279C18.9509 15.3469 19.4099 15.655 19.8216 16.053L19.9606 15.9092ZM18.5268 14.9456C18.0075 14.7004 17.4186 14.5791 16.7621 14.5791V14.7791C17.3936 14.7791 17.9527 14.8957 18.4414 15.1265L18.5268 14.9456ZM16.7621 14.5791C15.9764 14.5791 15.3302 14.7649 14.8323 15.1456L14.9538 15.3045C15.408 14.9572 16.0077 14.7791 16.7621 14.7791V14.5791ZM14.8327 15.1454C14.3433 15.5161 14.1001 16.0369 14.1001 16.6951H14.3001C14.3001 16.0932 14.5188 15.6341 14.9535 15.3048L14.8327 15.1454ZM14.1001 16.6951C14.1001 17.0434 14.1654 17.3473 14.3007 17.6029L14.4775 17.5093C14.3608 17.2888 14.3001 17.0187 14.3001 16.6951H14.1001ZM14.3043 17.6091C14.4506 17.8432 14.6403 18.0544 14.872 18.2427L14.9981 18.0875C14.7819 17.9118 14.6075 17.7169 14.4739 17.5031L14.3043 17.6091ZM14.8751 18.2451C15.1036 18.4165 15.3532 18.5733 15.6235 18.7156L15.7167 18.5386C15.455 18.4009 15.2145 18.2497 14.9951 18.0851L14.8751 18.2451ZM15.6273 18.7174C15.8952 18.8443 16.1701 18.9642 16.4519 19.0769L16.5262 18.8912C16.2481 18.78 15.977 18.6618 15.7129 18.5367L15.6273 18.7174ZM16.4496 19.0759L18.4026 19.9159L18.4816 19.7322L16.5286 18.8922L16.4496 19.0759ZM18.4027 19.916C18.7898 20.0819 19.1559 20.2753 19.5012 20.4963L19.609 20.3278C19.2542 20.1008 18.8784 19.9023 18.4815 19.7322L18.4027 19.916ZM19.5036 20.4978C19.8449 20.7026 20.1375 20.9477 20.3822 21.2332L20.534 21.103C20.2746 20.8004 19.9652 20.5416 19.6065 20.3263L19.5036 20.4978ZM20.3838 21.235C20.6262 21.5043 20.8158 21.8287 20.9519 22.2097L21.1403 22.1424C20.9963 21.7395 20.794 21.3918 20.5324 21.1012L20.3838 21.235ZM20.9535 22.2138C21.1016 22.5774 21.1771 23.0051 21.1771 23.4991H21.3771C21.3771 22.9851 21.2986 22.5308 21.1387 22.1383L20.9535 22.2138ZM21.1771 23.4991C21.1771 24.0309 21.0681 24.5273 20.8506 24.9895L21.0316 25.0747C21.2621 24.5848 21.3771 24.0592 21.3771 23.4991H21.1771ZM20.8496 24.9917C20.6456 25.4541 20.3463 25.8626 19.9503 26.2176L20.0838 26.3665C20.4999 25.9935 20.8166 25.5621 21.0326 25.0724L20.8496 24.9917ZM19.9518 26.2163C19.5561 26.5574 19.077 26.8317 18.5127 27.0382L18.5814 27.226C19.1652 27.0124 19.6661 26.7267 20.0824 26.3678L19.9518 26.2163ZM18.5148 27.0374C17.953 27.2293 17.3132 27.3261 16.5941 27.3261V27.5261C17.3309 27.5261 17.9931 27.4269 18.5794 27.2267L18.5148 27.0374ZM25.1362 27.1741L25.0942 27.2649L25.0955 27.2655L25.1362 27.1741ZM24.2332 26.4811L24.1536 26.5417L24.1554 26.544L24.2332 26.4811ZM23.7502 25.4101L23.8475 25.3874L23.7502 25.4101ZM23.6032 18.3751H23.7032V18.2751H23.6032V18.3751ZM22.0912 18.3751H21.9912V18.4751H22.0912V18.3751ZM22.0912 17.0731L22.0846 16.9733L21.9912 16.9794V17.0731H22.0912ZM23.6872 16.9681L23.6937 17.0679L23.7805 17.0621L23.7869 16.9754L23.6872 16.9681ZM23.8972 14.1121V14.0121H23.8042L23.7974 14.1047L23.8972 14.1121ZM25.3462 14.1121H25.4462V14.0121H25.3462V14.1121ZM25.3462 16.9681H25.2462V17.0681H25.3462V16.9681ZM28.0972 16.9681H28.1972V16.8681H28.0972V16.9681ZM28.0972 18.3751V18.4751H28.1972V18.3751H28.0972ZM25.3462 18.3751V18.2751H25.2462V18.3751H25.3462ZM25.6822 25.5151L25.5978 25.569L25.6006 25.5729L25.6822 25.5151ZM27.5092 25.9351L27.4834 25.8384L27.5092 25.9351ZM28.0762 25.7461L28.173 25.7211L28.1442 25.6094L28.0377 25.6538L28.0762 25.7461ZM28.4122 27.0481L28.4452 27.1425L28.532 27.1121L28.509 27.0231L28.4122 27.0481ZM27.4882 27.3001L27.4677 27.2021L27.4629 27.2033L27.4882 27.3001ZM26.5222 27.3261C25.9859 27.3261 25.5386 27.2435 25.1768 27.0827L25.0955 27.2655C25.4897 27.4406 25.9664 27.5261 26.5222 27.5261V27.3261ZM25.1781 27.0833C24.8271 26.9213 24.5387 26.6995 24.3109 26.4182L24.1554 26.544C24.4037 26.8506 24.7172 27.0908 25.0943 27.2649L25.1781 27.0833ZM24.3127 26.4205C24.0986 26.1394 23.9429 25.7959 23.8475 25.3874L23.6528 25.4328C23.7535 25.8643 23.9198 26.2347 24.1536 26.5417L24.3127 26.4205ZM23.8475 25.3874C23.7515 24.9759 23.7032 24.5217 23.7032 24.0241H23.5032C23.5032 24.5345 23.5528 25.0042 23.6528 25.4328L23.8475 25.3874ZM23.7032 24.0241V18.3751H23.5032V24.0241H23.7032ZM23.6032 18.2751H22.0912V18.4751H23.6032V18.2751ZM22.1912 18.3751V17.0731H21.9912V18.3751H22.1912ZM22.0977 17.1729L23.6937 17.0679L23.6806 16.8683L22.0846 16.9733L22.0977 17.1729ZM23.7869 16.9754L23.9969 14.1194L23.7974 14.1047L23.5874 16.9607L23.7869 16.9754ZM23.8972 14.2121H25.3462V14.0121H23.8972V14.2121ZM25.2462 14.1121V16.9681H25.4462V14.1121H25.2462ZM25.3462 17.0681H28.0972V16.8681H25.3462V17.0681ZM27.9972 16.9681V18.3751H28.1972V16.9681H27.9972ZM28.0972 18.2751H25.3462V18.4751H28.0972V18.2751ZM25.2462 18.3751V24.0451H25.4462V18.3751H25.2462ZM25.2462 24.0451C25.2462 24.685 25.3596 25.1966 25.5979 25.569L25.7664 25.4612C25.5567 25.1336 25.4462 24.6651 25.4462 24.0451H25.2462ZM25.6006 25.5729C25.8645 25.9455 26.3155 26.1191 26.9212 26.1191V25.9191C26.3508 25.9191 25.9758 25.7567 25.7638 25.4573L25.6006 25.5729ZM26.9212 26.1191C27.1133 26.1191 27.3181 26.0895 27.5349 26.0317L27.4834 25.8384C27.2802 25.8926 27.093 25.9191 26.9212 25.9191V26.1191ZM27.5349 26.0317C27.7484 25.9748 27.9418 25.9104 28.1146 25.8384L28.0377 25.6538C27.8745 25.7218 27.6899 25.7834 27.4834 25.8384L27.5349 26.0317ZM27.9793 25.7711L28.3153 27.0731L28.509 27.0231L28.173 25.7211L27.9793 25.7711ZM28.3791 26.9537C28.1038 27.05 27.8001 27.1329 27.4678 27.2022L27.5086 27.398C27.8482 27.3272 28.1605 27.2421 28.4452 27.1425L28.3791 26.9537ZM27.4629 27.2033C27.1489 27.2852 26.8354 27.3261 26.5222 27.3261V27.5261C26.853 27.5261 27.1834 27.4829 27.5134 27.3968L27.4629 27.2033Z" fill="#FF4521"/>
<path d="M42.3832 11.44C41.3357 10.1394 40.1437 8.96221 38.8301 7.93102C36.7726 5.44607 34.1914 3.44656 31.271 2.07549C28.3506 0.704424 25.1633 -0.00430639 21.9371 1.9686e-05H6.73014V6.12603C4.46463 8.30465 2.69383 10.9447 1.53769 13.8675C0.381557 16.7902 -0.132887 19.9272 0.0291786 23.0661C0.191244 26.205 1.02603 29.2724 2.47702 32.0605C3.92802 34.8486 5.96132 37.2923 8.43915 39.226C9.37308 40.3383 10.4156 41.3546 11.5512 42.26C13.6037 44.8439 16.2137 46.9305 19.186 48.364C22.1584 49.7974 25.4162 50.5406 28.7161 50.538H28.7332C33.2828 50.5367 37.7195 49.1206 41.4288 46.4861C45.1381 43.8516 47.9364 40.1288 49.4363 35.8335C50.9361 31.5381 51.0633 26.8827 49.8002 22.5119C48.537 18.1411 45.9461 14.2711 42.3861 11.438L42.3832 11.44ZM8.43613 7.31102L8.76114 7.01104V2.03103H21.9401C26.581 2.02989 31.0766 3.64995 34.6499 6.61126C38.2233 9.57256 40.65 13.6891 41.5106 18.2495C42.3713 22.8099 41.6119 27.5277 39.3637 31.5877C37.1154 35.6477 33.5196 38.7948 29.1975 40.4852C24.8754 42.1756 20.0985 42.3032 15.6924 40.8458C11.2862 39.3884 7.52757 36.4377 5.06589 32.5034C2.60421 28.5692 1.59414 23.8986 2.21024 19.2988C2.82634 14.6989 5.02989 10.4588 8.44013 7.31102H8.43613ZM21.9361 43.881H21.9531C25.2714 43.8806 28.5464 43.1273 31.5313 41.6778C34.5163 40.2284 37.1335 38.1206 39.1859 35.5132C41.2384 32.9058 42.6725 29.8667 43.3803 26.6248C44.088 23.3829 44.0511 20.0226 43.2721 16.797C44.9566 20.4397 45.4986 24.5071 44.8267 28.4637C44.1548 32.4203 42.3006 36.0808 39.508 38.9632C36.7155 41.8456 33.1156 43.8148 29.1822 44.6116C25.2488 45.4084 21.1663 44.9954 17.4721 43.427C18.9418 43.7303 20.4386 43.8824 21.9392 43.881H21.9361ZM42.2161 43.234C39.2335 45.984 35.4816 47.7566 31.4633 48.3144C27.4449 48.8722 23.3521 48.1886 19.7332 46.355C21.5224 46.8133 23.3622 47.0445 25.2091 47.043H25.2261C28.5722 47.0392 31.8732 46.2707 34.8769 44.7962C37.8806 43.3216 40.5075 41.1801 42.5571 38.5351C44.6067 35.8902 46.0246 32.8118 46.7026 29.5351C47.3806 26.2585 47.3008 22.8702 46.4692 19.629C48.423 23.4906 49.0651 27.8837 48.2983 32.143C47.5314 36.4022 45.3972 40.2955 42.2192 43.233L42.2161 43.234Z" fill="#FF4521"/>
</svg>
