<svg width="344" height="343" viewBox="0 0 344 343" fill="none" xmlns="http://www.w3.org/2000/svg">
<path d="M171.522 342.685C195.315 342.692 218.848 337.74 240.619 328.149C262.389 318.557 281.918 304.535 297.958 286.978C298.268 286.723 298.559 286.447 298.831 286.152C299.107 285.845 299.36 285.519 299.589 285.176C327.569 253.85 343.033 213.332 343.033 171.347C343.033 129.361 327.569 88.8437 299.589 57.5173C299.36 57.1746 299.107 56.8484 298.831 56.5417C298.559 56.2467 298.268 55.9708 297.958 55.7157C281.913 38.1612 262.381 24.1402 240.61 14.5472C218.838 4.95427 195.305 0 171.51 0C147.715 0 124.182 4.95427 102.41 14.5472C80.6391 24.1402 61.1075 38.1612 45.062 55.7157C44.7565 55.9671 44.4689 56.2391 44.2009 56.5301C43.9293 56.8332 43.6798 57.1554 43.4544 57.4941C15.4679 88.8221 0 129.344 0 171.335C0 213.326 15.4679 253.848 43.4544 285.176C43.6803 285.514 43.9298 285.837 44.2009 286.14C44.4687 286.431 44.7563 286.703 45.062 286.955C61.1031 304.519 80.6349 318.547 102.409 328.143C124.184 337.739 147.723 342.692 171.522 342.685ZM17.6251 179.992H74.8077C75.3476 203.223 78.746 226.299 84.926 248.7C73.1026 253.802 61.9608 260.354 51.7578 268.206C31.338 243.138 19.3713 212.263 17.5676 179.992H17.6251ZM51.7578 74.4988C61.9612 82.3502 73.1029 88.9027 84.926 94.0051C78.746 116.406 75.3476 139.482 74.8077 162.713H17.6251C19.3953 130.455 31.3211 99.5811 51.7003 74.4988H51.7578ZM325.522 162.713H268.339C267.8 139.482 264.401 116.406 258.22 94.0051C270.044 88.9034 281.186 82.3508 291.389 74.4988C311.766 99.578 323.692 130.448 325.464 162.701L325.522 162.713ZM291.389 268.206C281.182 260.354 270.037 253.801 258.209 248.7C264.39 226.299 267.788 203.223 268.327 179.992H325.51C323.71 212.261 311.747 243.136 291.332 268.206H291.389ZM180.216 248.78C199.457 249.476 218.503 252.883 236.79 258.901C233.886 266.936 230.397 274.747 226.35 282.273C213.43 306.094 197.294 320.746 180.216 324.452V248.78ZM180.216 231.489V179.992H251.02C250.505 201.102 247.478 222.075 242.004 242.469C222.017 235.903 201.198 232.205 180.17 231.489H180.216ZM180.216 162.713V111.216C201.228 110.495 222.032 106.798 242.004 100.236C247.478 120.63 250.505 141.603 251.02 162.713H180.216ZM180.216 93.9245V18.1952C197.305 21.9129 213.43 36.5539 226.35 60.3743C230.397 67.9 233.886 75.7117 236.79 83.747C218.49 89.7835 199.428 93.2062 180.17 93.9133L180.216 93.9245ZM162.92 93.9245C143.679 93.2279 124.632 89.821 106.345 83.8044C109.248 75.7688 112.737 67.957 116.785 60.4317C129.705 36.6113 145.842 21.9585 162.92 18.2523V93.9245ZM162.92 111.216V162.713H92.1156C92.6318 141.604 95.6583 120.631 101.131 100.236C121.075 106.785 141.847 110.479 162.827 111.205L162.92 111.216ZM162.92 179.992V231.489C141.907 232.21 121.104 235.907 101.131 242.469C95.6582 222.074 92.6317 201.101 92.1156 179.992H162.92ZM162.92 248.837V324.567C145.83 320.85 129.705 306.208 116.785 282.388C112.737 274.863 109.248 267.051 106.345 259.015C124.597 252.968 143.612 249.522 162.827 248.78L162.92 248.837ZM101.568 290.569C106.497 299.833 112.482 308.496 119.404 316.386C98.4039 308.801 79.2987 296.76 63.4035 281.091C71.7207 274.817 80.7253 269.509 90.2436 265.269C93.3879 273.944 97.1571 282.381 101.522 290.512L101.568 290.569ZM241.568 290.569C245.95 282.42 249.735 273.965 252.892 265.269C262.41 269.509 271.415 274.817 279.732 281.091C263.835 296.756 244.73 308.793 223.732 316.375C230.635 308.467 236.601 299.788 241.51 290.512L241.568 290.569ZM252.892 77.5509C249.734 68.8548 245.95 60.3992 241.568 52.2504C236.637 42.9872 230.652 34.3241 223.732 26.4335C244.731 34.0182 263.837 46.0593 279.732 61.728C271.397 67.9842 262.377 73.2736 252.846 77.4938L252.892 77.5509ZM101.522 52.1815C97.1387 60.3299 93.3541 68.7858 90.1977 77.4822C80.6797 73.2412 71.6751 67.9328 63.3576 61.6594C79.2541 45.995 98.3592 33.9577 119.358 26.3761C112.438 34.2631 106.453 42.9222 101.522 52.1815Z" fill="#6A6E81" fill-opacity="0.09"/>
</svg>
