<svg width="58" height="46" viewBox="0 0 58 46" fill="none" xmlns="http://www.w3.org/2000/svg">
<path d="M42.9158 41.2145C42.9159 41.1349 42.9003 41.0559 42.8699 40.9824C42.8395 40.9088 42.7949 40.842 42.7386 40.7857C42.6823 40.7295 42.6154 40.6848 42.5419 40.6543C42.4683 40.6239 42.3895 40.6084 42.3099 40.6085H32.3739C31.9925 40.6386 31.614 40.5228 31.3146 40.2846C31.1945 40.1466 31.1055 39.9844 31.0537 39.8089C31.0019 39.6335 30.9886 39.4489 31.0146 39.2678C31.1134 37.1073 31.0188 26.9098 31.0146 26.4615C31.0216 26.2111 31.1139 25.9706 31.2762 25.7797C31.3926 25.6729 31.5291 25.5903 31.6778 25.5369C31.8265 25.4835 31.9844 25.4602 32.1421 25.4686C32.7251 25.4507 34.9888 25.4456 37.7476 25.4456C43.2022 25.4456 50.617 25.478 50.7304 25.4669C51.1171 25.4382 51.5014 25.5488 51.8136 25.7788C51.9085 25.8776 51.9812 25.9954 52.0272 26.1244C52.0732 26.2534 52.0914 26.3907 52.0804 26.5272V29.8169C52.0804 29.9774 52.1441 30.1314 52.2575 30.2448C52.371 30.3583 52.525 30.422 52.6855 30.422C52.8459 30.422 52.9999 30.3583 53.1134 30.2448C53.2268 30.1314 53.2905 29.9774 53.2905 29.8169V26.5272C53.3039 26.2221 53.2518 25.9178 53.1379 25.6345C53.024 25.3513 52.8509 25.0957 52.6301 24.8848C52.0855 24.4361 51.3902 24.212 50.6861 24.2584C50.2727 24.2584 44.2028 24.2396 39.0831 24.2371C39.4542 22.7345 39.6436 21.1928 39.6473 19.6451C39.6473 19.6101 39.6431 19.5777 39.6431 19.5436C39.6431 19.5342 39.6473 19.5265 39.6473 19.518C39.6473 19.5095 39.6397 19.4899 39.6388 19.4754C39.5793 14.2879 37.4761 9.33328 33.7858 5.68702C30.0955 2.04076 25.116 -0.00280669 19.9282 2.89321e-06H19.8787H19.8668C19.8592 2.89321e-06 19.854 2.89321e-06 19.8463 2.89321e-06C14.6429 0.0170849 9.65741 2.09195 5.9783 5.77171C2.29918 9.45146 0.225164 14.4373 0.208985 19.6408C0.208007 24.2732 1.85618 28.7545 4.85823 32.2825C4.86249 32.2902 4.86248 32.2988 4.86759 32.3056C4.8889 32.3414 4.92552 32.3568 4.9528 32.3857C6.79379 34.5379 9.0772 36.2678 11.6474 37.4574C14.2176 38.6469 17.0142 39.2683 19.8463 39.279C19.853 39.2808 19.8599 39.2823 19.8668 39.2832H19.8787C19.8957 39.2832 19.9112 39.2832 19.9282 39.2832C23.4163 39.2794 26.84 38.3447 29.8461 36.5755C29.8419 37.7474 29.8282 38.7062 29.8061 39.2022C29.7676 39.5576 29.8083 39.9171 29.9253 40.2548C30.0423 40.5926 30.2327 40.9002 30.4827 41.1556C30.9748 41.588 31.61 41.8222 32.2649 41.8127C32.319 41.8133 32.373 41.8111 32.4268 41.8059H42.3132C42.471 41.8055 42.6224 41.7435 42.735 41.6329C42.8476 41.5224 42.9124 41.3722 42.9158 41.2145ZM27.1384 28.2803C25.2744 27.7559 23.3606 27.4286 21.4282 27.3036H20.4727V20.1257H28.8737C28.8308 22.9308 28.2413 25.7007 27.1384 28.2803ZM20.4711 38.0644V28.5147H21.4086C23.1888 28.6406 24.9522 28.9424 26.6731 29.4156C25.2847 32.5116 23.4913 35.4093 21.3396 38.0329C21.0532 38.0525 20.7617 38.0559 20.4711 38.0644ZM18.562 38.0158C16.3924 35.3663 14.5797 32.4437 13.1704 29.3226C14.7569 28.8719 16.389 28.6011 18.0361 28.5155H19.2608V38.0525C19.0281 38.0422 18.7946 38.0321 18.5628 38.015L18.562 38.0158ZM1.44308 20.13H9.63263C9.74068 23.0278 10.3782 25.8814 11.5136 28.5496C9.43249 29.229 7.42565 30.1175 5.52386 31.2019C2.97694 28.0623 1.54223 24.1673 1.44402 20.1257L1.44308 20.13ZM5.58181 8.02246C7.38071 9.05526 9.2753 9.91153 11.2392 10.5793C10.3204 13.2691 9.78197 16.0741 9.63949 18.9129H1.45765C1.61018 14.9307 3.05853 11.1071 5.58264 8.0233L5.58181 8.02246ZM18.3284 1.29798C18.6361 1.27156 18.948 1.26224 19.26 1.25116V10.7506H18.1879C16.3693 10.6543 14.5692 10.3374 12.827 9.80713C14.0342 6.61066 15.9111 3.70937 18.3319 1.29798H18.3284ZM21.1648 1.28008C23.618 3.71312 25.5364 6.63128 26.7975 9.84802C25.0824 10.3184 23.3255 10.6205 21.5517 10.7498H20.4694V1.24513C20.7046 1.25109 20.9355 1.26389 21.1656 1.28008H21.1648ZM20.4702 11.9592H21.5722C23.4861 11.836 25.3818 11.5135 27.2288 10.9969C28.1447 13.548 28.69 16.2172 28.8481 18.9231H20.4711L20.4702 11.9592ZM18.1614 11.9592H19.26V18.9189H10.8514C10.9925 16.2027 11.517 13.5202 12.4094 10.9509C14.2787 11.5196 16.2102 11.8584 18.1614 11.96V11.9592ZM10.8463 20.1291H19.26V27.3028H18.0096C16.2114 27.3944 14.4296 27.6921 12.6991 28.19C11.6124 25.6318 10.9857 22.9018 10.848 20.1257L10.8463 20.1291ZM30.06 18.9189C29.9015 16.1008 29.3464 13.319 28.4109 10.656C30.4762 10.0225 32.4744 9.1881 34.3769 8.16479C36.8365 11.2249 38.2455 14.9957 38.3953 18.9189H30.06ZM33.5612 7.22814C31.7798 8.16271 29.9142 8.92689 27.9891 9.51052C26.8322 6.57587 25.1707 3.86632 23.0799 1.50429C27.1111 2.20035 30.7978 4.21328 33.5629 7.22814H33.5612ZM16.3784 1.56473C14.3553 3.89104 12.7557 6.55416 11.6525 9.43301C9.83906 8.81144 8.08444 8.02996 6.40933 7.09778C9.06731 4.24961 12.5568 2.31354 16.3801 1.56567L16.3784 1.56473ZM6.34285 32.13C8.14105 31.1354 10.0297 30.3138 11.9833 29.6763C13.2869 32.5727 14.9303 35.3038 16.8788 37.8121C12.8347 37.1383 9.12924 35.1398 6.34462 32.1308L6.34285 32.13ZM23.0279 37.8156C24.9577 35.3318 26.581 32.6244 27.8629 29.7521C28.4927 29.943 29.1524 30.1664 29.8317 30.4204C29.841 31.9238 29.8478 33.6462 29.8478 35.1931C27.773 36.5133 25.4551 37.405 23.0304 37.8156H23.0279ZM30.3924 24.9572C30.0127 25.3779 29.8025 25.9246 29.8026 26.4914C29.8026 26.5255 29.8129 27.6044 29.824 29.1283C29.3126 28.9425 28.8106 28.7763 28.3282 28.6263C29.4735 25.94 30.0703 23.0519 30.0839 20.1316H38.4167C38.3762 21.5207 38.176 22.9006 37.82 24.2439C35.0237 24.2439 32.7132 24.2499 32.1098 24.2661C31.792 24.2588 31.4761 24.3162 31.1813 24.4351C30.8864 24.5539 30.6189 24.7316 30.395 24.9572H30.3924Z" fill="#FF4521"/>
<path d="M47.2114 29.2486C47.2115 29.1691 47.196 29.0903 47.1655 29.0167C47.1351 28.9432 47.0904 28.8764 47.0341 28.8202C46.9778 28.764 46.911 28.7194 46.8374 28.6891C46.7638 28.6588 46.6851 28.6433 46.6055 28.6436H33.7633C33.6028 28.6436 33.449 28.7073 33.3355 28.8207C33.222 28.9342 33.1582 29.0882 33.1582 29.2486C33.1582 29.4091 33.222 29.5631 33.3355 29.6765C33.449 29.79 33.6028 29.8537 33.7633 29.8537H46.6055C46.685 29.8538 46.7638 29.8383 46.8373 29.8079C46.9108 29.7776 46.9777 29.7331 47.0339 29.6769C47.0902 29.6207 47.1349 29.5539 47.1653 29.4804C47.1958 29.407 47.2114 29.3282 47.2114 29.2486Z" fill="#FF4521"/>
<path d="M44.0333 31.3174H33.7633C33.6028 31.3174 33.449 31.3811 33.3355 31.4946C33.222 31.608 33.1582 31.762 33.1582 31.9225C33.1582 32.083 33.222 32.2369 33.3355 32.3504C33.449 32.4639 33.6028 32.5277 33.7633 32.5277H44.0333C44.1938 32.5277 44.3477 32.4639 44.4612 32.3504C44.5747 32.2369 44.6384 32.083 44.6384 31.9225C44.6384 31.762 44.5747 31.608 44.4612 31.4946C44.3477 31.3811 44.1938 31.3174 44.0333 31.3174Z" fill="#FF4521"/>
<path d="M44.0333 36.4727H33.7633C33.6028 36.4727 33.449 36.5365 33.3355 36.6499C33.222 36.7634 33.1582 36.9174 33.1582 37.0778C33.1582 37.2383 33.222 37.3922 33.3355 37.5056C33.449 37.6191 33.6028 37.6829 33.7633 37.6829H44.0333C44.1938 37.6829 44.3477 37.6191 44.4612 37.5056C44.5747 37.3922 44.6384 37.2383 44.6384 37.0778C44.6384 36.9174 44.5747 36.7634 44.4612 36.6499C44.3477 36.5365 44.1938 36.4727 44.0333 36.4727Z" fill="#FF4521"/>
<path d="M44.0333 33.8945H33.7633C33.6028 33.8945 33.449 33.9583 33.3355 34.0718C33.222 34.1853 33.1582 34.3392 33.1582 34.4997C33.1582 34.6602 33.222 34.8141 33.3355 34.9276C33.449 35.0411 33.6028 35.1048 33.7633 35.1048H44.0333C44.1938 35.1048 44.3477 35.0411 44.4612 34.9276C44.5747 34.8141 44.6384 34.6602 44.6384 34.4997C44.6384 34.3392 44.5747 34.1853 44.4612 34.0718C44.3477 33.9583 44.1938 33.8945 44.0333 33.8945Z" fill="#FF4521"/>
<path d="M57.2232 43.2416L54.6842 38.3401C55.1591 37.5922 55.4313 36.7338 55.4742 35.8489C55.5171 34.9641 55.3292 34.0833 54.9288 33.293C54.5285 32.5027 53.9295 31.8302 53.1907 31.3414C52.4519 30.8525 51.5986 30.5642 50.7147 30.5047C49.8308 30.4452 48.9466 30.6166 48.149 31.002C47.3514 31.3874 46.6676 31.9737 46.165 32.7032C45.6624 33.4327 45.3581 34.2804 45.282 35.163C45.2059 36.0456 45.3607 36.9329 45.7311 37.7376L42.7762 42.6637C42.711 42.772 42.6813 42.8982 42.6914 43.0242C42.7015 43.1502 42.7508 43.2699 42.8325 43.3665C42.9141 43.463 43.0238 43.5316 43.1464 43.5626C43.269 43.5935 43.3983 43.5853 43.516 43.5391L45.6893 42.6919L46.2501 44.7484C46.2827 44.8672 46.3505 44.9732 46.4448 45.0525C46.539 45.1318 46.6551 45.1806 46.7777 45.1924H46.8339C46.9475 45.1925 47.0589 45.1606 47.1552 45.1003C47.2515 45.04 47.3289 44.9537 47.3785 44.8515L49.4197 40.6293C49.7338 40.6898 50.0528 40.7209 50.3726 40.7223C50.4365 40.7223 50.4987 40.7146 50.5617 40.7121L52.6643 45.6322C52.711 45.7414 52.7887 45.8345 52.8878 45.8999C52.9869 45.9653 53.1029 46.0003 53.2217 46.0004C53.2413 46.0004 53.2609 46.0004 53.2814 46.0004C53.4096 45.9875 53.5303 45.9342 53.6261 45.8481C53.7219 45.762 53.7877 45.6475 53.8141 45.5214L54.3092 43.1479L56.4441 44.0777C56.5588 44.1277 56.6862 44.141 56.8087 44.1157C56.9312 44.0903 57.0429 44.0276 57.1283 43.9362C57.2137 43.8448 57.2687 43.7292 57.2857 43.6052C57.3027 43.4813 57.2808 43.3551 57.2232 43.2441V43.2416ZM46.9958 42.87L46.683 41.7246C46.6605 41.6427 46.6212 41.5664 46.5675 41.5007C46.5138 41.4349 46.4469 41.3811 46.3711 41.3427C46.2952 41.3045 46.212 41.2828 46.1271 41.279C46.0422 41.2751 45.9575 41.2893 45.8785 41.3206L44.7279 41.7689L46.4572 38.8865C46.9478 39.4721 47.563 39.9406 48.258 40.2577L46.9958 42.87ZM46.4768 35.6129C46.477 34.8419 46.7057 34.0884 47.1341 33.4474C47.5625 32.8065 48.1714 32.3069 48.8837 32.012C49.596 31.717 50.3797 31.6398 51.1358 31.7903C51.8919 31.9407 52.5865 32.3121 53.1317 32.8572C53.6768 33.4023 54.048 34.0968 54.1985 34.853C54.3489 35.6091 54.2718 36.3929 53.9769 37.1052C53.6819 37.8175 53.1824 38.4263 52.5415 38.8547C51.9005 39.2831 51.1469 39.5118 50.3759 39.512C49.3415 39.512 48.3495 39.1013 47.6177 38.3702C46.8859 37.639 46.4743 36.6473 46.4734 35.6129H46.4768ZM54.1132 41.7382C54.0307 41.7024 53.9413 41.6853 53.8514 41.6883C53.7615 41.6914 53.6735 41.7144 53.5936 41.7557C53.5137 41.7969 53.444 41.8556 53.3896 41.9271C53.3351 41.9987 53.2973 42.0814 53.2788 42.1694L53.0232 43.3874L51.7958 40.516C52.5612 40.2924 53.2635 39.8925 53.8464 39.3484L55.3669 42.2845L54.1132 41.7382Z" fill="#FF4521"/>
</svg>
