<svg width="62" height="54" viewBox="0 0 62 54" fill="none" xmlns="http://www.w3.org/2000/svg">
<path d="M61.5096 12.5056C61.4906 9.14262 61.4706 5.77958 61.4706 2.41858C61.4708 2.23645 61.4151 2.05871 61.3109 1.9093C61.2068 1.75989 61.0593 1.64609 60.8883 1.58325C60.7174 1.52042 60.5313 1.51159 60.3551 1.55798C60.179 1.60438 60.0214 1.70375 59.9036 1.84265C57.9036 4.19865 53.8956 5.6626 49.4516 5.6626C44.1346 5.6626 39.4926 3.55262 38.1636 0.531616C38.0942 0.373534 37.9803 0.239058 37.8357 0.144653C37.6912 0.0502491 37.5223 0 37.3496 0C37.177 0 37.0081 0.0502491 36.8635 0.144653C36.719 0.239058 36.605 0.373534 36.5356 0.531616C35.2066 3.55262 30.5656 5.6626 25.2486 5.6626C20.8026 5.6626 16.7976 4.19865 14.7966 1.84265C14.6788 1.70375 14.5212 1.60438 14.3451 1.55798C14.169 1.51159 13.9828 1.52042 13.8119 1.58325C13.641 1.64609 13.4934 1.75989 13.3893 1.9093C13.2851 2.05871 13.2294 2.23645 13.2296 2.41858C13.2296 4.53958 13.2146 11.1076 13.2036 13.2296C13.8036 13.2026 14.4166 11.5016 14.9836 11.6866C14.9916 10.1636 15.0026 5.97161 15.0056 4.44861C18.0233 6.49204 21.6055 7.53834 25.2486 7.44055C30.4626 7.44055 35.1566 5.51761 37.3486 2.62061C39.5416 5.52061 44.2356 7.44055 49.4486 7.44055C53.0917 7.53801 56.6738 6.49173 59.6916 4.44861C59.6969 7.13661 59.7093 9.82562 59.7286 12.5156C59.7486 15.8766 59.7686 19.2367 59.7686 22.5927C59.7686 31.9367 54.6896 40.7666 46.0686 47.1366C46.5059 47.55 46.8626 48.041 47.1206 48.5846C56.2056 41.8846 61.5486 32.5197 61.5486 22.5927C61.5496 19.2327 61.5246 15.8696 61.5096 12.5056Z" fill="#FF4521"/>
<path d="M7.63725 48.4706C7.41028 48.476 7.19046 48.391 7.02603 48.2345C6.86161 48.0779 6.76602 47.8626 6.76025 47.6356V30.0226C6.77102 29.7972 6.86812 29.5846 7.03141 29.429C7.1947 29.2733 7.41165 29.1865 7.63725 29.1865C7.86286 29.1865 8.07981 29.2733 8.2431 29.429C8.40639 29.5846 8.50349 29.7972 8.51425 30.0226V47.6376C8.50797 47.8642 8.41216 48.0791 8.24779 48.2352C8.08342 48.3914 7.86389 48.476 7.63725 48.4706Z" fill="#FF4521"/>
<path d="M40.8366 29.9576H4.11058C3.88298 29.95 3.66727 29.8542 3.50898 29.6904C3.35069 29.5267 3.26221 29.3078 3.26221 29.0801C3.26221 28.8523 3.35069 28.6336 3.50898 28.4698C3.66727 28.3061 3.88298 28.2103 4.11058 28.2026H40.8366C41.0642 28.2103 41.2799 28.3061 41.4382 28.4698C41.5965 28.6336 41.685 28.8523 41.685 29.0801C41.685 29.3078 41.5965 29.5267 41.4382 29.6904C41.2799 29.8542 41.0642 29.95 40.8366 29.9576Z" fill="#FF4521"/>
<path d="M40.4394 25.3876H4.50839C4.31247 25.3879 4.12206 25.3226 3.96756 25.2021C3.81306 25.0817 3.70336 24.9129 3.65595 24.7228C3.60854 24.5327 3.62615 24.3322 3.70598 24.1533C3.78581 23.9744 3.92325 23.8273 4.09639 23.7356L22.0614 14.1816C22.1882 14.1141 22.3297 14.0789 22.4734 14.0789C22.6171 14.0789 22.7586 14.1141 22.8854 14.1816L40.8514 23.7356C41.0245 23.8273 41.162 23.9744 41.2418 24.1533C41.3216 24.3322 41.3393 24.5327 41.2918 24.7228C41.2444 24.9129 41.1347 25.0817 40.9802 25.2021C40.8257 25.3226 40.6353 25.3879 40.4394 25.3876ZM8.02439 23.6326H36.9244L22.4764 15.9496L8.02439 23.6326Z" fill="#FF4521"/>
<path d="M39.8615 49.1755H5.08648C4.85375 49.1755 4.63056 49.0831 4.466 48.9186C4.30143 48.754 4.20898 48.5308 4.20898 48.2981C4.20898 48.0654 4.30143 47.8422 4.466 47.6776C4.63056 47.513 4.85375 47.4207 5.08648 47.4207H39.8615C40.0942 47.4207 40.3174 47.513 40.482 47.6776C40.6465 47.8422 40.739 48.0654 40.739 48.2981C40.739 48.5308 40.6465 48.754 40.482 48.9186C40.3174 49.0831 40.0942 49.1755 39.8615 49.1755Z" fill="#FF4521"/>
<path d="M44.0994 53.7374H0.848373C0.620773 53.7297 0.405062 53.6339 0.246773 53.4702C0.0884834 53.3065 0 53.0877 0 52.86C0 52.6323 0.0884834 52.4135 0.246773 52.2498C0.405062 52.086 0.620773 51.9901 0.848373 51.9824H44.0994C44.327 51.9901 44.5427 52.086 44.701 52.2498C44.8593 52.4135 44.9477 52.6323 44.9477 52.86C44.9477 53.0877 44.8593 53.3065 44.701 53.4702C44.5427 53.6339 44.327 53.7297 44.0994 53.7374Z" fill="#FF4521"/>
<path d="M12.1075 48.4706C11.8805 48.476 11.6607 48.391 11.4962 48.2345C11.3318 48.0779 11.2362 47.8626 11.2305 47.6356V30.0226C11.2412 29.7972 11.3383 29.5846 11.5016 29.429C11.6649 29.2733 11.8819 29.1865 12.1075 29.1865C12.3331 29.1865 12.55 29.2733 12.7133 29.429C12.8766 29.5846 12.9737 29.7972 12.9845 30.0226V47.6376C12.9782 47.8642 12.8824 48.0791 12.718 48.2352C12.5536 48.3914 12.3341 48.476 12.1075 48.4706Z" fill="#FF4521"/>
<path d="M32.1705 48.4706C31.9435 48.476 31.7237 48.391 31.5592 48.2345C31.3948 48.0779 31.2992 47.8626 31.2935 47.6356V30.0226C31.3042 29.7972 31.4013 29.5846 31.5646 29.429C31.7279 29.2733 31.9449 29.1865 32.1705 29.1865C32.3961 29.1865 32.613 29.2733 32.7763 29.429C32.9396 29.5846 33.0367 29.7972 33.0475 30.0226V47.6376C33.0412 47.8642 32.9454 48.0791 32.781 48.2352C32.6166 48.3914 32.3971 48.476 32.1705 48.4706Z" fill="#FF4521"/>
<path d="M36.6402 48.4706C36.4132 48.476 36.1934 48.391 36.029 48.2345C35.8645 48.0779 35.7689 47.8626 35.7632 47.6356V30.0226C35.7739 29.7972 35.871 29.5846 36.0343 29.429C36.1976 29.2733 36.4146 29.1865 36.6402 29.1865C36.8658 29.1865 37.0827 29.2733 37.246 29.429C37.4093 29.5846 37.5064 29.7972 37.5172 30.0226V47.6376C37.5109 47.8642 37.4151 48.0791 37.2507 48.2352C37.0863 48.3914 36.8668 48.476 36.6402 48.4706Z" fill="#FF4521"/>
<path d="M22.0415 35.6947C21.8542 35.6947 21.6746 35.6203 21.5422 35.4879C21.4098 35.3555 21.3355 35.176 21.3355 34.9888V33.2887C21.3319 33.1937 21.3475 33.099 21.3814 33.0101C21.4153 32.9213 21.4668 32.8402 21.5327 32.7717C21.5987 32.7032 21.6778 32.6488 21.7653 32.6116C21.8528 32.5744 21.9469 32.5552 22.042 32.5552C22.137 32.5552 22.2312 32.5744 22.3187 32.6116C22.4062 32.6488 22.4852 32.7032 22.5512 32.7717C22.6172 32.8402 22.6686 32.9213 22.7025 33.0101C22.7364 33.099 22.752 33.1937 22.7485 33.2887V34.9888C22.7482 35.1761 22.6736 35.3557 22.541 35.488C22.4085 35.6204 22.2288 35.6947 22.0415 35.6947Z" fill="#FF4521"/>
<path d="M22.0415 44.7927C21.8543 44.7925 21.6749 44.718 21.5425 44.5857C21.4102 44.4534 21.3357 44.2738 21.3355 44.0867V42.3867C21.3319 42.2917 21.3475 42.197 21.3814 42.1082C21.4153 42.0193 21.4668 41.9382 21.5327 41.8698C21.5987 41.8013 21.6778 41.7467 21.7653 41.7095C21.8528 41.6723 21.9469 41.6531 22.042 41.6531C22.137 41.6531 22.2312 41.6723 22.3187 41.7095C22.4062 41.7467 22.4852 41.8013 22.5512 41.8698C22.6172 41.9382 22.6686 42.0193 22.7025 42.1082C22.7364 42.197 22.752 42.2917 22.7485 42.3867V44.0867C22.7482 44.274 22.6736 44.4536 22.541 44.5859C22.4085 44.7183 22.2288 44.7927 22.0415 44.7927Z" fill="#FF4521"/>
<path d="M22.3792 42.8266C22.164 42.8265 21.949 42.8141 21.7352 42.7897C20.9864 42.6773 20.2514 42.487 19.5422 42.2217L19.4032 42.1747C19.3152 42.1454 19.2339 42.099 19.1638 42.0383C19.0937 41.9776 19.0363 41.9037 18.9948 41.8208C18.9533 41.7379 18.9285 41.6475 18.9219 41.555C18.9153 41.4625 18.9269 41.3697 18.9562 41.2817C18.9855 41.1937 19.0318 41.1123 19.0926 41.0422C19.1533 40.9721 19.2272 40.9148 19.3102 40.8733C19.3931 40.8318 19.4834 40.807 19.5759 40.8004C19.6684 40.7938 19.7612 40.8054 19.8492 40.8347L19.9902 40.8807C20.6047 41.1134 21.2413 41.2826 21.8902 41.3857C22.2662 41.4828 22.6611 41.4799 23.0356 41.3773C23.4101 41.2747 23.7513 41.0758 24.0252 40.8006C24.0945 40.7081 24.1357 40.5976 24.1436 40.4823C24.1516 40.367 24.1261 40.2519 24.0702 40.1507C23.8259 39.8661 23.5137 39.6476 23.1625 39.5156C22.8114 39.3836 22.4326 39.3424 22.0612 39.3957H22.0442C21.412 39.4667 20.7724 39.3646 20.1937 39.1004C19.6149 38.8363 19.1188 38.4199 18.7582 37.8957C18.5841 37.5692 18.504 37.2007 18.5267 36.8314C18.5495 36.4621 18.6743 36.1063 18.8872 35.8037C19.3056 35.3028 19.8523 34.925 20.4688 34.7108C21.0853 34.4966 21.7484 34.4541 22.3872 34.5878C23.1426 34.7008 23.884 34.8928 24.5992 35.1608L24.7262 35.2027C24.8172 35.2297 24.9017 35.2745 24.9749 35.3348C25.0481 35.3951 25.1084 35.4695 25.1523 35.5536C25.1962 35.6376 25.2227 35.7297 25.2302 35.8242C25.2378 35.9187 25.2263 36.0138 25.1964 36.1037C25.1664 36.1937 25.1187 36.2767 25.056 36.3479C24.9934 36.419 24.917 36.4769 24.8316 36.5179C24.7461 36.559 24.6532 36.5823 24.5585 36.5868C24.4638 36.5912 24.3692 36.5766 24.2802 36.5437L24.1512 36.5007C23.5294 36.2663 22.8855 36.0955 22.2292 35.9907C21.8458 35.8925 21.4432 35.897 21.062 36.0035C20.6808 36.1101 20.3342 36.315 20.0572 36.5978C19.9891 36.6878 19.9482 36.7954 19.9394 36.9079C19.9305 37.0205 19.9541 37.1331 20.0072 37.2326C20.2012 37.5956 20.8372 37.9826 22.0452 37.9826H22.0842C22.7101 37.9155 23.3424 38.0201 23.9132 38.2853C24.4841 38.5504 24.9719 38.9661 25.3242 39.4877C25.5004 39.8162 25.5821 40.1873 25.56 40.5594C25.5379 40.9316 25.413 41.2903 25.1992 41.5957C24.8651 42.0152 24.4335 42.3466 23.942 42.5611C23.4505 42.7757 22.914 42.8668 22.3792 42.8266Z" fill="#FF4521"/>
</svg>
