<svg width="57" height="51" viewBox="0 0 57 51" fill="none" xmlns="http://www.w3.org/2000/svg">
<path d="M37.6019 50.356H19.2839C19.0798 50.3564 18.8833 50.2787 18.7346 50.1389C18.5858 49.9991 18.4962 49.8078 18.484 49.604C18.484 49.543 18.479 49.504 18.479 49.459C18.479 46.068 20.9049 43.018 24.5789 41.715V31.4C22.4756 30.5145 20.6076 29.1512 19.1229 27.418C15.8582 26.9293 12.7276 25.7791 9.92292 24.038C6.31056 21.9888 3.34267 18.971 1.35395 15.325C-0.376048 11.901 -0.79205 7.13201 2.17695 4.19501C2.81712 3.57743 3.574 3.0937 4.40333 2.77209C5.23266 2.45049 6.11774 2.2975 7.00691 2.32202C8.29791 2.33809 9.57403 2.60007 10.7669 3.09399C10.7249 2.31499 10.6989 1.55798 10.6879 0.807983C10.6869 0.702255 10.7068 0.597375 10.7465 0.49939C10.7863 0.401404 10.845 0.312258 10.9194 0.237122C10.9938 0.161985 11.0824 0.102349 11.1799 0.0616455C11.2775 0.0209424 11.3822 -5.28584e-06 11.4879 1.00056e-09H45.3989C45.5047 -5.28584e-06 45.6093 0.0209424 45.7069 0.0616455C45.8045 0.102349 45.8931 0.161985 45.9675 0.237122C46.0419 0.312258 46.1006 0.401404 46.1403 0.49939C46.1801 0.597375 46.2 0.702255 46.1989 0.807983C46.1879 1.56898 46.1609 2.351 46.117 3.146C47.3455 2.61944 48.6655 2.33949 50.002 2.32202C50.8907 2.29756 51.7753 2.45061 52.6041 2.77222C53.433 3.09383 54.1893 3.57752 54.8289 4.19501C57.7999 7.13401 57.384 11.903 55.653 15.325C53.6636 18.9711 50.6954 21.9891 47.083 24.039C44.2407 25.8067 41.0622 26.9645 37.7489 27.439C36.2677 29.1632 34.4061 30.5195 32.3109 31.401V41.715C35.9809 43.015 38.411 46.068 38.411 49.459C38.411 49.49 38.411 49.521 38.411 49.551C38.4108 49.657 38.3898 49.7619 38.349 49.8598C38.3083 49.9577 38.2486 50.0466 38.1735 50.1213C38.0983 50.1961 38.0091 50.2553 37.9111 50.2956C37.813 50.3359 37.708 50.3564 37.6019 50.356ZM20.1209 48.763H36.7639C36.4339 46.192 34.3159 43.953 31.2849 43.057C31.1205 43.0077 30.9764 42.9067 30.8737 42.7692C30.7711 42.6316 30.7154 42.4647 30.7149 42.293V30.845C30.7155 30.6787 30.768 30.5167 30.8649 30.3815C30.9619 30.2464 31.0986 30.1448 31.2559 30.091C33.4053 29.2904 35.3034 27.9331 36.7559 26.158C36.888 26.0074 37.0718 25.9117 37.2709 25.89C40.4679 25.4776 43.5379 24.3792 46.2709 22.67C49.6235 20.7744 52.3813 17.9819 54.2349 14.606C55.7049 11.7 56.114 7.706 53.713 5.328C53.2198 4.85818 52.638 4.49126 52.0015 4.24866C51.3651 4.00606 50.6867 3.89261 50.0059 3.91498C48.6876 3.9385 47.3916 4.25985 46.2149 4.85498C46.0149 4.95498 45.8279 5.05501 45.6379 5.16901C45.5122 5.24207 45.369 5.27947 45.2236 5.27722C45.0782 5.27497 44.9361 5.23317 44.8128 5.15625C44.6894 5.07933 44.5892 4.97024 44.5232 4.8407C44.4572 4.71115 44.4277 4.56607 44.4379 4.42102C44.5129 3.46202 44.5639 2.51399 44.5919 1.59399H12.302C12.328 2.48399 12.377 3.394 12.45 4.349C12.4599 4.49287 12.4307 4.63672 12.3655 4.76538C12.3004 4.89404 12.2017 5.00274 12.0798 5.0799C11.958 5.15705 11.8176 5.19984 11.6735 5.20374C11.5293 5.20763 11.3868 5.17245 11.2609 5.10199C11.1099 5.01499 10.9609 4.93098 10.8029 4.85498C9.62629 4.25985 8.33028 3.9385 7.01191 3.91498C6.33085 3.89262 5.65217 4.00607 5.01539 4.24866C4.37861 4.49125 3.79648 4.85816 3.30293 5.328C0.902927 7.702 1.31193 11.699 2.78193 14.608C4.63551 17.983 7.39251 20.7751 10.7439 22.671C13.441 24.353 16.4643 25.4436 19.614 25.871C19.8113 25.8939 19.9931 25.9894 20.1239 26.139C21.5778 27.9207 23.4795 29.2836 25.6339 30.088C25.7915 30.1417 25.9284 30.2431 26.0255 30.3783C26.1227 30.5134 26.1752 30.6755 26.1759 30.842V42.29C26.1754 42.4618 26.1196 42.6288 26.0167 42.7664C25.9139 42.904 25.7695 43.0048 25.6049 43.054C22.5729 43.954 20.4479 46.195 20.1209 48.763ZM39.7929 23.729C39.6559 23.7276 39.5215 23.691 39.4027 23.6227C39.2839 23.5545 39.1846 23.4569 39.1143 23.3392C39.0441 23.2216 39.0052 23.0879 39.0015 22.9509C38.9977 22.814 39.0292 22.6783 39.0929 22.557C39.1169 22.513 39.1409 22.465 39.1629 22.418L39.239 22.268C41.6956 18.1361 43.3073 13.5576 43.9809 8.79797C44.0045 8.6451 44.0719 8.50239 44.1749 8.38702C44.9089 7.54932 45.7957 6.85903 46.7879 6.35303C47.7852 5.84847 48.8834 5.57498 50.0009 5.55298C50.5139 5.52985 51.0263 5.61048 51.5075 5.79004C51.9886 5.9696 52.4285 6.24444 52.8009 6.59802C54.8009 8.56802 54.2589 11.742 53.0889 14.055C51.1339 17.92 47.5369 20.062 45.604 21.213C43.8547 22.2784 41.9751 23.1133 40.0119 23.697C39.9409 23.7183 39.8671 23.729 39.7929 23.729ZM45.515 9.28101C44.8855 13.5555 43.5236 17.6894 41.489 21.501C42.6296 21.034 43.7328 20.4805 44.7889 19.845C47.2729 18.366 50.0549 16.522 51.6669 13.336C52.5409 11.607 53.067 9.101 51.679 7.729C51.4518 7.52459 51.186 7.3677 50.8973 7.26758C50.6087 7.16745 50.3029 7.1261 49.9979 7.146C49.1258 7.16723 48.2696 7.3846 47.4929 7.78198C46.7502 8.16119 46.0805 8.66905 45.515 9.28198V9.28101ZM17.0889 23.696C17.0131 23.696 16.9377 23.6852 16.8649 23.664C14.9476 23.0802 13.111 22.2585 11.398 21.218C9.46596 20.067 5.86996 17.918 3.91596 14.06C2.74596 11.747 2.20591 8.57198 4.20191 6.59998C4.57478 6.2471 5.01484 5.97287 5.49586 5.79352C5.97688 5.61417 6.48909 5.5334 7.00196 5.55603C8.11911 5.57819 9.2169 5.8516 10.2139 6.35602C11.1344 6.82137 11.9647 7.44677 12.666 8.203C12.7774 8.32105 12.85 8.4704 12.8739 8.63098C13.5376 13.5364 15.2036 18.2529 17.768 22.487C17.8393 22.608 17.8774 22.7458 17.8786 22.8862C17.8798 23.0267 17.844 23.165 17.7747 23.2872C17.7055 23.4095 17.6053 23.5114 17.4842 23.5826C17.3631 23.6538 17.2254 23.6919 17.0849 23.693L17.0889 23.696ZM12.213 19.849C13.2193 20.4527 14.2676 20.9834 15.3499 21.437C13.3227 17.5903 11.9669 13.4258 11.341 9.12299C10.8069 8.58105 10.1885 8.12918 9.50996 7.78497C8.73467 7.38882 7.88032 7.17187 7.00996 7.15002C6.70466 7.13016 6.39842 7.17137 6.10926 7.2713C5.8201 7.37124 5.55382 7.52786 5.32594 7.73199C3.93594 9.10599 4.46595 11.611 5.34095 13.34C6.95095 16.525 9.73495 18.37 12.216 19.849H12.213Z" fill="#FF4521"/>
</svg>
