<svg width="68" height="55" viewBox="0 0 68 55" fill="none" xmlns="http://www.w3.org/2000/svg">
<path d="M50.6207 49.1862C50.6209 49.0928 50.6026 49.0001 50.5669 48.9138C50.5312 48.8275 50.4789 48.7492 50.4128 48.6831C50.3468 48.6171 50.2683 48.5646 50.182 48.5289C50.0957 48.4933 50.0032 48.475 49.9098 48.4751H38.2517C37.8042 48.5105 37.36 48.3746 37.0088 48.0951C36.8678 47.9332 36.7634 47.7429 36.7026 47.537C36.6419 47.3311 36.6262 47.1146 36.6567 46.9021C36.7727 44.3671 36.6617 32.4021 36.6567 31.8761C36.665 31.5823 36.7733 31.3001 36.9637 31.0762C37.1003 30.9508 37.2605 30.8539 37.4349 30.7913C37.6094 30.7286 37.7946 30.7013 37.9797 30.7111C38.6637 30.6901 41.3198 30.6841 44.5568 30.6841C50.9568 30.6841 59.6568 30.7221 59.7898 30.7091C60.2436 30.6754 60.6944 30.8052 61.0608 31.0751C61.1721 31.191 61.2574 31.3292 61.3114 31.4806C61.3654 31.6319 61.3867 31.793 61.3738 31.9531V35.8131C61.3738 36.0014 61.4485 36.182 61.5817 36.3152C61.7148 36.4483 61.8954 36.5231 62.0837 36.5231C62.272 36.5231 62.4527 36.4483 62.5858 36.3152C62.719 36.182 62.7937 36.0014 62.7937 35.8131V31.9531C62.8093 31.5952 62.7483 31.2381 62.6146 30.9058C62.481 30.5734 62.2779 30.2735 62.0188 30.0261C61.3798 29.4996 60.564 29.2367 59.7378 29.2911C59.2528 29.2911 52.1308 29.2691 46.1238 29.2661C46.5592 27.5031 46.7814 25.6942 46.7858 23.8782C46.7858 23.8372 46.7808 23.7992 46.7808 23.7592C46.7808 23.7482 46.7858 23.7391 46.7858 23.7291C46.7858 23.7191 46.7768 23.6961 46.7758 23.6791C46.706 17.5925 44.2383 11.7791 39.9083 7.50086C35.5784 3.22261 29.7358 0.824832 23.6488 0.828128H23.5907H23.5768C23.5678 0.828128 23.5617 0.828128 23.5527 0.828128C17.4474 0.848171 11.5978 3.28267 7.28101 7.60022C2.9642 11.9178 0.530702 17.7678 0.511719 23.8732C0.510573 29.3085 2.44442 34.5666 5.9668 38.7061C5.9718 38.7151 5.97178 38.7252 5.97778 38.7332C6.00278 38.7752 6.04576 38.7932 6.07776 38.8272C8.23784 41.3524 10.917 43.3821 13.9327 44.7778C16.9484 46.1736 20.2297 46.9026 23.5527 46.9152C23.5606 46.9174 23.5687 46.919 23.5768 46.9202H23.5907C23.6107 46.9202 23.6288 46.9202 23.6488 46.9202C27.7414 46.9157 31.7586 45.819 35.2858 43.7432C35.2808 45.1182 35.2648 46.2431 35.2388 46.8251C35.1936 47.242 35.2414 47.6639 35.3787 48.0602C35.5159 48.4565 35.7393 48.8174 36.0327 49.1171C36.61 49.6244 37.3553 49.8992 38.1238 49.8881C38.1872 49.8887 38.2506 49.8861 38.3137 49.8801H49.9137C50.0988 49.8797 50.2765 49.8068 50.4086 49.6771C50.5407 49.5474 50.6168 49.3712 50.6207 49.1862ZM32.1088 34.0101C29.9216 33.3949 27.6761 33.0108 25.4088 32.8641H24.2877V24.4421H34.1448C34.0944 27.7335 33.4028 30.9834 32.1088 34.0101ZM24.2858 45.4901V34.2852H25.3857C27.4746 34.4329 29.5436 34.787 31.5627 35.3422C29.9338 38.9748 27.8294 42.3748 25.3048 45.4531C24.9688 45.4761 24.6268 45.4801 24.2858 45.4901ZM22.0458 45.4331C19.5001 42.3244 17.3733 38.8952 15.7197 35.2332C17.5812 34.7043 19.4962 34.3866 21.4287 34.2861H22.8657V45.4761C22.5927 45.4641 22.3188 45.4521 22.0468 45.4321L22.0458 45.4331ZM1.95972 24.4471H11.5687C11.6955 27.8472 12.4435 31.1954 13.7758 34.3262C11.3339 35.1232 8.97923 36.1658 6.7478 37.4381C3.75944 33.7544 2.07605 29.1842 1.96082 24.4421L1.95972 24.4471ZM6.8158 10.2411C8.9265 11.4529 11.1495 12.4576 13.4537 13.2411C12.3757 16.3971 11.7439 19.6883 11.5768 23.0192H1.97681C2.15578 18.3468 3.85517 13.8604 6.81677 10.2421L6.8158 10.2411ZM21.7717 2.35108C22.1327 2.32008 22.4987 2.30915 22.8647 2.29615V13.4421H21.6068C19.4731 13.329 17.3609 12.9573 15.3168 12.3351C16.7332 8.58459 18.9355 5.18043 21.7758 2.35108H21.7717ZM25.0997 2.33008C27.9781 5.18482 30.2291 8.60878 31.7087 12.3831C29.6963 12.935 27.6349 13.2894 25.5537 13.4412H24.2838V2.28907C24.5598 2.29607 24.8307 2.31108 25.1007 2.33008H25.0997ZM24.2848 14.8601H25.5778C27.8233 14.7157 30.0477 14.3372 32.2147 13.7311C33.2894 16.7243 33.9293 19.8562 34.1147 23.0311H24.2858L24.2848 14.8601ZM21.5758 14.8601H22.8647V23.0261H12.9988C13.1643 19.8392 13.7798 16.6917 14.8268 13.6771C17.02 14.3444 19.2864 14.7419 21.5758 14.8611V14.8601ZM12.9928 24.4462H22.8647V32.8632H21.3977C19.2877 32.9706 17.1971 33.3199 15.1667 33.9042C13.8916 30.9026 13.1564 27.6994 12.9948 24.4421L12.9928 24.4462ZM35.5367 23.0261C35.3507 19.7196 34.6994 16.4557 33.6018 13.3311C36.025 12.5878 38.3696 11.6088 40.6018 10.4081C43.4877 13.9986 45.1409 18.4229 45.3168 23.0261H35.5367ZM39.6448 9.30909C37.5546 10.4057 35.3656 11.3023 33.1068 11.9871C31.7494 8.54376 29.8 5.36458 27.3468 2.59314C32.0767 3.40985 36.4023 5.77168 39.6467 9.30909H39.6448ZM19.4838 2.66407C17.1099 5.39358 15.2331 8.51829 13.9387 11.8961C11.8109 11.1668 9.7522 10.2499 7.78674 9.15613C10.9054 5.8143 14.9997 3.54266 19.4857 2.66516L19.4838 2.66407ZM7.70874 38.5271C9.81862 37.3601 12.0346 36.3961 14.3268 35.6481C15.8564 39.0465 17.7846 42.251 20.0708 45.1941C15.3258 44.4035 10.9781 42.0586 7.71082 38.5281L7.70874 38.5271ZM27.2858 45.1981C29.55 42.2838 31.4547 39.1072 32.9587 35.7371C33.6977 35.9611 34.4718 36.2231 35.2688 36.5211C35.2798 38.2851 35.2877 40.3061 35.2877 42.1211C32.8534 43.6701 30.1336 44.7164 27.2887 45.1981H27.2858ZM35.9268 30.1111C35.4811 30.6047 35.2345 31.2461 35.2347 31.9111C35.2347 31.9511 35.2468 33.2171 35.2598 35.0051C34.6598 34.7871 34.0708 34.5921 33.5048 34.4161C34.8485 31.2642 35.5488 27.8755 35.5647 24.4491H45.3418C45.2943 26.079 45.0594 27.698 44.6417 29.2742C41.3607 29.2742 38.6498 29.2812 37.9418 29.3002C37.5689 29.2916 37.1982 29.359 36.8523 29.4984C36.5064 29.6379 36.1925 29.8463 35.9298 30.1111H35.9268Z" fill="#FF4521"/>
<path d="M55.6609 35.1455C55.661 35.0522 55.6428 34.9597 55.6071 34.8734C55.5714 34.7871 55.5189 34.7088 55.4529 34.6428C55.3868 34.5769 55.3084 34.5246 55.222 34.489C55.1357 34.4534 55.0433 34.4353 54.95 34.4355H39.8818C39.6935 34.4355 39.513 34.5103 39.3799 34.6434C39.2467 34.7766 39.1719 34.9572 39.1719 35.1455C39.1719 35.3338 39.2467 35.5144 39.3799 35.6476C39.513 35.7807 39.6935 35.8555 39.8818 35.8555H54.95C55.0433 35.8556 55.1357 35.8374 55.2219 35.8018C55.3082 35.7661 55.3866 35.7139 55.4526 35.648C55.5187 35.582 55.5711 35.5037 55.6068 35.4175C55.6426 35.3313 55.6609 35.2388 55.6609 35.1455Z" fill="#FF4521"/>
<path d="M51.9319 37.5723H39.8818C39.6935 37.5723 39.513 37.647 39.3799 37.7802C39.2467 37.9133 39.1719 38.0939 39.1719 38.2822C39.1719 38.4705 39.2467 38.6512 39.3799 38.7843C39.513 38.9175 39.6935 38.9923 39.8818 38.9923H51.9319C52.1202 38.9923 52.3008 38.9175 52.434 38.7843C52.5671 38.6512 52.6418 38.4705 52.6418 38.2822C52.6418 38.0939 52.5671 37.9133 52.434 37.7802C52.3008 37.647 52.1202 37.5723 51.9319 37.5723Z" fill="#FF4521"/>
<path d="M51.9319 43.6211H39.8818C39.6935 43.6211 39.513 43.696 39.3799 43.8291C39.2467 43.9623 39.1719 44.1429 39.1719 44.3312C39.1719 44.5195 39.2467 44.7 39.3799 44.8331C39.513 44.9663 39.6935 45.0411 39.8818 45.0411H51.9319C52.1202 45.0411 52.3008 44.9663 52.434 44.8331C52.5671 44.7 52.6418 44.5195 52.6418 44.3312C52.6418 44.1429 52.5671 43.9623 52.434 43.8291C52.3008 43.696 52.1202 43.6211 51.9319 43.6211Z" fill="#FF4521"/>
<path d="M51.9319 40.5977H39.8818C39.6935 40.5977 39.513 40.6725 39.3799 40.8057C39.2467 40.9388 39.1719 41.1194 39.1719 41.3077C39.1719 41.496 39.2467 41.6767 39.3799 41.8098C39.513 41.943 39.6935 42.0177 39.8818 42.0177H51.9319C52.1202 42.0177 52.3008 41.943 52.434 41.8098C52.5671 41.6767 52.6418 41.496 52.6418 41.3077C52.6418 41.1194 52.5671 40.9388 52.434 40.8057C52.3008 40.6725 52.1202 40.5977 51.9319 40.5977Z" fill="#FF4521"/>
<path d="M67.4083 51.5636L64.4293 45.8125C64.9865 44.935 65.3058 43.9277 65.3561 42.8895C65.4065 41.8513 65.186 40.8178 64.7163 39.8906C64.2465 38.9634 63.5437 38.1743 62.6768 37.6007C61.81 37.0271 60.8088 36.6888 59.7717 36.619C58.7346 36.5492 57.6972 36.7502 56.7613 37.2025C55.8254 37.6547 55.0232 38.3427 54.4334 39.1986C53.8437 40.0545 53.4867 41.0491 53.3974 42.0847C53.3081 43.1203 53.4897 44.1613 53.9243 45.1056L50.4572 50.8855C50.3807 51.0126 50.3459 51.1606 50.3577 51.3085C50.3696 51.4563 50.4275 51.5968 50.5233 51.7101C50.619 51.8234 50.7478 51.9039 50.8917 51.9402C51.0355 51.9765 51.1872 51.9669 51.3253 51.9126L53.8753 50.9186L54.5333 53.3315C54.5715 53.4709 54.6511 53.5953 54.7617 53.6883C54.8722 53.7814 55.0085 53.8386 55.1523 53.8525H55.2182C55.3515 53.8526 55.4823 53.8151 55.5953 53.7444C55.7083 53.6736 55.799 53.5724 55.8572 53.4525L58.2523 48.4985C58.6207 48.5695 58.9951 48.606 59.3703 48.6075C59.4453 48.6075 59.5182 48.5986 59.5922 48.5956L62.0593 54.3685C62.1141 54.4966 62.2052 54.6058 62.3215 54.6826C62.4377 54.7594 62.5739 54.8004 62.7132 54.8005C62.7362 54.8005 62.7593 54.8005 62.7833 54.8005C62.9337 54.7854 63.0753 54.7229 63.1877 54.6218C63.3001 54.5208 63.3774 54.3865 63.4083 54.2385L63.9892 51.4536L66.4942 52.5445C66.6287 52.6032 66.7782 52.6188 66.9219 52.5891C67.0657 52.5594 67.1967 52.4858 67.2969 52.3785C67.3972 52.2713 67.4617 52.1356 67.4816 51.9902C67.5016 51.8448 67.4759 51.6968 67.4083 51.5665V51.5636ZM55.4083 51.1275L55.0412 49.7836C55.0148 49.6875 54.9687 49.598 54.9057 49.5209C54.8427 49.4437 54.7641 49.3806 54.6752 49.3356C54.5862 49.2907 54.4886 49.2652 54.389 49.2607C54.2894 49.2562 54.19 49.2729 54.0972 49.3096L52.7473 49.8356L54.7763 46.4536C55.3519 47.1407 56.0738 47.6903 56.8892 48.0625L55.4083 51.1275ZM54.7993 42.6125C54.7995 41.708 55.0678 40.8238 55.5705 40.0718C56.0732 39.3197 56.7876 38.7336 57.6234 38.3876C58.4591 38.0415 59.3786 37.9509 60.2658 38.1274C61.153 38.3039 61.968 38.7396 62.6076 39.3793C63.2472 40.0189 63.6828 40.8338 63.8593 41.7209C64.0358 42.6081 63.9454 43.5278 63.5993 44.3635C63.2532 45.1993 62.6671 45.9136 61.9151 46.4162C61.1631 46.9189 60.2788 47.1873 59.3742 47.1875C58.1605 47.1875 56.9965 46.7056 56.1379 45.8478C55.2793 44.9899 54.7963 43.8263 54.7952 42.6125H54.7993ZM63.7592 49.7995C63.6624 49.7575 63.5575 49.7375 63.4521 49.7411C63.3466 49.7446 63.2433 49.7716 63.1496 49.8201C63.0559 49.8685 62.9741 49.9373 62.9102 50.0212C62.8463 50.1052 62.8019 50.2023 62.7802 50.3055L62.4803 51.7346L61.0402 48.3656C61.9382 48.1031 62.7623 47.6339 63.4462 46.9956L65.2303 50.4405L63.7592 49.7995Z" fill="#FF4521"/>
</svg>
