<svg width="47" height="48" viewBox="0 0 47 48" fill="none" xmlns="http://www.w3.org/2000/svg">
<path d="M46.5288 42.6819H5.31836V0H6.67741V41.3218H46.5288V42.6819Z" fill="#FF4521"/>
<path d="M5.99876 10.6606H0V12.0197H5.99876V10.6606Z" fill="#FF4521"/>
<path d="M5.99876 15.6934H0V17.0524H5.99876V15.6934Z" fill="#FF4521"/>
<path d="M5.99876 20.7266H0V22.0856H5.99876V20.7266Z" fill="#FF4521"/>
<path d="M5.99876 25.7583H0V27.1173H5.99876V25.7583Z" fill="#FF4521"/>
<path d="M5.99876 30.7925H0V32.1515H5.99876V30.7925Z" fill="#FF4521"/>
<path d="M5.99876 35.8242H0V37.1833H5.99876V35.8242Z" fill="#FF4521"/>
<path d="M5.99876 5.62744H0V6.98649H5.99876V5.62744Z" fill="#FF4521"/>
<path d="M5.99876 42.0026V40.8584H0V42.2177H5.31812V48.0002H6.67829V42.0026H5.99876Z" fill="#FF4521"/>
<path d="M11.7101 42.001H10.3511V47.9997H11.7101V42.001Z" fill="#FF4521"/>
<path d="M16.7428 42.001H15.3838V47.9997H16.7428V42.001Z" fill="#FF4521"/>
<path d="M21.776 42.001H20.417V47.9997H21.776V42.001Z" fill="#FF4521"/>
<path d="M26.8088 42.001H25.4497V47.9997H26.8088V42.001Z" fill="#FF4521"/>
<path d="M31.842 42.001H30.4829V47.9997H31.842V42.001Z" fill="#FF4521"/>
<path d="M37.1388 42.001H35.7798V47.9997H37.1388V42.001Z" fill="#FF4521"/>
<path d="M42.1716 42.001H40.8125V47.9997H42.1716V42.001Z" fill="#FF4521"/>
<path d="M39.2865 37.5217C38.168 37.5205 37.0652 37.2577 36.0663 36.7542C35.0675 36.2508 34.2002 35.5207 33.5339 34.6223C32.8675 33.7239 32.4206 32.6821 32.2287 31.5801C32.0368 30.4781 32.1054 29.3464 32.4289 28.2757L28.6893 24.5408L18.0675 35.1689C17.7661 35.4735 17.4071 35.7151 17.0114 35.8796C16.6157 36.0441 16.1912 36.1282 15.7627 36.1271C15.3337 36.1283 14.9087 36.0443 14.5125 35.8799C14.1162 35.7154 13.7566 35.4736 13.4546 35.1689L13.2485 34.962C12.9455 34.6594 12.7052 34.2999 12.5412 33.9043C12.3772 33.5087 12.2928 33.0847 12.2928 32.6565C12.2928 32.2283 12.3772 31.8043 12.5412 31.4087C12.7052 31.0132 12.9455 30.6537 13.2485 30.3511L23.8725 19.7283L19.665 15.5218C18.4196 15.8945 17.0963 15.9224 15.8364 15.6023C14.5764 15.2822 13.4269 14.6262 12.5104 13.7043C11.5939 12.7823 10.9448 11.6288 10.6322 10.3669C10.3196 9.10509 10.3552 7.78193 10.7354 6.53875L11.191 5.04157L15.5165 9.36611L18.7092 8.51377L19.5647 5.32006L15.5667 1.32324L18.0442 1.47582C19.1243 1.54106 20.1757 1.84972 21.1197 2.37874C22.0637 2.90777 22.8759 3.64329 23.4954 4.53054C24.1149 5.4178 24.5257 6.43386 24.6971 7.50232C24.8685 8.57079 24.796 9.66414 24.4852 10.7007L29.41 15.6276L35.4456 9.58885L35.7263 7.55808L41.9545 3.53651L44.8798 6.4664L40.8617 12.6958L38.8298 12.9765L32.7921 19.0109L37.248 23.4668C38.4901 23.0937 39.8102 23.0641 41.0678 23.3811C42.3255 23.6981 43.4738 24.3497 44.3908 25.2669C45.3859 26.2613 46.067 27.5263 46.3496 28.9045C46.6322 30.2826 46.5039 31.7132 45.9804 33.019L45.4513 34.3424L40.9107 29.802L38.4778 30.4558L37.8272 32.8888L42.1483 37.2098L40.2635 37.4616C39.9395 37.503 39.6132 37.5231 39.2865 37.5217ZM28.6893 21.8894L34.609 27.8035L34.3862 28.3771C34.1156 29.0518 33.9866 29.7751 34.0074 30.5017C34.0281 31.2284 34.198 31.9431 34.5067 32.6013C34.8153 33.2595 35.256 33.8471 35.8013 34.3278C36.3467 34.8084 36.9851 35.1717 37.6769 35.3952L35.733 33.4512L36.9461 28.924L41.4733 27.7075L44.5924 30.8267C44.664 30.0519 44.5638 29.2709 44.2991 28.5392C44.0343 27.8075 43.6115 27.1432 43.0607 26.5936C42.3271 25.8604 41.3948 25.3585 40.379 25.1494C39.3632 24.9404 38.3083 25.0334 37.3449 25.4173L36.7712 25.6458L30.1364 19.0087L37.9498 11.1997L39.7522 10.9511L42.4814 6.71824L41.7017 5.93824L37.4685 8.66879L37.219 10.4711L29.41 18.2869L22.3018 11.1774L22.5324 10.6025C22.8969 9.68809 22.9995 8.69041 22.8287 7.72098C22.6579 6.75155 22.2205 5.84868 21.5654 5.11391L20.2443 10.049L14.9551 11.4627L12.3027 8.80912C12.3305 9.66019 12.5627 10.4921 12.9797 11.2345C13.3966 11.977 13.9861 12.6082 14.6984 13.0749C15.4106 13.5416 16.2247 13.83 17.0719 13.9158C17.9191 14.0017 18.7745 13.8823 19.5658 13.568L20.1407 13.3453L26.5282 19.7327L14.5752 31.6845C14.4469 31.8127 14.3452 31.9649 14.2757 32.1324C14.2063 32.3 14.1705 32.4795 14.1705 32.6609C14.1705 32.8422 14.2063 33.022 14.2757 33.1896C14.3452 33.3571 14.4469 33.509 14.5752 33.6372L14.7824 33.8445C14.9104 33.9737 15.0628 34.0763 15.2307 34.1461C15.3986 34.2159 15.5787 34.2515 15.7605 34.2511C15.9417 34.2512 16.1211 34.2154 16.2884 34.1458C16.4557 34.0762 16.6076 33.9741 16.7352 33.8456L28.6893 21.8894Z" fill="#FF4521"/>
</svg>
