<svg width="70" height="46" viewBox="0 0 70 46" fill="none" xmlns="http://www.w3.org/2000/svg">
    <path d="M62.386 10.281H47.735a.826.826 0 0 0-.671.92.802.802 0 0 0 .71.868h14.573a.797.797 0 0 0 .71-.869.83.83 0 0 0-.671-.919zM62.386 18.797H47.735a.826.826 0 0 0-.671.92.802.802 0 0 0 .71.868h14.573a.798.798 0 0 0 .71-.87.83.83 0 0 0-.671-.918zM62.386 27.313H47.735a.826.826 0 0 0-.671.92.802.802 0 0 0 .71.868h14.573a.798.798 0 0 0 .71-.87.83.83 0 0 0-.671-.919zM62.386 35.827H47.735a.826.826 0 0 0-.671.92.802.802 0 0 0 .71.868h14.573a.797.797 0 0 0 .71-.87.83.83 0 0 0-.671-.918z" fill="#FF4521" stroke="#FF4521" stroke-width=".633"/>
    <path d="M65.335 1.094c-.085-.018-.184-.016-.274-.028A4.48 4.48 0 0 0 64.424 1H5.576a4.482 4.482 0 0 0-.637.066c-.09.012-.185.01-.274.028a4.583 4.583 0 0 0-2.63 1.594A4.606 4.606 0 0 0 1 5.59v35.1a4.606 4.606 0 0 0 1.035 2.901 4.583 4.583 0 0 0 2.63 1.594c.085.018.184.016.274.029.21.037.423.058.637.065h58.85a4.49 4.49 0 0 0 .637-.066c.09-.012.185-.01.273-.028a4.583 4.583 0 0 0 2.63-1.594A4.606 4.606 0 0 0 69 40.689V5.59a4.606 4.606 0 0 0-1.035-2.901 4.582 4.582 0 0 0-2.63-1.594zm1.588 21.266v13.154l-.007 2.015h.008v3.16a2.483 2.483 0 0 1-.121.732 2.51 2.51 0 0 1-1.885 1.723c-.018.004-.039 0-.056.005a2.527 2.527 0 0 1-.45.045H5.59a2.517 2.517 0 0 1-.45-.045c-.018 0-.038 0-.056-.005a2.5 2.5 0 0 1-1.885-1.723 2.481 2.481 0 0 1-.121-.732V37.53h.007l-.007-2.015V10.765l.007-2.015h-.007V5.59c.003-.249.044-.495.121-.732a2.511 2.511 0 0 1 1.885-1.722c.018-.005.038 0 .056-.006a2.52 2.52 0 0 1 .45-.045h58.818c.151.002.302.017.45.045a.18.18 0 0 1 .056.006A2.5 2.5 0 0 1 66.8 4.858c.077.237.118.483.122.732v3.159h-.009l.008 2.015v3.481l.003 8.115z" fill="#FF4521" stroke="#FF4521" stroke-width=".633"/>
    <path d="M11.778 34.655a.847.847 0 0 0 .68-.34 17.378 17.378 0 0 0 2.663-5.476c2.448-8.065 4.558-9.758 5.897-9.758a.848.848 0 0 0 .85-.851.853.853 0 0 0-.85-.852c-2.861 0-5.251 3.485-7.523 10.965a15.692 15.692 0 0 1-2.389 4.938.853.853 0 0 0 .675 1.367l-.003.007z" fill="#FF4521" stroke="#FF4521" stroke-width=".633"/>
    <path d="M43.493 36.031H36.3c-2.632 0-6.886-6.592-8.524-11.988a.851.851 0 0 0-1.06-.567.85.85 0 0 0-.565 1.063c.983 3.235 3.628 8.726 6.645 11.495H18.052c2.421-1.969 4.426-5.572 5.69-10.44 2.942-11.36 5.5-13.746 7.131-13.746 1.631 0 4.185 2.384 7.128 13.745a23.323 23.323 0 0 0 4.102 8.856.848.848 0 0 0 1.501-.458.854.854 0 0 0-.19-.624 21.657 21.657 0 0 1-3.77-8.201c-2.69-10.389-5.397-15.02-8.77-15.02-3.375 0-6.082 4.632-8.772 15.02-1.738 6.704-4.98 10.869-8.464 10.869h-3.223V9.515a.853.853 0 0 0-.849-.851.848.848 0 0 0-.849.851v27.368c.372.47.912.776 1.506.851h33.27a.848.848 0 0 0 .849-.851.852.852 0 0 0-.85-.852z" fill="#FF4521" stroke="#FF4521" stroke-width=".633"/>
</svg>
